Pretendard-Split-GOV.glyphspackage
{
glyphname = lowerHalfWhiteSquare;
kernLeft = B;
kernRight = H;
layers = (
{
layerId = "B1F27B51-9973-4381-9301-4FE46FE1CA59";
shapes = (
{
closed = 1;
nodes = (
(238,1344,l),
(2270,1344,l),
(2270,1408,l),
(238,1408,l)
);
},
{
ref = whiteRoundedCornersSquare;
}
);
width = 2504;
},
{
layerId = "5C20EF92-B63D-42A8-8878-93C2863E0093";
shapes = (
{
closed = 1;
nodes = (
(316,1060,l),
(2188,1060,l),
(2188,1304,l),
(316,1304,l)
);
},
{
ref = whiteRoundedCornersSquare;
}
);
width = 2504;
},
{
layerId = "CD0E3B44-F66A-4791-B84C-A1128DC61275";
shapes = (
{
closed = 1;
nodes = (
(284,1246,l),
(2218,1246,l),
(2218,1426,l),
(284,1426,l)
);
},
{
alignment = -1;
ref = whiteRoundedCornersSquare;
}
);
width = 2504;
}
);
metricLeft = whiteSquare;
metricRight = whiteSquare;
unicode = 11026;
}
{
glyphname = topHalfWhiteSquare;
kernLeft = B;
kernRight = H;
layers = (
{
layerId = "B1F27B51-9973-4381-9301-4FE46FE1CA59";
shapes = (
{
closed = 1;
nodes = (
(238,642,l),
(2270,642,l),
(2270,702,l),
(238,702,l)
);
},
{
ref = whiteRoundedCornersSquare;
}
);
width = 2504;
},
{
layerId = "5C20EF92-B63D-42A8-8878-93C2863E0093";
shapes = (
{
closed = 1;
nodes = (
(316,746,l),
(2188,746,l),
(2188,990,l),
(316,990,l)
);
},
{
ref = whiteRoundedCornersSquare;
}
);
width = 2504;
},
{
layerId = "CD0E3B44-F66A-4791-B84C-A1128DC61275";
shapes = (
{
closed = 1;
nodes = (
(284,622,l),
(2218,622,l),
(2218,802,l),
(284,802,l)
);
},
{
alignment = -1;
ref = whiteRoundedCornersSquare;
}
);
width = 2504;
}
);
metricLeft = whiteSquare;
metricRight = whiteSquare;
unicode = 11027;
}
{
color = 11;
glyphname = uni2EA0;
layers = (
{
layerId = "CD0E3B44-F66A-4791-B84C-A1128DC61275";
shapes = (
{
closed = 1;
nodes = (
(1250,1372,l),
(1292,578,o),
(1656,-94,o),
(2116,-91,cs),
(2304,-91,o),
(2383,4,o),
(2414,376,c),
(2360,392,o),
(2288,431,o),
(2245,473,c),
(2229,205,o),
(2204,102,o),
(2127,101,cs),
(1812,95,o),
(1483,668,o),
(1446,1372,c)
);
},
{
closed = 1;
nodes = (
(493,993,l),
(493,808,l),
(2364,808,l),
(2364,993,l)
);
},
{
closed = 1;
nodes = (
(178,-62,l),
(496,-13,o),
(953,54,o),
(1385,121,c),
(1379,310,l),
(923,245,o),
(438,178,o),
(131,141,c)
);
},
{
closed = 1;
nodes = (
(396,2081,l),
(396,85,l),
(595,85,l),
(595,2081,l)
);
},
{
closed = 1;
nodes = (
(492,2081,l),
(492,1898,l),
(1981,1898,l),
(1981,1508,l),
(492,1508,l),
(492,1327,l),
(2177,1327,l),
(2177,2081,l)
);
}
);
width = 2504;
},
{
layerId = "5C20EF92-B63D-42A8-8878-93C2863E0093";
shapes = (
{
closed = 1;
nodes = (
(1220,1319,l),
(1267,560,o),
(1579,-143,o),
(2004,-140,cs),
(2265,-140,o),
(2397,-59,o),
(2448,408,c),
(2343,441,o),
(2200,519,o),
(2118,604,c),
(2097,358,o),
(2077,249,o),
(2025,251,cs),
(1886,245,o),
(1653,789,o),
(1617,1319,c)
);
},
{
closed = 1;
nodes = (
(569,1092,l),
(569,726,l),
(2391,726,l),
(2391,1092,l)
);
},
{
closed = 1;
nodes = (
(178,-87,l),
(503,-48,o),
(935,5,o),
(1343,58,c),
(1330,447,l),
(902,398,o),
(417,348,o),
(89,320,c)
);
},
{
closed = 1;
nodes = (
(362,2148,l),
(362,159,l),
(770,159,l),
(770,2148,l)
);
},
{
closed = 1;
nodes = (
(554,2148,l),
(554,1788,l),
(1820,1788,l),
(1820,1627,l),
(554,1627,l),
(554,1264,l),
(2215,1264,l),
(2215,2148,l)
);
}
);
width = 2504;
},
{
layerId = "B1F27B51-9973-4381-9301-4FE46FE1CA59";
shapes = (
{
closed = 1;
nodes = (
(1271,1407,l),
(1310,590,o),
(1708,-62,o),
(2191,-61,cs),
(2330,-60,o),
(2374,43,o),
(2391,357,c),
(2372,360,o),
(2345,373,o),
(2327,385,c),
(2315,106,o),
(2286,6,o),
(2193,2,cs),
(1764,-2,o),
(1370,587,o),
(1336,1407,c)
);
},
{
closed = 1;
nodes = (
(444,927,l),
(444,864,l),
(2347,864,l),
(2347,927,l)
);
},
{
closed = 1;
nodes = (
(178,-45,l),
(491,9,o),
(965,85,o),
(1415,160,c),
(1409,221,l),
(937,146,o),
(451,66,o),
(159,25,c)
);
},
{
closed = 1;
nodes = (
(417,2034,l),
(417,36,l),
(480,36,l),
(480,2034,l)
);
},
{
closed = 1;
nodes = (
(452,2034,l),
(452,1971,l),
(2086,1971,l),
(2086,1431,l),
(452,1431,l),
(452,1366,l),
(2153,1366,l),
(2153,2034,l)
);
}
);
width = 2504;
}
);
note = cid22952;
unicode = (11936,27665);
}
{
color = 11;
glyphname = uni2EDD;
layers = (
{
layerId = "CD0E3B44-F66A-4791-B84C-A1128DC61275";
shapes = (
{
closed = 1;
nodes = (
(1483,1762,o),
(1927,1464,o),
(2303,1297,c),
(2334,1351,o),
(2381,1421,o),
(2425,1472,c),
(2036,1615,o),
(1604,1900,o),
(1329,2215,c),
(1134,2215,l),
(930,1937,o),
(514,1622,o),
(88,1439,c),
(128,1399,o),
(176,1328,o),
(200,1284,c),
(617,1473,o),
(1029,1778,o),
(1242,2042,c)
);
},
{
closed = 1;
nodes = (
(651,1084,l),
(651,947,l),
(1853,947,l),
(1853,1084,l)
);
},
{
closed = 1;
nodes = (
(280,-75,l),
(568,-41,o),
(980,3,o),
(1376,46,c),
(1371,216,l),
(958,174,o),
(528,131,o),
(253,110,c)
);
},
{
closed = 1;
nodes = (
(1130,622,l),
(1338,225,o),
(1743,-7,o),
(2273,-97,c),
(2297,-45,o),
(2350,30,o),
(2391,73,c),
(1875,141,o),
(1479,337,o),
(1295,669,c)
);
},
{
closed = 1;
nodes = (
(2130,711,l),
(1968,590,o),
(1685,430,o),
(1476,339,c),
(1600,242,l),
(1812,333,o),
(2081,471,o),
(2280,607,c)
);
},
{
closed = 1;
nodes = (
(653,1421,l),
(653,1272,l),
(1777,1272,l),
(1777,744,l),
(653,744,l),
(653,598,l),
(1971,598,l),
(1971,1421,l)
);
},
{
closed = 1;
nodes = (
(534,1421,l),
(534,91,l),
(726,110,l),
(726,1421,l)
);
},
{
closed = 1;
nodes = (
(855,1698,l),
(855,1558,l),
(1646,1558,l),
(1646,1698,l)
);
}
);
width = 2504;
},
{
layerId = "5C20EF92-B63D-42A8-8878-93C2863E0093";
shapes = (
{
closed = 1;
nodes = (
(1457,1688,o),
(1878,1425,o),
(2229,1280,c),
(2295,1394,o),
(2381,1531,o),
(2474,1634,c),
(2083,1736,o),
(1714,1951,o),
(1424,2264,c),
(1024,2264,l),
(830,2025,o),
(440,1742,o),
(35,1600,c),
(111,1526,o),
(211,1377,o),
(257,1284,c),
(642,1434,o),
(1029,1687,o),
(1242,1926,c)
);
},
{
closed = 1;
nodes = (
(721,1091,l),
(721,852,l),
(1749,852,l),
(1749,1091,l)
);
},
{
closed = 1;
nodes = (
(287,-115,l),
(575,-86,o),
(958,-50,o),
(1314,-16,c),
(1308,323,l),
(927,292,o),
(510,259,o),
(234,247,c)
);
},
{
closed = 1;
nodes = (
(1068,538,l),
(1301,152,o),
(1652,-57,o),
(2201,-135,c),
(2250,-32,o),
(2356,120,o),
(2435,204,c),
(1926,247,o),
(1574,378,o),
(1394,631,c)
);
},
{
closed = 1;
nodes = (
(2050,692,l),
(1920,569,o),
(1703,409,o),
(1533,322,c),
(1767,137,l),
(1933,215,o),
(2159,351,o),
(2339,485,c)
);
},
{
closed = 1;
nodes = (
(723,1434,l),
(723,1162,l),
(1621,1162,l),
(1621,776,l),
(723,776,l),
(723,509,l),
(2015,509,l),
(2015,1434,l)
);
},
{
closed = 1;
nodes = (
(475,1434,l),
(475,156,l),
(861,199,l),
(861,1434,l)
);
},
{
closed = 1;
nodes = (
(872,1748,l),
(872,1501,l),
(1594,1501,l),
(1594,1748,l)
);
}
);
width = 2504;
},
{
layerId = "B1F27B51-9973-4381-9301-4FE46FE1CA59";
shapes = (
{
closed = 1;
nodes = (
(1500,1811,o),
(1957,1489,o),
(2352,1308,c),
(2359,1322,o),
(2381,1349,o),
(2393,1364,c),
(2005,1533,o),
(1532,1864,o),
(1265,2183,c),
(1205,2183,l),
(996,1880,o),
(562,1541,o),
(123,1334,c),
(138,1316,o),
(154,1296,o),
(162,1284,c),
(600,1499,o),
(1029,1837,o),
(1242,2119,c)
);
},
{
closed = 1;
nodes = (
(604,1078,l),
(604,1011,l),
(1919,1011,l),
(1919,1078,l)
);
},
{
closed = 1;
nodes = (
(274,-47,l),
(562,-12,o),
(995,38,o),
(1414,86,c),
(1416,149,l),
(977,97,o),
(540,49,o),
(264,21,c)
);
},
{
closed = 1;
nodes = (
(1168,676,l),
(1362,274,o),
(1802,28,o),
(2318,-71,c),
(2328,-53,o),
(2347,-30,o),
(2363,-15,c),
(1839,73,o),
(1415,310,o),
(1229,695,c)
);
},
{
closed = 1;
nodes = (
(2182,723,l),
(2000,603,o),
(1673,444,o),
(1439,351,c),
(1492,311,l),
(1731,409,o),
(2029,553,o),
(2240,687,c)
);
},
{
closed = 1;
nodes = (
(608,1412,l),
(608,1343,l),
(1880,1343,l),
(1880,725,l),
(608,725,l),
(608,658,l),
(1943,658,l),
(1943,1412,l)
);
},
{
closed = 1;
nodes = (
(572,1412,l),
(572,46,l),
(636,52,l),
(636,1412,l)
);
},
{
closed = 1;
nodes = (
(846,1661,l),
(846,1595,l),
(1679,1595,l),
(1679,1661,l)
);
}
);
width = 2504;
}
);
note = cid01383;
unicode = (11997,39135);
}
{
color = 11;
glyphname = uni2EE8;
layers = (
{
layerId = "CD0E3B44-F66A-4791-B84C-A1128DC61275";
shapes = (
{
closed = 1;
nodes = (
(630,761,l),
(943,262,o),
(1534,1,o),
(2305,-89,c),
(2332,-34,o),
(2381,45,o),
(2421,92,c),
(1666,159,o),
(1070,397,o),
(797,827,c)
);
},
{
closed = 1;
nodes = (
(1816,927,l),
(1816,896,l),
(1542,417,o),
(814,162,o),
(127,78,c),
(158,35,o),
(197,-43,o),
(213,-93,c),
(939,13,o),
(1695,282,o),
(2020,861,c),
(1893,938,l),
(1857,927,l)
);
},
{
closed = 1;
nodes = (
(128,1289,l),
(128,1124,l),
(2374,1124,l),
(2374,1289,l)
);
},
{
closed = 1;
nodes = (
(253,2016,l),
(253,1851,l),
(2263,1851,l),
(2263,2016,l)
);
},
{
closed = 1;
nodes = (
(404,1657,l),
(404,1499,l),
(2126,1499,l),
(2126,1657,l)
);
},
{
closed = 1;
nodes = (
(1150,2211,l),
(1150,1184,l),
(1342,1184,l),
(1342,2211,l)
);
},
{
closed = 1;
nodes = (
(939,1178,l),
(790,976,o),
(514,748,o),
(131,587,c),
(178,554,o),
(239,492,o),
(269,446,c),
(666,636,o),
(953,881,o),
(1149,1135,c)
);
},
{
closed = 1;
nodes = (
(806,927,l),
(663,765,l),
(1858,765,l),
(1858,927,l)
);
}
);
width = 2504;
},
{
layerId = "5C20EF92-B63D-42A8-8878-93C2863E0093";
shapes = (
{
closed = 1;
nodes = (
(568,657,l),
(922,166,o),
(1437,-62,o),
(2231,-138,c),
(2283,-31,o),
(2381,133,o),
(2461,224,c),
(1710,259,o),
(1166,428,o),
(901,778,c)
);
},
{
closed = 1;
nodes = (
(1697,944,l),
(1697,891,l),
(1478,466,o),
(845,263,o),
(119,197,c),
(179,109,o),
(254,-43,o),
(280,-142,c),
(1091,-40,o),
(1783,205,o),
(2102,817,c),
(1844,965,l),
(1780,944,l)
);
},
{
closed = 1;
nodes = (
(96,1359,l),
(96,1046,l),
(2404,1046,l),
(2404,1359,l)
);
},
{
closed = 1;
nodes = (
(208,2098,l),
(208,1781,l),
(2273,1781,l),
(2273,2098,l)
);
},
{
closed = 1;
nodes = (
(374,1724,l),
(374,1429,l),
(2126,1429,l),
(2126,1724,l)
);
},
{
closed = 1;
nodes = (
(1045,2251,l),
(1045,1150,l),
(1429,1150,l),
(1429,2251,l)
);
},
{
closed = 1;
nodes = (
(835,1155,l),
(699,968,o),
(458,799,o),
(87,680,c),
(178,614,o),
(299,485,o),
(362,393,c),
(762,567,o),
(1027,782,o),
(1251,1068,c)
);
},
{
closed = 1;
nodes = (
(868,944,l),
(589,638,l),
(1774,638,l),
(1774,944,l)
);
}
);
width = 2504;
},
{
layerId = "B1F27B51-9973-4381-9301-4FE46FE1CA59";
shapes = (
{
closed = 1;
nodes = (
(668,829,l),
(957,326,o),
(1598,40,o),
(2354,-57,c),
(2363,-37,o),
(2381,-12,o),
(2397,5,c),
(1638,93,o),
(1006,377,o),
(729,859,c)
);
},
{
closed = 1;
nodes = (
(1895,915,l),
(1895,898,l),
(1585,385,o),
(795,95,o),
(132,1,c),
(145,-14,o),
(160,-43,o),
(168,-63,c),
(839,49,o),
(1638,335,o),
(1966,889,c),
(1925,921,l),
(1910,915,l)
);
},
{
closed = 1;
nodes = (
(147,1244,l),
(147,1176,l),
(2353,1176,l),
(2353,1244,l)
);
},
{
closed = 1;
nodes = (
(283,1960,l),
(283,1896,l),
(2258,1896,l),
(2258,1960,l)
);
},
{
closed = 1;
nodes = (
(425,1614,l),
(425,1544,l),
(2126,1544,l),
(2126,1614,l)
);
},
{
closed = 1;
nodes = (
(1219,2187,l),
(1219,1205,l),
(1284,1205,l),
(1284,2187,l)
);
},
{
closed = 1;
nodes = (
(1005,1193,l),
(851,983,o),
(551,713,o),
(159,526,c),
(178,516,o),
(201,499,o),
(208,481,c),
(604,682,o),
(905,946,o),
(1085,1178,c)
);
},
{
closed = 1;
nodes = (
(766,915,l),
(712,849,l),
(1912,849,l),
(1912,915,l)
);
}
);
width = 2504;
}
);
note = cid46903;
unicode = (12008,40614);
}
{
color = 11;
glyphname = uni2EE9;
layers = (
{
layerId = "CD0E3B44-F66A-4791-B84C-A1128DC61275";
shapes = (
{
closed = 1;
nodes = (
(137,1583,l),
(137,1404,l),
(2374,1404,l),
(2374,1583,l)
);
},
{
closed = 1;
nodes = (
(318,1994,l),
(318,1818,l),
(2207,1818,l),
(2207,1994,l)
);
},
{
closed = 1;
nodes = (
(758,2211,l),
(758,1497,l),
(955,1497,l),
(955,2211,l)
);
},
{
closed = 1;
nodes = (
(1557,2211,l),
(1557,1497,l),
(1756,1497,l),
(1756,2211,l)
);
},
{
closed = 1;
nodes = (
(1151,1487,l),
(1151,440,l),
(1350,440,l),
(1350,1487,l)
);
},
{
closed = 1;
nodes = (
(595,729,l),
(1921,729,l),
(1921,510,l),
(595,510,l)
);
},
{
closed = 1;
nodes = (
(595,1083,l),
(1921,1083,l),
(1921,867,l),
(595,867,l)
);
},
{
closed = 1;
nodes = (
(406,1226,l),
(406,368,l),
(2116,368,l),
(2116,1226,l)
);
},
{
closed = 1;
nodes = (
(1480,206,l),
(1760,106,o),
(2045,-8,o),
(2216,-93,c),
(2359,36,l),
(2173,121,o),
(1870,239,o),
(1593,328,c)
);
},
{
closed = 1;
nodes = (
(879,329,l),
(720,225,o),
(402,103,o),
(147,38,c),
(186,2,o),
(247,-60,o),
(278,-101,c),
(534,-31,o),
(852,92,o),
(1054,215,c)
);
}
);
width = 2504;
},
{
layerId = "5C20EF92-B63D-42A8-8878-93C2863E0093";
shapes = (
{
closed = 1;
nodes = (
(118,1676,l),
(118,1326,l),
(2399,1326,l),
(2399,1676,l)
);
},
{
closed = 1;
nodes = (
(293,2104,l),
(293,1759,l),
(2224,1759,l),
(2224,2104,l)
);
},
{
closed = 1;
nodes = (
(678,2251,l),
(678,1507,l),
(1077,1507,l),
(1077,2251,l)
);
},
{
closed = 1;
nodes = (
(1437,2251,l),
(1437,1507,l),
(1838,1507,l),
(1838,2251,l)
);
},
{
closed = 1;
nodes = (
(1054,1474,l),
(1054,465,l),
(1460,465,l),
(1460,1474,l)
);
},
{
closed = 1;
nodes = (
(724,666,l),
(1799,666,l),
(1799,594,l),
(724,594,l)
);
},
{
closed = 1;
nodes = (
(724,990,l),
(1799,990,l),
(1799,914,l),
(724,914,l)
);
},
{
closed = 1;
nodes = (
(344,1249,l),
(344,334,l),
(2194,334,l),
(2194,1249,l)
);
},
{
closed = 1;
nodes = (
(1391,176,l),
(1655,76,o),
(1941,-48,o),
(2109,-128,c),
(2376,127,l),
(2192,209,o),
(1875,332,o),
(1606,417,c)
);
},
{
closed = 1;
nodes = (
(832,403,l),
(675,308,o),
(362,181,o),
(98,125,c),
(179,53,o),
(300,-65,o),
(365,-145,c),
(630,-80,o),
(952,48,o),
(1159,168,c)
);
}
);
width = 2504;
},
{
layerId = "B1F27B51-9973-4381-9301-4FE46FE1CA59";
shapes = (
{
closed = 1;
nodes = (
(149,1522,l),
(149,1456,l),
(2357,1456,l),
(2357,1522,l)
);
},
{
closed = 1;
nodes = (
(333,1921,l),
(333,1858,l),
(2198,1858,l),
(2198,1921,l)
);
},
{
closed = 1;
nodes = (
(810,2187,l),
(810,1490,l),
(871,1490,l),
(871,2187,l)
);
},
{
closed = 1;
nodes = (
(1639,2187,l),
(1639,1490,l),
(1700,1490,l),
(1700,2187,l)
);
},
{
closed = 1;
nodes = (
(1215,1496,l),
(1215,423,l),
(1279,423,l),
(1279,1496,l)
);
},
{
closed = 1;
nodes = (
(509,768,l),
(2001,768,l),
(2001,456,l),
(509,456,l)
);
},
{
closed = 1;
nodes = (
(509,1144,l),
(2001,1144,l),
(2001,837,l),
(509,837,l)
);
},
{
closed = 1;
nodes = (
(446,1211,l),
(446,389,l),
(2064,389,l),
(2064,1211,l)
);
},
{
closed = 1;
nodes = (
(1536,227,l),
(1827,127,o),
(2112,17,o),
(2289,-71,c),
(2347,-26,l),
(2161,63,o),
(1867,178,o),
(1584,270,c)
);
},
{
closed = 1;
nodes = (
(911,280,l),
(749,171,o),
(427,51,o),
(177,-20,c),
(194,-33,o),
(212,-58,o),
(220,-73,c),
(470,1,o),
(786,120,o),
(987,245,c)
);
}
);
width = 2504;
}
);
note = cid46987;
unicode = (12009,40644);
}
{
color = 11;
glyphname = uni2F01;
layers = (
{
layerId = "CD0E3B44-F66A-4791-B84C-A1128DC61275";
shapes = (
{
closed = 1;
nodes = (
(1142,2209,l),
(1142,-93,l),
(1354,-93,l),
(1354,2209,l)
);
}
);
width = 2504;
},
{
layerId = "5C20EF92-B63D-42A8-8878-93C2863E0093";
shapes = (
{
closed = 1;
nodes = (
(1032,2253,l),
(1032,-137,l),
(1466,-137,l),
(1466,2253,l)
);
}
);
width = 2504;
},
{
layerId = "B1F27B51-9973-4381-9301-4FE46FE1CA59";
shapes = (
{
closed = 1;
nodes = (
(1215,2181,l),
(1215,-65,l),
(1279,-65,l),
(1279,2181,l)
);
}
);
width = 2504;
}
);
note = cid09536;
unicode = (12033,20008);
}
{
color = 11;
glyphname = uni2F07;
layers = (
{
layerId = "CD0E3B44-F66A-4791-B84C-A1128DC61275";
shapes = (
{
closed = 1;
nodes = (
(130,1233,l),
(130,1032,l),
(2376,1032,l),
(2376,1233,l)
);
},
{
closed = 1;
nodes = (
(1140,1759,l),
(1140,1107,l),
(1350,1107,l),
(1350,1759,l)
);
}
);
width = 2504;
},
{
layerId = "5C20EF92-B63D-42A8-8878-93C2863E0093";
shapes = (
{
closed = 1;
nodes = (
(100,1332,l),
(100,922,l),
(2406,922,l),
(2406,1332,l)
);
},
{
closed = 1;
nodes = (
(1026,1829,l),
(1026,1069,l),
(1460,1069,l),
(1460,1829,l)
);
}
);
width = 2504;
},
{
layerId = "B1F27B51-9973-4381-9301-4FE46FE1CA59";
shapes = (
{
closed = 1;
nodes = (
(149,1167,l),
(149,1105,l),
(2357,1105,l),
(2357,1167,l)
);
},
{
closed = 1;
nodes = (
(1215,1714,l),
(1215,1133,l),
(1279,1133,l),
(1279,1714,l)
);
}
);
width = 2504;
}
);
note = cid09699;
unicode = (12039,20128);
}
{
color = 11;
glyphname = uni2F0B;
layers = (
{
layerId = "CD0E3B44-F66A-4791-B84C-A1128DC61275";
shapes = (
{
closed = 1;
nodes = (
(648,2016,l),
(648,1812,l),
(1624,1812,l),
(1624,2016,l)
);
},
{
closed = 1;
nodes = (
(1465,2016,l),
(1465,1907,l),
(1508,1907,l),
(1585,1061,o),
(1754,303,o),
(2219,-94,c),
(2266,-44,o),
(2347,27,o),
(2403,60,c),
(1944,419,o),
(1774,1169,o),
(1701,2016,c)
);
},
{
closed = 1;
nodes = (
(714,1536,l),
(646,1010,o),
(486,390,o),
(98,42,c),
(146,8,o),
(221,-59,o),
(257,-100,c),
(666,277,o),
(841,928,o),
(933,1506,c)
);
}
);
width = 2504;
},
{
layerId = "5C20EF92-B63D-42A8-8878-93C2863E0093";
shapes = (
{
closed = 1;
nodes = (
(566,2094,l),
(566,1679,l),
(1656,1679,l),
(1656,2094,l)
);
},
{
closed = 1;
nodes = (
(1334,2094,l),
(1334,1894,l),
(1394,1894,l),
(1445,1171,o),
(1570,354,o),
(2065,-119,c),
(2161,-19,o),
(2333,137,o),
(2447,202,c),
(1969,602,o),
(1844,1377,o),
(1796,2094,c)
);
},
{
closed = 1;
nodes = (
(630,1511,l),
(572,1033,o),
(412,441,o),
(45,149,c),
(146,86,o),
(303,-50,o),
(379,-134,c),
(789,217,o),
(979,870,o),
(1085,1449,c)
);
}
);
width = 2504;
},
{
layerId = "B1F27B51-9973-4381-9301-4FE46FE1CA59";
shapes = (
{
closed = 1;
nodes = (
(702,1964,l),
(702,1902,l),
(1603,1902,l),
(1603,1964,l)
);
},
{
closed = 1;
nodes = (
(1553,1964,l),
(1553,1916,l),
(1581,1916,l),
(1677,988,o),
(1874,267,o),
(2318,-77,c),
(2332,-60,o),
(2357,-45,o),
(2375,-34,c),
(1927,300,o),
(1729,1030,o),
(1638,1964,c)
);
},
{
closed = 1;
nodes = (
(766,1553,l),
(695,995,o),
(535,356,o),
(133,-29,c),
(146,-44,o),
(166,-66,o),
(177,-77,c),
(584,315,o),
(750,965,o),
(834,1543,c)
);
}
);
width = 2504;
}
);
note = cid10905;
unicode = (12043,20843);
}
{
color = 11;
glyphname = uni2F0E;
layers = (
{
layerId = "CD0E3B44-F66A-4791-B84C-A1128DC61275";
shapes = (
{
closed = 1;
nodes = (
(238,1934,l),
(417,1765,o),
(630,1530,o),
(724,1376,c),
(897,1495,l),
(796,1652,o),
(580,1880,o),
(399,2040,c)
);
},
{
closed = 1;
nodes = (
(361,24,l),
(541,271,o),
(764,614,o),
(939,912,c),
(781,1032,l),
(596,719,o),
(349,354,o),
(181,142,c)
);
}
);
width = 2504;
},
{
layerId = "5C20EF92-B63D-42A8-8878-93C2863E0093";
shapes = (
{
closed = 1;
nodes = (
(185,1877,l),
(340,1695,o),
(532,1447,o),
(608,1285,c),
(974,1535,l),
(884,1703,o),
(681,1935,o),
(519,2102,c)
);
},
{
closed = 1;
nodes = (
(522,-3,l),
(702,271,o),
(878,557,o),
(1043,862,c),
(711,1114,l),
(526,785,o),
(306,454,o),
(146,247,c)
);
}
);
width = 2504;
},
{
layerId = "B1F27B51-9973-4381-9301-4FE46FE1CA59";
shapes = (
{
closed = 1;
nodes = (
(273,1971,l),
(470,1810,o),
(696,1583,o),
(801,1436,c),
(844,1471,l),
(739,1616,o),
(513,1842,o),
(317,2000,c)
);
},
{
closed = 1;
nodes = (
(254,41,l),
(435,271,o),
(690,652,o),
(871,947,c),
(826,978,l),
(642,675,o),
(378,288,o),
(205,73,c)
);
}
);
width = 2504;
}
);
note = cid10998;
unicode = (12046,20907);
}
{
color = 11;
glyphname = uni2F22;
layers = (
{
layerId = "CD0E3B44-F66A-4791-B84C-A1128DC61275";
shapes = (
{
closed = 1;
nodes = (
(965,1781,l),
(965,1584,l),
(1908,1584,l),
(1908,1781,l)
);
},
{
closed = 1;
nodes = (
(1143,2209,l),
(920,1720,o),
(548,1275,o),
(130,999,c),
(183,965,o),
(268,884,o),
(303,843,c),
(713,1143,o),
(1099,1613,o),
(1351,2140,c)
);
},
{
closed = 1;
nodes = (
(382,1820,l),
(740,922,o),
(1362,214,o),
(2267,-99,c),
(2300,-45,o),
(2367,42,o),
(2412,83,c),
(1533,361,o),
(888,1057,o),
(568,1883,c)
);
},
{
closed = 1;
nodes = (
(1853,1781,l),
(1853,1742,l),
(1598,878,o),
(873,311,o),
(109,93,c),
(150,50,o),
(205,-39,o),
(230,-97,c),
(1036,161,o),
(1777,744,o),
(2071,1724,c),
(1928,1791,l),
(1889,1781,l)
);
}
);
width = 2504;
},
{
layerId = "5C20EF92-B63D-42A8-8878-93C2863E0093";
shapes = (
{
closed = 1;
nodes = (
(973,1874,l),
(973,1470,l),
(1853,1470,l),
(1853,1874,l)
);
},
{
closed = 1;
nodes = (
(1073,2258,l),
(872,1794,o),
(497,1372,o),
(77,1128,c),
(177,1053,o),
(356,884,o),
(423,794,c),
(837,1085,o),
(1254,1581,o),
(1510,2108,c)
);
},
{
closed = 1;
nodes = (
(270,1877,l),
(630,922,o),
(1191,208,o),
(2172,-137,c),
(2234,-29,o),
(2375,160,o),
(2469,244,c),
(1554,522,o),
(941,1205,o),
(659,2003,c)
);
},
{
closed = 1;
nodes = (
(1726,1874,l),
(1726,1799,l),
(1538,999,o),
(930,482,o),
(65,254,c),
(150,169,o),
(258,-14,o),
(314,-135,c),
(1267,161,o),
(1915,727,o),
(2175,1754,c),
(1875,1890,l),
(1796,1874,l)
);
}
);
width = 2504;
},
{
layerId = "B1F27B51-9973-4381-9301-4FE46FE1CA59";
shapes = (
{
closed = 1;
nodes = (
(958,1720,l),
(958,1659,l),
(1945,1659,l),
(1945,1720,l)
);
},
{
closed = 1;
nodes = (
(1190,2179,l),
(951,1670,o),
(584,1211,o),
(165,917,c),
(185,907,o),
(210,884,o),
(221,873,c),
(632,1181,o),
(998,1634,o),
(1248,2159,c)
);
},
{
closed = 1;
nodes = (
(457,1782,l),
(812,922,o),
(1473,216,o),
(2330,-73,c),
(2344,-56,o),
(2359,-35,o),
(2375,-24,c),
(1519,255,o),
(852,959,o),
(508,1801,c)
);
},
{
closed = 1;
nodes = (
(1937,1720,l),
(1937,1705,l),
(1637,797,o),
(835,199,o),
(137,-12,c),
(150,-30,o),
(170,-56,o),
(176,-71,c),
(885,161,o),
(1686,755,o),
(2003,1703,c),
(1963,1725,l),
(1950,1720,l)
);
}
);
width = 2504;
}
);
note = cid14012;
unicode = (12066,22794);
}
{
color = 11;
glyphname = uni2F29;
layers = (
{
layerId = "CD0E3B44-F66A-4791-B84C-A1128DC61275";
shapes = (
{
closed = 1;
nodes = (
(1158,2177,l),
(1158,174,ls),
(1158,124,o),
(1138,108,o),
(1087,105,cs),
(1036,103,o),
(854,102,o),
(673,108,c),
(703,54,o),
(739,-39,o),
(752,-93,c),
(988,-96,o),
(1143,-91,o),
(1238,-58,cs),
(1330,-26,o),
(1368,33,o),
(1368,173,cs),
(1368,2177,l)
);
},
{
closed = 1;
nodes = (
(1762,1539,l),
(1975,1177,o),
(2177,709,o),
(2235,408,c),
(2445,496,l),
(2379,797,o),
(2167,1258,o),
(1948,1608,c)
);
},
{
closed = 1;
nodes = (
(502,1591,l),
(440,1254,o),
(300,821,o),
(79,556,c),
(133,533,o),
(219,487,o),
(263,453,c),
(489,731,o),
(638,1185,o),
(720,1554,c)
);
}
);
width = 2504;
},
{
layerId = "5C20EF92-B63D-42A8-8878-93C2863E0093";
shapes = (
{
closed = 1;
nodes = (
(1044,2222,l),
(1044,336,ls),
(1044,286,o),
(1020,269,o),
(967,266,cs),
(908,264,o),
(714,264,o),
(569,275,c),
(625,172,o),
(700,-18,o),
(722,-128,c),
(971,-135,o),
(1157,-121,o),
(1295,-58,cs),
(1430,6,o),
(1475,111,o),
(1475,332,cs),
(1475,2222,l)
);
},
{
closed = 1;
nodes = (
(1643,1547,l),
(1832,1170,o),
(2011,695,o),
(2056,383,c),
(2487,558,l),
(2428,876,o),
(2224,1335,o),
(2026,1686,c)
);
},
{
closed = 1;
nodes = (
(388,1656,l),
(345,1336,o),
(220,890,o),
(35,643,c),
(146,598,o),
(326,508,o),
(419,440,c),
(617,712,o),
(752,1194,o),
(839,1579,c)
);
}
);
width = 2504;
},
{
layerId = "B1F27B51-9973-4381-9301-4FE46FE1CA59";
shapes = (
{
closed = 1;
nodes = (
(1233,2147,l),
(1233,68,ls),
(1232,17,o),
(1215,2,o),
(1167,0,cs),
(1118,-3,o),
(945,-6,o),
(741,0,c),
(755,-23,o),
(765,-53,o),
(773,-71,c),
(1000,-71,o),
(1136,-71,o),
(1201,-58,cs),
(1264,-46,o),
(1297,-19,o),
(1297,70,cs),
(1297,2147,l)
);
},
{
closed = 1;
nodes = (
(1839,1532,l),
(2070,1183,o),
(2286,717,o),
(2353,427,c),
(2415,456,l),
(2347,744,o),
(2129,1205,o),
(1896,1556,c)
);
},
{
closed = 1;
nodes = (
(577,1546,l),
(503,1200,o),
(352,775,o),
(107,498,c),
(124,490,o),
(148,473,o),
(160,462,c),
(407,743,o),
(563,1178,o),
(643,1537,c)
);
}
);
width = 2504;
}
);
note = cid15736;
unicode = (12073,23567);
}
{
color = 11;
glyphname = uni2F2D;
layers = (
{
layerId = "CD0E3B44-F66A-4791-B84C-A1128DC61275";
shapes = (
{
closed = 1;
nodes = (
(1140,2159,l),
(1140,222,l),
(1343,222,l),
(1343,2159,l)
);
},
{
closed = 1;
nodes = (
(262,1613,l),
(262,-63,l),
(459,-63,l),
(459,1613,l)
);
},
{
closed = 1;
nodes = (
(2053,1616,l),
(2053,-53,l),
(2250,-53,l),
(2250,1616,l)
);
},
{
closed = 1;
nodes = (
(359,337,l),
(359,138,l),
(2138,138,l),
(2138,337,l)
);
}
);
width = 2504;
},
{
layerId = "5C20EF92-B63D-42A8-8878-93C2863E0093";
shapes = (
{
closed = 1;
nodes = (
(1035,2172,l),
(1035,195,l),
(1445,195,l),
(1445,2172,l)
);
},
{
closed = 1;
nodes = (
(205,1632,l),
(205,-112,l),
(606,-112,l),
(606,1632,l)
);
},
{
closed = 1;
nodes = (
(1901,1641,l),
(1901,-102,l),
(2303,-102,l),
(2303,1641,l)
);
},
{
closed = 1;
nodes = (
(403,434,l),
(403,28,l),
(2076,28,l),
(2076,434,l)
);
}
);
width = 2504;
},
{
layerId = "B1F27B51-9973-4381-9301-4FE46FE1CA59";
shapes = (
{
closed = 1;
nodes = (
(1209,2150,l),
(1209,239,l),
(1275,239,l),
(1275,2150,l)
);
},
{
closed = 1;
nodes = (
(299,1599,l),
(299,-33,l),
(360,-33,l),
(360,1599,l)
);
},
{
closed = 1;
nodes = (
(2152,1599,l),
(2152,-21,l),
(2215,-21,l),
(2215,1599,l)
);
},
{
closed = 1;
nodes = (
(331,273,l),
(331,209,l),
(2178,209,l),
(2178,273,l)
);
}
);
width = 2504;
}
);
note = cid15891;
unicode = (12077,23665);
}
{
color = 11;
glyphname = uni2F31;
layers = (
{
layerId = "CD0E3B44-F66A-4791-B84C-A1128DC61275";
shapes = (
{
closed = 1;
nodes = (
(1151,2211,l),
(1151,-99,l),
(1361,-99,l),
(1361,2211,l)
);
},
{
closed = 1;
nodes = (
(297,1703,l),
(297,256,l),
(500,256,l),
(500,1507,l),
(2145,1507,l),
(2145,1703,l)
);
},
{
closed = 1;
nodes = (
(2043,1703,l),
(2043,510,ls),
(2043,465,o),
(2027,456,o),
(1977,454,cs),
(1931,450,o),
(1757,450,o),
(1577,455,c),
(1606,402,o),
(1641,321,o),
(1652,267,c),
(1882,267,o),
(2033,267,o),
(2126,297,cs),
(2213,329,o),
(2242,390,o),
(2241,507,cs),
(2241,1703,l)
);
}
);
width = 2504;
},
{
layerId = "5C20EF92-B63D-42A8-8878-93C2863E0093";
shapes = (
{
closed = 1;
nodes = (
(1058,2251,l),
(1058,-137,l),
(1492,-137,l),
(1492,2251,l)
);
},
{
closed = 1;
nodes = (
(250,1777,l),
(250,231,l),
(671,231,l),
(671,1378,l),
(2096,1378,l),
(2096,1777,l)
);
},
{
closed = 1;
nodes = (
(1882,1777,l),
(1882,645,ls),
(1882,604,o),
(1862,600,o),
(1816,598,cs),
(1778,600,o),
(1610,600,o),
(1505,605,c),
(1561,502,o),
(1634,335,o),
(1652,227,c),
(1842,227,o),
(1998,230,o),
(2126,289,cs),
(2248,352,o),
(2291,455,o),
(2290,638,cs),
(2290,1777,l)
);
}
);
width = 2504;
},
{
layerId = "B1F27B51-9973-4381-9301-4FE46FE1CA59";
shapes = (
{
closed = 1;
nodes = (
(1212,2187,l),
(1212,-73,l),
(1275,-73,l),
(1275,2187,l)
);
},
{
closed = 1;
nodes = (
(327,1654,l),
(327,273,l),
(388,273,l),
(388,1589,l),
(2175,1589,l),
(2175,1654,l)
);
},
{
closed = 1;
nodes = (
(2148,1654,l),
(2148,421,ls),
(2148,374,o),
(2137,360,o),
(2084,358,cs),
(2030,353,o),
(1855,353,o),
(1624,358,c),
(1635,336,o),
(1649,312,o),
(1652,291,c),
(1907,292,o),
(2054,290,o),
(2126,304,cs),
(2192,314,o),
(2210,347,o),
(2211,421,cs),
(2211,1654,l)
);
}
);
width = 2504;
}
);
note = cid16679;
unicode = (12081,24062);
}
{
color = 11;
glyphname = uni2F34;
layers = (
{
layerId = "CD0E3B44-F66A-4791-B84C-A1128DC61275";
shapes = (
{
closed = 1;
nodes = (
(447,1879,l),
(447,1690,l),
(2359,1690,l),
(2359,1879,l)
);
},
{
closed = 1;
nodes = (
(357,1879,l),
(357,1197,ls),
(356,845,o),
(332,361,o),
(96,19,c),
(139,-5,o),
(221,-73,o),
(252,-108,c),
(511,258,o),
(550,815,o),
(551,1197,cs),
(551,1879,l)
);
},
{
closed = 1;
nodes = (
(1224,2211,l),
(1224,1774,l),
(1421,1774,l),
(1421,2211,l)
);
}
);
width = 2504;
},
{
layerId = "5C20EF92-B63D-42A8-8878-93C2863E0093";
shapes = (
{
closed = 1;
nodes = (
(489,1949,l),
(489,1574,l),
(2367,1574,l),
(2367,1949,l)
);
},
{
closed = 1;
nodes = (
(308,1949,l),
(308,1271,ls),
(307,924,o),
(288,436,o),
(43,114,c),
(131,70,o),
(299,-73,o),
(362,-138,c),
(649,223,o),
(703,864,o),
(703,1271,cs),
(703,1949,l)
);
},
{
closed = 1;
nodes = (
(1142,2255,l),
(1142,1753,l),
(1543,1753,l),
(1543,2255,l)
);
}
);
width = 2504;
},
{
layerId = "B1F27B51-9973-4381-9301-4FE46FE1CA59";
shapes = (
{
closed = 1;
nodes = (
(419,1832,l),
(419,1767,l),
(2352,1767,l),
(2352,1832,l)
);
},
{
closed = 1;
nodes = (
(389,1832,l),
(389,1148,ls),
(388,792,o),
(360,311,o),
(131,-45,c),
(146,-54,o),
(169,-73,o),
(179,-89,c),
(419,280,o),
(451,784,o),
(452,1148,cs),
(452,1832,l)
);
},
{
closed = 1;
nodes = (
(1278,2183,l),
(1278,1789,l),
(1339,1789,l),
(1339,2183,l)
);
}
);
width = 2504;
}
);
note = cid16878;
unicode = (12084,24191);
}
{
color = 11;
glyphname = uni2F42;
layers = (
{
layerId = "CD0E3B44-F66A-4791-B84C-A1128DC61275";
shapes = (
{
closed = 1;
nodes = (
(1810,1692,l),
(1528,833,o),
(988,347,o),
(96,90,c),
(135,44,o),
(197,-49,o),
(219,-97,c),
(1128,196,o),
(1698,714,o),
(2015,1630,c)
);
},
{
closed = 1;
nodes = (
(489,1619,l),
(797,743,o),
(1348,146,o),
(2276,-93,c),
(2308,-40,o),
(2371,51,o),
(2418,95,c),
(1514,308,o),
(951,881,o),
(681,1677,c)
);
},
{
closed = 1;
nodes = (
(124,1786,l),
(124,1599,l),
(2390,1599,l),
(2390,1786,l)
);
},
{
closed = 1;
nodes = (
(1149,2211,l),
(1149,1674,l),
(1347,1674,l),
(1347,2211,l)
);
}
);
width = 2504;
},
{
layerId = "5C20EF92-B63D-42A8-8878-93C2863E0093";
shapes = (
{
closed = 1;
nodes = (
(1668,1665,l),
(1418,882,o),
(890,441,o),
(43,234,c),
(116,140,o),
(240,-49,o),
(291,-146,c),
(1171,122,o),
(1768,658,o),
(2085,1543,c)
);
},
{
closed = 1;
nodes = (
(444,1522,l),
(758,663,o),
(1250,107,o),
(2192,-137,c),
(2257,-26,o),
(2385,164,o),
(2480,254,c),
(1597,447,o),
(1073,945,o),
(833,1637,c)
);
},
{
closed = 1;
nodes = (
(99,1877,l),
(99,1497,l),
(2417,1497,l),
(2417,1877,l)
);
},
{
closed = 1;
nodes = (
(1047,2251,l),
(1047,1649,l),
(1451,1649,l),
(1451,2251,l)
);
}
);
width = 2504;
},
{
layerId = "B1F27B51-9973-4381-9301-4FE46FE1CA59";
shapes = (
{
closed = 1;
nodes = (
(1904,1709,l),
(1600,801,o),
(1054,284,o),
(131,-4,c),
(147,-20,o),
(168,-49,o),
(176,-65,c),
(1099,244,o),
(1651,752,o),
(1970,1688,c)
);
},
{
closed = 1;
nodes = (
(519,1683,l),
(822,795,o),
(1414,172,o),
(2328,-65,c),
(2344,-48,o),
(2362,-23,o),
(2378,-8,c),
(1461,217,o),
(870,839,o),
(582,1701,c)
);
},
{
closed = 1;
nodes = (
(141,1728,l),
(141,1665,l),
(2373,1665,l),
(2373,1728,l)
);
},
{
closed = 1;
nodes = (
(1215,2187,l),
(1215,1691,l),
(1279,1691,l),
(1279,2187,l)
);
}
);
width = 2504;
}
);
note = cid20035;
unicode = (12098,25991);
}
{
color = 11;
glyphname = uni2F4C;
layers = (
{
layerId = "CD0E3B44-F66A-4791-B84C-A1128DC61275";
shapes = (
{
closed = 1;
nodes = (
(1349,1376,l),
(1349,1182,l),
(2266,1182,l),
(2266,1376,l)
);
},
{
closed = 1;
nodes = (
(122,223,l),
(122,31,l),
(2377,31,l),
(2377,223,l)
);
},
{
closed = 1;
nodes = (
(1245,2206,l),
(1245,127,l),
(1448,127,l),
(1448,2206,l)
);
},
{
closed = 1;
nodes = (
(468,1661,l),
(468,132,l),
(667,132,l),
(667,1661,l)
);
}
);
width = 2504;
},
{
layerId = "5C20EF92-B63D-42A8-8878-93C2863E0093";
shapes = (
{
closed = 1;
nodes = (
(1334,1511,l),
(1334,1120,l),
(2266,1120,l),
(2266,1511,l)
);
},
{
closed = 1;
nodes = (
(88,379,l),
(88,-9,l),
(2417,-9,l),
(2417,379,l)
);
},
{
closed = 1;
nodes = (
(1150,2256,l),
(1150,176,l),
(1567,176,l),
(1567,2256,l)
);
},
{
closed = 1;
nodes = (
(384,1763,l),
(384,189,l),
(794,189,l),
(794,1763,l)
);
}
);
width = 2504;
},
{
layerId = "B1F27B51-9973-4381-9301-4FE46FE1CA59";
shapes = (
{
closed = 1;
nodes = (
(1358,1287,l),
(1358,1222,l),
(2266,1222,l),
(2266,1287,l)
);
},
{
closed = 1;
nodes = (
(145,120,l),
(145,57,l),
(2351,57,l),
(2351,120,l)
);
},
{
closed = 1;
nodes = (
(1309,2169,l),
(1309,95,l),
(1371,95,l),
(1371,2169,l)
);
},
{
closed = 1;
nodes = (
(522,1595,l),
(522,94,l),
(583,94,l),
(583,1595,l)
);
}
);
width = 2504;
}
);
note = cid22619;
unicode = (12108,27490);
}
{
color = 11;
glyphname = uni2F4D;
layers = (
{
layerId = "CD0E3B44-F66A-4791-B84C-A1128DC61275";
shapes = (
{
closed = 1;
nodes = (
(624,1094,l),
(878,934,o),
(1190,698,o),
(1336,539,c),
(1478,678,l),
(1321,839,o),
(1007,1064,o),
(757,1216,c)
);
},
{
closed = 1;
nodes = (
(893,1531,l),
(893,1342,l),
(1911,1342,l),
(1911,1531,l)
);
},
{
closed = 1;
nodes = (
(238,2048,l),
(238,1858,l),
(2279,1858,l),
(2279,2048,l)
);
},
{
closed = 1;
nodes = (
(1127,1997,l),
(960,1603,o),
(606,1190,o),
(175,951,c),
(219,914,o),
(284,845,o),
(316,803,c),
(759,1066,o),
(1117,1500,o),
(1330,1939,c)
);
},
{
closed = 1;
nodes = (
(1849,1531,l),
(1849,1491,l),
(1629,714,o),
(1022,274,o),
(306,76,c),
(347,36,o),
(405,-55,o),
(428,-104,c),
(1163,121,o),
(1802,602,o),
(2061,1469,c),
(1929,1540,l),
(1891,1531,l)
);
}
);
width = 2504;
},
{
layerId = "5C20EF92-B63D-42A8-8878-93C2863E0093";
shapes = (
{
closed = 1;
nodes = (
(599,952,l),
(790,815,o),
(1058,623,o),
(1171,497,c),
(1453,769,l),
(1321,905,o),
(1052,1080,o),
(859,1195,c)
);
},
{
closed = 1;
nodes = (
(858,1580,l),
(858,1205,l),
(1807,1205,l),
(1807,1580,l)
);
},
{
closed = 1;
nodes = (
(176,2128,l),
(176,1751,l),
(2321,1751,l),
(2321,2128,l)
);
},
{
closed = 1;
nodes = (
(1000,2014,l),
(859,1647,o),
(532,1221,o),
(108,998,c),
(198,928,o),
(329,787,o),
(394,701,c),
(842,970,o),
(1187,1438,o),
(1412,1899,c)
);
},
{
closed = 1;
nodes = (
(1688,1580,l),
(1688,1499,l),
(1515,783,o),
(996,387,o),
(276,215,c),
(355,132,o),
(475,-55,o),
(519,-154,c),
(1281,58,o),
(1871,571,o),
(2108,1456,c),
(1836,1593,l),
(1769,1580,l)
);
}
);
width = 2504;
},
{
layerId = "B1F27B51-9973-4381-9301-4FE46FE1CA59";
shapes = (
{
closed = 1;
nodes = (
(641,1188,l),
(936,1014,o),
(1277,748,o),
(1446,569,c),
(1495,620,l),
(1321,796,o),
(978,1054,o),
(691,1229,c)
);
},
{
closed = 1;
nodes = (
(915,1499,l),
(915,1434,l),
(1981,1434,l),
(1981,1499,l)
);
},
{
closed = 1;
nodes = (
(278,1996,l),
(278,1931,l),
(2249,1931,l),
(2249,1996,l)
);
},
{
closed = 1;
nodes = (
(1211,1986,l),
(1027,1575,o),
(655,1171,o),
(222,919,c),
(233,906,o),
(255,882,o),
(264,869,c),
(705,1130,o),
(1071,1540,o),
(1276,1965,c)
);
},
{
closed = 1;
nodes = (
(1956,1499,l),
(1956,1484,l),
(1703,668,o),
(1040,200,o),
(327,-14,c),
(339,-28,o),
(360,-55,o),
(368,-69,c),
(1086,160,o),
(1757,623,o),
(2031,1478,c),
(1990,1503,l),
(1971,1499,l)
);
}
);
width = 2504;
}
);
note = cid22656;
unicode = (12109,27513);
}
{
color = 11;
glyphname = uni2F4E;
layers = (
{
layerId = "CD0E3B44-F66A-4791-B84C-A1128DC61275";
shapes = (
{
closed = 1;
nodes = (
(610,905,l),
(900,302,o),
(1455,-2,o),
(2299,-99,c),
(2327,-47,o),
(2375,36,o),
(2417,80,c),
(1590,156,o),
(1031,434,o),
(780,963,c)
);
},
{
closed = 1;
nodes = (
(394,1132,l),
(394,947,l),
(1869,947,l),
(1869,1132,l)
);
},
{
closed = 1;
nodes = (
(714,2116,l),
(714,1931,l),
(1682,1931,l),
(1682,2116,l)
);
},
{
closed = 1;
nodes = (
(608,2116,l),
(608,1844,ls),
(608,1630,o),
(537,1393,o),
(100,1229,c),
(131,1194,o),
(193,1112,o),
(212,1069,c),
(690,1258,o),
(800,1567,o),
(800,1839,cs),
(800,2116,l)
);
},
{
closed = 1;
nodes = (
(1582,2116,l),
(1582,1535,ls),
(1581,1339,o),
(1640,1283,o),
(1846,1282,cs),
(1889,1283,o),
(2116,1283,o),
(2161,1282,cs),
(2337,1283,o),
(2391,1360,o),
(2412,1661,c),
(2357,1674,o),
(2277,1702,o),
(2239,1736,c),
(2228,1497,o),
(2217,1462,o),
(2141,1462,cs),
(2092,1462,o),
(1908,1462,o),
(1870,1462,cs),
(1786,1462,o),
(1770,1474,o),
(1770,1537,cs),
(1770,2116,l)
);
},
{
closed = 1;
nodes = (
(1824,1132,l),
(1824,1096,l),
(1585,435,o),
(918,179,o),
(109,85,c),
(148,42,o),
(197,-47,o),
(212,-96,c),
(1040,22,o),
(1749,311,o),
(2033,1060,c),
(1903,1139,l),
(1865,1132,l)
);
}
);
width = 2504;
},
{
layerId = "5C20EF92-B63D-42A8-8878-93C2863E0093";
shapes = (
{
closed = 1;
nodes = (
(580,758,l),
(908,204,o),
(1388,-65,o),
(2225,-139,c),
(2278,-40,o),
(2381,135,o),
(2466,222,c),
(1678,270,o),
(1169,465,o),
(926,868,c)
);
},
{
closed = 1;
nodes = (
(421,1194,l),
(421,825,l),
(1797,825,l),
(1797,1194,l)
);
},
{
closed = 1;
nodes = (
(739,2178,l),
(739,1809,l),
(1632,1809,l),
(1632,2178,l)
);
},
{
closed = 1;
nodes = (
(530,2178,l),
(530,1897,ls),
(530,1696,o),
(494,1489,o),
(38,1351,c),
(100,1282,o),
(228,1112,o),
(262,1029,c),
(795,1209,o),
(919,1567,o),
(919,1888,cs),
(919,2178,l)
);
},
{
closed = 1;
nodes = (
(1415,2178,l),
(1415,1691,ls),
(1415,1361,o),
(1506,1252,o),
(1812,1252,cs),
(1872,1252,o),
(2000,1252,o),
(2062,1252,cs),
(2307,1252,o),
(2409,1346,o),
(2446,1705,c),
(2340,1727,o),
(2177,1785,o),
(2108,1850,c),
(2093,1635,o),
(2085,1602,o),
(2019,1601,cs),
(1988,1602,o),
(1902,1602,o),
(1877,1601,cs),
(1808,1602,o),
(1795,1613,o),
(1795,1698,cs),
(1795,2178,l)
);
},
{
closed = 1;
nodes = (
(1714,1194,l),
(1714,1126,l),
(1519,518,o),
(910,306,o),
(69,241,c),
(143,155,o),
(240,-31,o),
(267,-128,c),
(1149,-25,o),
(1854,281,o),
(2130,1053,c),
(1865,1204,l),
(1789,1194,l)
);
}
);
width = 2504;
},
{
layerId = "B1F27B51-9973-4381-9301-4FE46FE1CA59";
shapes = (
{
closed = 1;
nodes = (
(629,1000,l),
(892,367,o),
(1498,37,o),
(2350,-71,c),
(2357,-53,o),
(2372,-30,o),
(2387,-14,c),
(1532,82,o),
(940,414,o),
(686,1027,c)
);
},
{
closed = 1;
nodes = (
(377,1092,l),
(377,1029,l),
(1918,1029,l),
(1918,1092,l)
);
},
{
closed = 1;
nodes = (
(699,2076,l),
(699,2011,l),
(1719,2011,l),
(1719,2076,l)
);
},
{
closed = 1;
nodes = (
(660,2076,l),
(660,1809,ls),
(660,1587,o),
(566,1329,o),
(138,1147,c),
(152,1137,o),
(172,1112,o),
(177,1093,c),
(621,1289,o),
(723,1567,o),
(723,1807,cs),
(723,2076,l)
);
},
{
closed = 1;
nodes = (
(1690,2076,l),
(1690,1432,ls),
(1691,1324,o),
(1729,1303,o),
(1869,1303,cs),
(1901,1303,o),
(2193,1303,o),
(2229,1303,cs),
(2357,1303,o),
(2379,1368,o),
(2389,1633,c),
(2369,1639,o),
(2343,1648,o),
(2325,1661,c),
(2317,1406,o),
(2303,1370,o),
(2221,1370,cs),
(2160,1370,o),
(1910,1370,o),
(1864,1370,cs),
(1771,1370,o),
(1754,1383,o),
(1753,1432,cs),
(1753,2076,l)
);
},
{
closed = 1;
nodes = (
(1895,1092,l),
(1895,1075,l),
(1628,382,o),
(925,96,o),
(133,-18,c),
(150,-32,o),
(168,-58,o),
(175,-75,c),
(968,52,o),
(1680,332,o),
(1970,1068,c),
(1929,1096,l),
(1914,1092,l)
);
}
);
width = 2504;
}
);
note = cid22779;
unicode = (12110,27571);
}
{
color = 11;
glyphname = uni2F4F;
layers = (
{
layerId = "CD0E3B44-F66A-4791-B84C-A1128DC61275";
shapes = (
{
closed = 1;
nodes = (
(641,2089,l),
(641,1910,l),
(1977,1910,l),
(1977,2089,l)
);
},
{
closed = 1;
nodes = (
(445,498,l),
(445,318,l),
(2355,318,l),
(2355,498,l)
);
},
{
closed = 1;
nodes = (
(107,1300,l),
(107,1116,l),
(2400,1116,l),
(2400,1300,l)
);
},
{
closed = 1;
nodes = (
(1920,2089,l),
(1920,2042,ls),
(1873,718,o),
(1816,226,o),
(1718,121,c),
(1688,79,o),
(1661,72,o),
(1612,72,cs),
(1550,72,o),
(1421,74,o),
(1275,86,c),
(1301,37,o),
(1321,-38,o),
(1324,-88,c),
(1464,-94,o),
(1604,-98,o),
(1693,-88,cs),
(1781,-78,o),
(1836,-59,o),
(1897,25,cs),
(2005,164,o),
(2059,615,o),
(2112,1981,cs),
(2113,2008,o),
(2114,2088,o),
(2114,2089,c)
);
},
{
closed = 1;
nodes = (
(549,2089,l),
(488,1488,o),
(369,650,o),
(277,169,c),
(471,150,l),
(556,629,o),
(673,1472,o),
(746,2089,c)
);
},
{
closed = 1;
nodes = (
(1229,2002,l),
(1195,1506,o),
(1125,805,o),
(1063,407,c),
(1253,401,l),
(1311,796,o),
(1374,1493,o),
(1412,2002,c)
);
}
);
width = 2504;
},
{
layerId = "5C20EF92-B63D-42A8-8878-93C2863E0093";
shapes = (
{
closed = 1;
nodes = (
(676,2154,l),
(676,1800,l),
(1878,1800,l),
(1878,2154,l)
);
},
{
closed = 1;
nodes = (
(544,614,l),
(544,265,l),
(2397,265,l),
(2397,614,l)
);
},
{
closed = 1;
nodes = (
(72,1389,l),
(72,1025,l),
(2425,1025,l),
(2425,1389,l)
);
},
{
closed = 1;
nodes = (
(1774,2154,l),
(1774,2065,ls),
(1738,845,o),
(1684,340,o),
(1604,241,c),
(1572,197,o),
(1552,186,o),
(1498,186,cs),
(1436,186,o),
(1343,189,o),
(1226,196,c),
(1280,100,o),
(1321,-47,o),
(1324,-138,c),
(1470,-143,o),
(1604,-146,o),
(1710,-122,cs),
(1811,-99,o),
(1885,-66,o),
(1967,60,cs),
(2058,207,o),
(2117,654,o),
(2162,1962,cs),
(2163,2013,o),
(2167,2154,o),
(2167,2154,c)
);
},
{
closed = 1;
nodes = (
(486,2154,l),
(438,1488,o),
(331,681,o),
(228,152,c),
(621,116,l),
(708,642,o),
(816,1466,o),
(883,2154,c)
);
},
{
closed = 1;
nodes = (
(1125,1979,l),
(1094,1475,o),
(1034,848,o),
(968,447,c),
(1348,445,l),
(1406,836,o),
(1462,1462,o),
(1490,1979,c)
);
}
);
width = 2504;
},
{
layerId = "B1F27B51-9973-4381-9301-4FE46FE1CA59";
shapes = (
{
closed = 1;
nodes = (
(619,2044,l),
(619,1981,l),
(2041,1981,l),
(2041,2044,l)
);
},
{
closed = 1;
nodes = (
(379,421,l),
(379,353,l),
(2325,353,l),
(2325,421,l)
);
},
{
closed = 1;
nodes = (
(129,1242,l),
(129,1176,l),
(2383,1176,l),
(2383,1242,l)
);
},
{
closed = 1;
nodes = (
(2018,2044,l),
(2018,2027,ls),
(1962,634,o),
(1902,152,o),
(1793,39,c),
(1765,2,o),
(1733,-3,o),
(1685,-3,cs),
(1625,-3,o),
(1473,-1,o),
(1307,15,c),
(1315,-3,o),
(1321,-32,o),
(1324,-51,c),
(1461,-62,o),
(1604,-68,o),
(1681,-65,cs),
(1761,-64,o),
(1805,-51,o),
(1852,3,cs),
(1969,135,o),
(2022,590,o),
(2077,1992,cs),
(2077,2005,o),
(2079,2044,o),
(2079,2044,c)
);
},
{
closed = 1;
nodes = (
(588,2044,l),
(524,1488,o),
(395,629,o),
(307,178,c),
(372,171,l),
(456,620,o),
(578,1475,o),
(654,2044,c)
);
},
{
closed = 1;
nodes = (
(1297,2015,l),
(1262,1526,o),
(1186,776,o),
(1126,383,c),
(1189,373,l),
(1247,769,o),
(1317,1514,o),
(1360,2015,c)
);
}
);
width = 2504;
}
);
note = cid22830;
unicode = (12111,27595);
}
{
color = 11;
glyphname = uni2F55;
layers = (
{
layerId = "CD0E3B44-F66A-4791-B84C-A1128DC61275";
shapes = (
{
closed = 1;
nodes = (
(500,1704,l),
(462,1425,o),
(374,1152,o),
(174,1002,c),
(342,889,l),
(565,1059,o),
(650,1364,o),
(693,1663,c)
);
},
{
closed = 1;
nodes = (
(2070,1710,l),
(1985,1490,o),
(1830,1189,o),
(1706,1005,c),
(1869,926,l),
(1999,1107,o),
(2159,1392,o),
(2280,1626,c)
);
},
{
closed = 1;
nodes = (
(1242,2177,l),
(1136,2177,l),
(1136,1364,ls),
(1135,1070,o),
(960,386,o),
(120,68,c),
(162,24,o),
(227,-54,o),
(254,-97,c),
(957,194,o),
(1190,746,o),
(1240,991,c),
(1290,749,o),
(1538,177,o),
(2258,-97,c),
(2286,-42,o),
(2348,39,o),
(2390,83,c),
(1527,390,o),
(1345,1074,o),
(1344,1368,cs),
(1344,2177,l)
);
}
);
width = 2504;
},
{
layerId = "5C20EF92-B63D-42A8-8878-93C2863E0093";
shapes = (
{
closed = 1;
nodes = (
(390,1761,l),
(364,1474,o),
(283,1240,o),
(112,1089,c),
(474,872,l),
(683,1059,o),
(749,1351,o),
(795,1676,c)
);
},
{
closed = 1;
nodes = (
(1899,1772,l),
(1831,1541,o),
(1709,1263,o),
(1594,1079,c),
(1934,926,l),
(2062,1100,o),
(2208,1357,o),
(2335,1605,c)
);
},
{
closed = 1;
nodes = (
(1237,2222,l),
(1022,2222,l),
(1022,1453,ls),
(1022,1008,o),
(756,469,o),
(70,207,c),
(148,125,o),
(290,-45,o),
(341,-132,c),
(841,89,o),
(1153,519,o),
(1238,784,c),
(1321,530,o),
(1669,84,o),
(2169,-132,c),
(2229,-20,o),
(2356,146,o),
(2447,235,c),
(1735,511,o),
(1453,1005,o),
(1454,1459,cs),
(1454,2222,l)
);
}
);
width = 2504;
},
{
layerId = "B1F27B51-9973-4381-9301-4FE46FE1CA59";
shapes = (
{
closed = 1;
nodes = (
(571,1667,l),
(528,1394,o),
(435,1094,o),
(212,944,c),
(255,900,l),
(488,1059,o),
(584,1373,o),
(629,1654,c)
);
},
{
closed = 1;
nodes = (
(2182,1670,l),
(2086,1454,o),
(1912,1140,o),
(1781,956,c),
(1826,926,l),
(1959,1113,o),
(2127,1414,o),
(2243,1639,c)
);
},
{
closed = 1;
nodes = (
(1244,2147,l),
(1209,2147,l),
(1209,1308,ls),
(1209,1110,o),
(1095,332,o),
(157,-24,c),
(171,-43,o),
(188,-60,o),
(196,-73,c),
(1034,263,o),
(1213,895,o),
(1242,1131,c),
(1270,892,o),
(1451,238,o),
(2314,-73,c),
(2324,-56,o),
(2343,-32,o),
(2353,-16,c),
(1388,309,o),
(1274,1120,o),
(1273,1308,cs),
(1273,2147,l)
);
}
);
width = 2504;
}
);
note = cid24833;
unicode = (12117,28779);
}
{
color = 11;
glyphname = uni2F5A;
layers = (
{
layerId = "CD0E3B44-F66A-4791-B84C-A1128DC61275";
shapes = (
{
closed = 1;
nodes = (
(548,1564,l),
(548,1365,l),
(2261,1365,l),
(2261,1564,l)
);
},
{
closed = 1;
nodes = (
(1357,2209,l),
(1357,1475,l),
(1561,1475,l),
(1561,2209,l)
);
},
{
closed = 1;
nodes = (
(447,2146,l),
(447,1313,ls),
(447,871,o),
(413,409,o),
(93,54,c),
(143,21,o),
(212,-52,o),
(246,-98,c),
(607,296,o),
(650,815,o),
(650,1313,cs),
(650,2146,l)
);
},
{
closed = 1;
nodes = (
(542,969,l),
(542,770,l),
(1670,770,l),
(1670,-93,l),
(1880,-93,l),
(1880,969,l)
);
}
);
width = 2504;
},
{
layerId = "5C20EF92-B63D-42A8-8878-93C2863E0093";
shapes = (
{
closed = 1;
nodes = (
(571,1648,l),
(571,1245,l),
(2242,1245,l),
(2242,1648,l)
);
},
{
closed = 1;
nodes = (
(1317,2253,l),
(1317,1490,l),
(1738,1490,l),
(1738,2253,l)
);
},
{
closed = 1;
nodes = (
(370,2208,l),
(370,1357,ls),
(370,954,o),
(335,491,o),
(28,173,c),
(124,99,o),
(268,-58,o),
(337,-160,c),
(734,253,o),
(781,838,o),
(782,1353,cs),
(782,2208,l)
);
},
{
closed = 1;
nodes = (
(565,986,l),
(565,576,l),
(1592,576,l),
(1592,-133,l),
(2022,-133,l),
(2022,986,l)
);
}
);
width = 2504;
},
{
layerId = "B1F27B51-9973-4381-9301-4FE46FE1CA59";
shapes = (
{
closed = 1;
nodes = (
(535,1510,l),
(535,1447,l),
(2272,1447,l),
(2272,1510,l)
);
},
{
closed = 1;
nodes = (
(1381,2181,l),
(1381,1464,l),
(1443,1464,l),
(1443,2181,l)
);
},
{
closed = 1;
nodes = (
(500,2108,l),
(500,1285,ls),
(500,817,o),
(465,355,o),
(136,-23,c),
(155,-31,o),
(174,-49,o),
(186,-60,c),
(524,326,o),
(564,800,o),
(563,1287,cs),
(563,2108,l)
);
},
{
closed = 1;
nodes = (
(527,958,l),
(527,897,l),
(1722,897,l),
(1722,-69,l),
(1786,-69,l),
(1786,958,l)
);
}
);
width = 2504;
}
);
note = cid25780;
unicode = (12122,29255);
}
{
color = 11;
glyphname = uni2F5C;
layers = (
{
layerId = "CD0E3B44-F66A-4791-B84C-A1128DC61275";
shapes = (
{
closed = 1;
nodes = (
(576,2145,l),
(483,1804,o),
(324,1469,o),
(126,1256,c),
(179,1235,o),
(269,1184,o),
(311,1154,c),
(497,1386,o),
(671,1738,o),
(775,2106,c)
);
},
{
closed = 1;
nodes = (
(539,1757,l),
(481,1566,l),
(2238,1566,l),
(2238,1757,l)
);
},
{
closed = 1;
nodes = (
(130,973,l),
(130,781,l),
(2379,781,l),
(2379,973,l)
);
},
{
closed = 1;
nodes = (
(1177,2211,l),
(1177,-91,l),
(1384,-91,l),
(1384,2211,l)
);
}
);
width = 2504;
},
{
layerId = "5C20EF92-B63D-42A8-8878-93C2863E0093";
shapes = (
{
closed = 1;
nodes = (
(432,2210,l),
(363,1862,o),
(214,1518,o),
(19,1313,c),
(128,1274,o),
(318,1179,o),
(404,1120,c),
(581,1356,o),
(753,1738,o),
(847,2138,c)
);
},
{
closed = 1;
nodes = (
(547,1856,l),
(432,1475,l),
(2265,1475,l),
(2265,1856,l)
);
},
{
closed = 1;
nodes = (
(100,1047,l),
(100,661,l),
(2414,661,l),
(2414,1047,l)
);
},
{
closed = 1;
nodes = (
(1078,2251,l),
(1078,-140,l),
(1498,-140,l),
(1498,2251,l)
);
}
);
width = 2504;
},
{
layerId = "B1F27B51-9973-4381-9301-4FE46FE1CA59";
shapes = (
{
closed = 1;
nodes = (
(670,2102,l),
(565,1766,o),
(396,1437,o),
(197,1219,c),
(214,1210,o),
(238,1186,o),
(250,1177,c),
(444,1406,o),
(617,1738,o),
(730,2087,c)
);
},
{
closed = 1;
nodes = (
(532,1689,l),
(513,1626,l),
(2223,1626,l),
(2223,1689,l)
);
},
{
closed = 1;
nodes = (
(149,924,l),
(149,863,l),
(2357,863,l),
(2357,924,l)
);
},
{
closed = 1;
nodes = (
(1245,2187,l),
(1245,-61,l),
(1309,-61,l),
(1309,2187,l)
);
}
);
width = 2504;
}
);
note = cid25831;
unicode = (12124,29275);
}
{
color = 11;
glyphname = uni2F5D;
layers = (
{
layerId = "CD0E3B44-F66A-4791-B84C-A1128DC61275";
shapes = (
{
closed = 1;
nodes = (
(1174,1392,l),
(1358,684,o),
(1693,158,o),
(2277,-90,c),
(2309,-33,o),
(2372,50,o),
(2422,90,c),
(1859,300,o),
(1522,803,o),
(1363,1437,c)
);
},
{
closed = 1;
nodes = (
(134,1478,l),
(134,1280,l),
(2372,1280,l),
(2372,1478,l)
);
},
{
closed = 1;
nodes = (
(1148,2209,l),
(1142,1514,o),
(1169,511,o),
(102,79,c),
(159,38,o),
(221,-33,o),
(252,-90,c),
(1348,386,o),
(1349,1451,o),
(1358,2209,c)
);
},
{
closed = 1;
nodes = (
(1569,2030,l),
(1748,1909,o),
(1961,1730,o),
(2060,1607,c),
(2204,1736,l),
(2102,1858,o),
(1881,2031,o),
(1700,2144,c)
);
}
);
width = 2504;
},
{
layerId = "5C20EF92-B63D-42A8-8878-93C2863E0093";
shapes = (
{
closed = 1;
nodes = (
(1058,1392,l),
(1262,684,o),
(1574,158,o),
(2184,-122,c),
(2246,-3,o),
(2375,169,o),
(2475,252,c),
(1916,461,o),
(1592,929,o),
(1433,1479,c)
);
},
{
closed = 1;
nodes = (
(111,1569,l),
(111,1168,l),
(2395,1168,l),
(2395,1569,l)
);
},
{
closed = 1;
nodes = (
(1034,2253,l),
(1023,1541,o),
(1086,677,o),
(68,233,c),
(189,143,o),
(309,-3,o),
(368,-120,c),
(1447,412,o),
(1454,1420,o),
(1468,2253,c)
);
},
{
closed = 1;
nodes = (
(1561,1996,l),
(1722,1884,o),
(1920,1713,o),
(2007,1590,c),
(2295,1850,l),
(2197,1972,o),
(1986,2126,o),
(1819,2228,c)
);
}
);
width = 2504;
},
{
layerId = "B1F27B51-9973-4381-9301-4FE46FE1CA59";
shapes = (
{
closed = 1;
nodes = (
(1251,1392,l),
(1422,684,o),
(1772,158,o),
(2338,-71,c),
(2348,-54,o),
(2371,-30,o),
(2387,-14,c),
(1821,195,o),
(1476,719,o),
(1316,1407,c)
);
},
{
closed = 1;
nodes = (
(149,1416,l),
(149,1355,l),
(2357,1355,l),
(2357,1416,l)
);
},
{
closed = 1;
nodes = (
(1221,2181,l),
(1221,1496,o),
(1222,401,o),
(125,-20,c),
(138,-30,o),
(162,-54,o),
(175,-69,c),
(1283,369,o),
(1283,1471,o),
(1285,2181,c)
);
},
{
closed = 1;
nodes = (
(1576,2051,l),
(1766,1926,o),
(1988,1740,o),
(2095,1618,c),
(2146,1661,l),
(2038,1784,o),
(1812,1968,o),
(1623,2090,c)
);
}
);
width = 2504;
}
);
note = cid25956;
unicode = (12125,29356);
}
{
color = 11;
glyphname = uni2F61;
layers = (
{
layerId = "CD0E3B44-F66A-4791-B84C-A1128DC61275";
shapes = (
{
closed = 1;
nodes = (
(172,2049,l),
(172,1862,l),
(2316,1862,l),
(2316,2049,l)
);
},
{
closed = 1;
nodes = (
(741,1486,l),
(741,1300,l),
(1747,1300,l),
(1747,1486,l)
);
},
{
closed = 1;
nodes = (
(684,1947,l),
(642,1378,o),
(551,581,o),
(476,123,c),
(686,123,l),
(752,571,o),
(837,1366,o),
(887,1947,c)
);
},
{
closed = 1;
nodes = (
(153,-39,l),
(499,3,o),
(1001,60,o),
(1476,121,c),
(1474,300,l),
(974,244,o),
(445,188,o),
(112,155,c)
);
},
{
closed = 1;
nodes = (
(1653,1486,l),
(1653,220,ls),
(1653,-15,o),
(1712,-76,o),
(1901,-77,cs),
(1940,-76,o),
(2113,-76,o),
(2153,-77,cs),
(2344,-76,o),
(2392,51,o),
(2410,480,c),
(2357,491,o),
(2272,527,o),
(2227,564,c),
(2221,185,o),
(2208,110,o),
(2134,110,cs),
(2098,110,o),
(1961,110,o),
(1931,110,cs),
(1863,110,o),
(1850,125,o),
(1849,220,cs),
(1849,1486,l)
);
},
{
closed = 1;
nodes = (
(889,976,l),
(1068,836,o),
(1262,632,o),
(1345,482,c),
(1503,606,l),
(1420,753,o),
(1221,952,o),
(1038,1085,c)
);
}
);
width = 2504;
},
{
layerId = "5C20EF92-B63D-42A8-8878-93C2863E0093";
shapes = (
{
closed = 1;
nodes = (
(147,2121,l),
(147,1743,l),
(2350,1743,l),
(2350,2121,l)
);
},
{
closed = 1;
nodes = (
(754,1564,l),
(754,1195,l),
(1705,1195,l),
(1705,1564,l)
);
},
{
closed = 1;
nodes = (
(565,1907,l),
(541,1333,o),
(468,654,o),
(392,197,c),
(825,197,l),
(884,640,o),
(946,1327,o),
(982,1907,c)
);
},
{
closed = 1;
nodes = (
(172,-104,l),
(530,-64,o),
(1003,-9,o),
(1451,49,c),
(1442,407,l),
(966,362,o),
(427,309,o),
(80,282,c)
);
},
{
closed = 1;
nodes = (
(1522,1564,l),
(1522,382,ls),
(1522,-9,o),
(1616,-123,o),
(1893,-122,cs),
(1943,-123,o),
(2030,-123,o),
(2086,-122,cs),
(2338,-123,o),
(2435,29,o),
(2467,480,c),
(2365,505,o),
(2190,576,o),
(2107,642,c),
(2100,321,o),
(2087,249,o),
(2043,249,cs),
(2029,249,o),
(1988,249,o),
(1971,249,cs),
(1929,249,o),
(1924,263,o),
(1923,382,cs),
(1923,1564,l)
);
},
{
closed = 1;
nodes = (
(870,889,l),
(994,767,o),
(1136,593,o),
(1198,475,c),
(1513,716,l),
(1451,836,o),
(1295,996,o),
(1175,1104,c)
);
}
);
width = 2504;
},
{
layerId = "B1F27B51-9973-4381-9301-4FE46FE1CA59";
shapes = (
{
closed = 1;
nodes = (
(189,2004,l),
(189,1939,l),
(2295,1939,l),
(2295,2004,l)
);
},
{
closed = 1;
nodes = (
(732,1434,l),
(732,1369,l),
(1777,1369,l),
(1777,1434,l)
);
},
{
closed = 1;
nodes = (
(763,1971,l),
(709,1407,o),
(605,532,o),
(530,74,c),
(594,74,l),
(666,525,o),
(765,1391,o),
(824,1971,c)
);
},
{
closed = 1;
nodes = (
(142,4,l),
(479,47,o),
(999,106,o),
(1493,166,c),
(1493,227,l),
(979,167,o),
(457,107,o),
(131,71,c)
);
},
{
closed = 1;
nodes = (
(1739,1434,l),
(1739,112,ls),
(1740,-18,o),
(1775,-46,o),
(1908,-45,cs),
(1938,-46,o),
(2167,-46,o),
(2196,-45,cs),
(2346,-46,o),
(2363,66,o),
(2373,480,c),
(2349,482,o),
(2327,496,o),
(2309,512,c),
(2302,96,o),
(2289,18,o),
(2196,18,cs),
(2143,18,o),
(1945,18,o),
(1905,18,cs),
(1819,18,o),
(1801,34,o),
(1800,112,cs),
(1800,1434,l)
);
},
{
closed = 1;
nodes = (
(900,1034,l),
(1118,882,o),
(1346,658,o),
(1442,490,c),
(1496,533,l),
(1401,700,o),
(1172,924,o),
(949,1071,c)
);
}
);
width = 2504;
}
);
note = cid26904;
unicode = (12129,29926);
}
{
color = 11;
glyphname = uni2F66;
layers = (
{
layerId = "CD0E3B44-F66A-4791-B84C-A1128DC61275";
shapes = (
{
closed = 1;
nodes = (
(1257,1148,l),
(1257,963,l),
(2184,963,l),
(2184,1148,l)
);
},
{
closed = 1;
nodes = (
(232,2016,l),
(232,1830,l),
(2152,1830,l),
(2152,2016,l)
);
},
{
closed = 1;
nodes = (
(493,872,l),
(694,121,o),
(1094,-32,o),
(1724,-32,cs),
(2341,-32,l),
(2349,23,o),
(2383,114,o),
(2414,160,c),
(2294,156,o),
(1827,156,o),
(1732,157,cs),
(1202,156,o),
(821,281,o),
(659,929,c)
);
},
{
closed = 1;
nodes = (
(2093,2016,l),
(2093,1980,l),
(2027,1783,o),
(1919,1540,o),
(1827,1392,c),
(2002,1330,l),
(2104,1491,o),
(2218,1749,o),
(2310,1975,c),
(2162,2026,l),
(2126,2016,l)
);
},
{
closed = 1;
nodes = (
(1169,1948,l),
(1169,182,l),
(1372,109,l),
(1372,1948,l)
);
},
{
closed = 1;
nodes = (
(525,1364,l),
(506,905,o),
(427,347,o),
(99,54,c),
(137,21,o),
(199,-51,o),
(229,-90,c),
(596,222,o),
(693,833,o),
(732,1349,c)
);
}
);
width = 2504;
},
{
layerId = "5C20EF92-B63D-42A8-8878-93C2863E0093";
shapes = (
{
closed = 1;
nodes = (
(1267,1235,l),
(1267,868,l),
(2243,868,l),
(2243,1235,l)
);
},
{
closed = 1;
nodes = (
(200,2123,l),
(200,1746,l),
(2040,1746,l),
(2040,2123,l)
);
},
{
closed = 1;
nodes = (
(423,902,l),
(627,72,o),
(1011,-88,o),
(1633,-87,cs),
(2303,-87,l),
(2318,23,o),
(2378,205,o),
(2437,297,c),
(2243,288,o),
(1822,288,o),
(1654,288,cs),
(1224,288,o),
(890,395,o),
(761,999,c)
);
},
{
closed = 1;
nodes = (
(1932,2123,l),
(1932,2062,l),
(1895,1863,o),
(1819,1615,o),
(1757,1454,c),
(2114,1335,l),
(2195,1522,o),
(2292,1798,o),
(2363,2047,c),
(2055,2138,l),
(1991,2123,l)
);
},
{
closed = 1;
nodes = (
(1099,1973,l),
(1099,301,l),
(1509,154,l),
(1509,1973,l)
);
},
{
closed = 1;
nodes = (
(432,1385,l),
(418,954,o),
(350,424,o),
(50,166,c),
(132,99,o),
(262,-43,o),
(322,-122,c),
(692,191,o),
(798,825,o),
(846,1357,c)
);
}
);
width = 2504;
},
{
layerId = "B1F27B51-9973-4381-9301-4FE46FE1CA59";
shapes = (
{
closed = 1;
nodes = (
(1252,1090,l),
(1252,1027,l),
(2146,1027,l),
(2146,1090,l)
);
},
{
closed = 1;
nodes = (
(253,1949,l),
(253,1884,l),
(2223,1884,l),
(2223,1949,l)
);
},
{
closed = 1;
nodes = (
(540,853,l),
(737,153,o),
(1148,6,o),
(1784,6,cs),
(2367,6,l),
(2370,23,o),
(2386,52,o),
(2401,70,c),
(2329,70,o),
(1830,70,o),
(1784,69,cs),
(1189,70,o),
(776,207,o),
(593,884,c)
);
},
{
closed = 1;
nodes = (
(2198,1949,l),
(2198,1926,l),
(2113,1730,o),
(1985,1491,o),
(1872,1352,c),
(1927,1326,l),
(2042,1470,o),
(2169,1717,o),
(2275,1930,c),
(2231,1951,l),
(2215,1949,l)
);
},
{
closed = 1;
nodes = (
(1216,1929,l),
(1216,105,l),
(1280,79,l),
(1280,1929,l)
);
},
{
closed = 1;
nodes = (
(586,1349,l),
(563,874,o),
(479,294,o),
(131,-21,c),
(140,-31,o),
(161,-58,o),
(168,-71,c),
(534,242,o),
(626,840,o),
(657,1342,c)
);
}
);
width = 2504;
}
);
note = cid27205;
unicode = (12134,30091);
}
{
color = 11;
glyphname = uni2F6E;
layers = (
{
layerId = "CD0E3B44-F66A-4791-B84C-A1128DC61275";
shapes = (
{
closed = 1;
nodes = (
(141,1142,l),
(141,946,l),
(2365,946,l),
(2365,1142,l)
);
},
{
closed = 1;
nodes = (
(631,2225,l),
(531,1889,o),
(360,1565,o),
(153,1360,c),
(202,1337,o),
(295,1284,o),
(337,1253,c),
(537,1473,o),
(721,1817,o),
(830,2180,c)
);
},
{
closed = 1;
nodes = (
(616,1898,l),
(524,1704,l),
(2182,1704,l),
(2182,1898,l)
);
},
{
closed = 1;
nodes = (
(1180,1034,l),
(1349,437,o),
(1681,64,o),
(2287,-91,c),
(2313,-37,o),
(2370,46,o),
(2417,89,c),
(1835,215,o),
(1505,555,o),
(1362,1077,c)
);
},
{
closed = 1;
nodes = (
(1130,1813,l),
(1130,1301,ls),
(1131,876,o),
(1036,365,o),
(100,64,c),
(136,27,o),
(190,-52,o),
(212,-98,c),
(1216,227,o),
(1333,804,o),
(1333,1297,cs),
(1333,1813,l)
);
}
);
width = 2504;
},
{
layerId = "5C20EF92-B63D-42A8-8878-93C2863E0093";
shapes = (
{
closed = 1;
nodes = (
(133,1197,l),
(133,802,l),
(2380,802,l),
(2380,1197,l)
);
},
{
closed = 1;
nodes = (
(532,2270,l),
(448,1947,o),
(282,1631,o),
(79,1451,c),
(181,1406,o),
(370,1301,o),
(459,1236,c),
(656,1447,o),
(841,1809,o),
(944,2180,c)
);
},
{
closed = 1;
nodes = (
(637,1980,l),
(440,1588,l),
(2187,1588,l),
(2187,1980,l)
);
},
{
closed = 1;
nodes = (
(1073,1004,l),
(1267,414,o),
(1563,39,o),
(2192,-131,c),
(2243,-16,o),
(2363,161,o),
(2457,245,c),
(1886,360,o),
(1588,655,o),
(1442,1087,c)
);
},
{
closed = 1;
nodes = (
(1014,1798,l),
(1014,1293,ls),
(1013,931,o),
(904,416,o),
(38,205,c),
(114,128,o),
(225,-38,o),
(262,-132,c),
(1279,136,o),
(1424,790,o),
(1426,1284,cs),
(1426,1798,l)
);
}
);
width = 2504;
},
{
layerId = "B1F27B51-9973-4381-9301-4FE46FE1CA59";
shapes = (
{
closed = 1;
nodes = (
(148,1104,l),
(148,1042,l),
(2358,1042,l),
(2358,1104,l)
);
},
{
closed = 1;
nodes = (
(695,2195,l),
(585,1851,o),
(412,1521,o),
(202,1298,c),
(216,1292,o),
(246,1274,o),
(257,1265,c),
(460,1490,o),
(639,1823,o),
(755,2180,c)
);
},
{
closed = 1;
nodes = (
(601,1844,l),
(578,1781,l),
(2180,1781,l),
(2180,1844,l)
);
},
{
closed = 1;
nodes = (
(1251,1057,l),
(1403,451,o),
(1758,81,o),
(2351,-65,c),
(2358,-50,o),
(2376,-29,o),
(2391,-14,c),
(1799,121,o),
(1450,489,o),
(1310,1072,c)
);
},
{
closed = 1;
nodes = (
(1207,1820,l),
(1207,1308,ls),
(1208,839,o),
(1122,330,o),
(138,-26,c),
(151,-40,o),
(169,-60,o),
(177,-75,c),
(1177,288,o),
(1272,812,o),
(1272,1306,cs),
(1272,1820,l)
);
}
);
width = 2504;
}
);
note = cid28269;
unicode = (12142,30690);
}
{
color = 11;
glyphname = uni2F75;
layers = (
{
layerId = "CD0E3B44-F66A-4791-B84C-A1128DC61275";
shapes = (
{
closed = 1;
nodes = (
(518,2215,l),
(426,1810,o),
(268,1407,o),
(63,1153,c),
(113,1124,o),
(202,1065,o),
(238,1034,c),
(441,1311,o),
(613,1734,o),
(719,2172,c)
);
},
{
closed = 1;
nodes = (
(443,1704,l),
(348,1512,l),
(1250,1512,l),
(1250,1704,l)
);
},
{
closed = 1;
nodes = (
(1485,2215,l),
(1398,1806,o),
(1243,1411,o),
(1042,1155,c),
(1087,1130,o),
(1172,1069,o),
(1206,1039,c),
(1409,1313,o),
(1575,1738,o),
(1678,2176,c)
);
},
{
closed = 1;
nodes = (
(1466,1704,l),
(1369,1512,l),
(2407,1512,l),
(2407,1704,l)
);
},
{
closed = 1;
nodes = (
(615,1619,l),
(615,-93,l),
(811,-93,l),
(811,1619,l)
);
},
{
closed = 1;
nodes = (
(1829,1631,l),
(1829,163,ls),
(1830,125,o),
(1820,113,o),
(1777,111,cs),
(1732,108,o),
(1587,108,o),
(1430,116,c),
(1461,54,o),
(1490,-31,o),
(1502,-91,c),
(1697,-91,o),
(1837,-86,o),
(1918,-54,cs),
(2004,-21,o),
(2030,39,o),
(2030,161,cs),
(2030,1631,l)
);
}
);
width = 2504;
},
{
layerId = "5C20EF92-B63D-42A8-8878-93C2863E0093";
shapes = (
{
closed = 1;
nodes = (
(429,2255,l),
(359,1865,o),
(217,1476,o),
(25,1248,c),
(120,1193,o),
(303,1074,o),
(375,1009,c),
(577,1280,o),
(753,1726,o),
(846,2167,c)
);
},
{
closed = 1;
nodes = (
(458,1788,l),
(264,1398,l),
(1229,1398,l),
(1229,1788,l)
);
},
{
closed = 1;
nodes = (
(1422,2255,l),
(1349,1866,o),
(1199,1488,o),
(1012,1257,c),
(1101,1208,o),
(1271,1088,o),
(1341,1020,c),
(1540,1292,o),
(1713,1738,o),
(1817,2176,c)
);
},
{
closed = 1;
nodes = (
(1578,1788,l),
(1386,1398,l),
(2452,1398,l),
(2452,1788,l)
);
},
{
closed = 1;
nodes = (
(541,1602,l),
(541,-133,l),
(938,-133,l),
(938,1602,l)
);
},
{
closed = 1;
nodes = (
(1762,1639,l),
(1762,319,ls),
(1760,286,o),
(1749,274,o),
(1707,272,cs),
(1663,269,o),
(1518,269,o),
(1400,281,c),
(1458,161,o),
(1511,-8,o),
(1527,-131,c),
(1727,-131,o),
(1890,-117,o),
(2009,-54,cs),
(2136,9,o),
(2169,116,o),
(2169,313,cs),
(2169,1639,l)
);
}
);
width = 2504;
},
{
layerId = "B1F27B51-9973-4381-9301-4FE46FE1CA59";
shapes = (
{
closed = 1;
nodes = (
(576,2187,l),
(469,1772,o),
(304,1362,o),
(89,1089,c),
(107,1079,o),
(135,1058,o),
(146,1049,c),
(352,1331,o),
(522,1740,o),
(637,2176,c)
);
},
{
closed = 1;
nodes = (
(436,1652,l),
(402,1585,l),
(1265,1585,l),
(1265,1652,l)
);
},
{
closed = 1;
nodes = (
(1524,2187,l),
(1430,1767,o),
(1271,1358,o),
(1063,1089,c),
(1078,1078,o),
(1107,1057,o),
(1117,1050,c),
(1322,1327,o),
(1483,1738,o),
(1588,2176,c)
);
},
{
closed = 1;
nodes = (
(1391,1652,l),
(1360,1585,l),
(2377,1585,l),
(2377,1652,l)
);
},
{
closed = 1;
nodes = (
(666,1631,l),
(666,-69,l),
(727,-69,l),
(727,1631,l)
);
},
{
closed = 1;
nodes = (
(1876,1624,l),
(1876,60,ls),
(1875,19,o),
(1866,7,o),
(1822,4,cs),
(1777,2,o),
(1633,2,o),
(1451,6,c),
(1464,-18,o),
(1476,-45,o),
(1483,-65,c),
(1675,-66,o),
(1802,-66,o),
(1858,-54,cs),
(1918,-42,o),
(1938,-14,o),
(1938,60,cs),
(1938,1624,l)
);
}
);
width = 2504;
}
);
note = cid29705;
unicode = (12149,31481);
}
{
color = 11;
glyphname = uni2F78;
layers = (
{
layerId = "CD0E3B44-F66A-4791-B84C-A1128DC61275";
shapes = (
{
closed = 1;
nodes = (
(558,1891,l),
(558,1702,l),
(2192,1702,l),
(2192,1891,l)
);
},
{
closed = 1;
nodes = (
(461,260,l),
(461,70,l),
(2065,70,l),
(2065,260,l)
);
},
{
closed = 1;
nodes = (
(140,1205,l),
(140,1012,l),
(2364,1012,l),
(2364,1205,l)
);
},
{
closed = 1;
nodes = (
(1145,1774,l),
(1145,158,l),
(1344,158,l),
(1344,1774,l)
);
},
{
closed = 1;
nodes = (
(365,848,l),
(365,-93,l),
(559,-93,l),
(559,848,l)
);
},
{
closed = 1;
nodes = (
(1961,848,l),
(1961,-81,l),
(2156,-81,l),
(2156,848,l)
);
},
{
closed = 1;
nodes = (
(634,2225,l),
(543,1905,o),
(380,1603,o),
(172,1413,c),
(219,1384,o),
(313,1325,o),
(352,1292,c),
(555,1501,o),
(737,1825,o),
(840,2180,c)
);
}
);
width = 2504;
},
{
layerId = "5C20EF92-B63D-42A8-8878-93C2863E0093";
shapes = (
{
closed = 1;
nodes = (
(524,1940,l),
(524,1565,l),
(2213,1565,l),
(2213,1940,l)
);
},
{
closed = 1;
nodes = (
(480,365,l),
(480,-17,l),
(2030,-17,l),
(2030,365,l)
);
},
{
closed = 1;
nodes = (
(115,1279,l),
(115,896,l),
(2387,896,l),
(2387,1279,l)
);
},
{
closed = 1;
nodes = (
(1046,1658,l),
(1046,163,l),
(1449,163,l),
(1449,1658,l)
);
},
{
closed = 1;
nodes = (
(298,798,l),
(298,-137,l),
(690,-137,l),
(690,798,l)
);
},
{
closed = 1;
nodes = (
(1811,798,l),
(1811,-121,l),
(2213,-121,l),
(2213,798,l)
);
},
{
closed = 1;
nodes = (
(545,2272,l),
(472,1974,o),
(315,1680,o),
(110,1508,c),
(212,1454,o),
(401,1332,o),
(484,1260,c),
(682,1471,o),
(872,1818,o),
(977,2180,c)
);
}
);
width = 2504;
},
{
layerId = "B1F27B51-9973-4381-9301-4FE46FE1CA59";
shapes = (
{
closed = 1;
nodes = (
(579,1861,l),
(579,1794,l),
(2177,1794,l),
(2177,1861,l)
);
},
{
closed = 1;
nodes = (
(450,191,l),
(450,128,l),
(2087,128,l),
(2087,191,l)
);
},
{
closed = 1;
nodes = (
(153,1156,l),
(153,1089,l),
(2349,1089,l),
(2349,1156,l)
);
},
{
closed = 1;
nodes = (
(1211,1851,l),
(1211,156,l),
(1277,156,l),
(1277,1851,l)
);
},
{
closed = 1;
nodes = (
(412,885,l),
(412,-65,l),
(473,-65,l),
(473,885,l)
);
},
{
closed = 1;
nodes = (
(2058,885,l),
(2058,-55,l),
(2119,-55,l),
(2119,885,l)
);
},
{
closed = 1;
nodes = (
(692,2193,l),
(589,1859,o),
(424,1551,o),
(210,1349,c),
(227,1339,o),
(256,1319,o),
(265,1311,c),
(471,1521,o),
(648,1831,o),
(751,2180,c)
);
}
);
width = 2504;
}
);
note = cid31841;
unicode = (12152,32566);
}
{
color = 11;
glyphname = uni2F79;
layers = (
{
layerId = "CD0E3B44-F66A-4791-B84C-A1128DC61275";
shapes = (
{
closed = 1;
nodes = (
(900,1901,l),
(875,1191,o),
(800,612,o),
(491,258,c),
(532,232,o),
(612,172,o),
(639,142,c),
(956,536,o),
(1040,1126,o),
(1077,1897,c)
);
},
{
closed = 1;
nodes = (
(1563,1901,l),
(1541,1178,o),
(1475,602,o),
(1151,252,c),
(1196,227,o),
(1275,167,o),
(1305,136,c),
(1629,528,o),
(1712,1113,o),
(1741,1897,c)
);
},
{
closed = 1;
nodes = (
(497,1380,l),
(743,1148,o),
(1022,816,o),
(1154,599,c),
(1268,736,l),
(1136,947,o),
(857,1266,o),
(604,1498,c)
);
},
{
closed = 1;
nodes = (
(1179,1408,l),
(1440,1163,o),
(1735,813,o),
(1872,583,c),
(1989,725,l),
(1851,944,o),
(1557,1280,o),
(1288,1526,c)
);
},
{
closed = 1;
nodes = (
(218,2062,l),
(218,-89,l),
(408,-89,l),
(408,1875,l),
(2211,1875,l),
(2211,2062,l)
);
},
{
closed = 1;
nodes = (
(2108,2062,l),
(2108,156,ls),
(2108,113,o),
(2090,101,o),
(2048,98,cs),
(2005,98,o),
(1861,95,o),
(1712,101,c),
(1738,49,o),
(1768,-36,o),
(1780,-87,c),
(1989,-89,o),
(2114,-84,o),
(2193,-52,cs),
(2269,-22,o),
(2298,41,o),
(2298,156,cs),
(2298,2062,l)
);
}
);
width = 2504;
},
{
layerId = "5C20EF92-B63D-42A8-8878-93C2863E0093";
shapes = (
{
closed = 1;
nodes = (
(813,1806,l),
(818,1156,o),
(770,620,o),
(478,320,c),
(554,271,o),
(712,149,o),
(768,90,c),
(1076,462,o),
(1145,1049,o),
(1154,1802,c)
);
},
{
closed = 1;
nodes = (
(1432,1806,l),
(1433,1146,o),
(1384,605,o),
(1077,305,c),
(1161,257,o),
(1319,137,o),
(1372,81,c),
(1688,448,o),
(1763,1036,o),
(1776,1802,c)
);
},
{
closed = 1;
nodes = (
(480,1179,l),
(725,1027,o),
(1000,781,o),
(1122,609,c),
(1325,907,l),
(1189,1075,o),
(917,1288,o),
(654,1436,c)
);
},
{
closed = 1;
nodes = (
(1109,1212,l),
(1373,1045,o),
(1661,782,o),
(1794,596,c),
(2002,900,l),
(1860,1076,o),
(1573,1305,o),
(1293,1473,c)
);
},
{
closed = 1;
nodes = (
(168,2124,l),
(168,-133,l),
(543,-133,l),
(543,1753,l),
(2173,1753,l),
(2173,2124,l)
);
},
{
closed = 1;
nodes = (
(1973,2124,l),
(1973,298,ls),
(1973,257,o),
(1955,245,o),
(1913,242,cs),
(1870,248,o),
(1727,245,o),
(1621,251,c),
(1668,149,o),
(1727,-28,o),
(1746,-129,c),
(1945,-134,o),
(2092,-122,o),
(2212,-57,cs),
(2318,-1,o),
(2351,110,o),
(2351,293,cs),
(2351,2124,l)
);
}
);
width = 2504;
},
{
layerId = "B1F27B51-9973-4381-9301-4FE46FE1CA59";
shapes = (
{
closed = 1;
nodes = (
(956,1965,l),
(912,1213,o),
(821,604,o),
(498,218,c),
(517,206,o),
(546,187,o),
(557,175,c),
(874,585,o),
(971,1179,o),
(1024,1960,c)
);
},
{
closed = 1;
nodes = (
(1651,1965,l),
(1612,1198,o),
(1534,599,o),
(1200,217,c),
(1218,206,o),
(1247,188,o),
(1258,173,c),
(1590,580,o),
(1676,1166,o),
(1719,1960,c)
);
},
{
closed = 1;
nodes = (
(509,1513,l),
(755,1228,o),
(1037,838,o),
(1173,592,c),
(1231,624,l),
(1101,865,o),
(819,1251,o),
(567,1538,c)
);
},
{
closed = 1;
nodes = (
(1224,1537,l),
(1483,1240,o),
(1784,833,o),
(1924,576,c),
(1982,610,l),
(1844,858,o),
(1546,1264,o),
(1284,1561,c)
);
},
{
closed = 1;
nodes = (
(255,2022,l),
(255,-61,l),
(318,-61,l),
(318,1955,l),
(2237,1955,l),
(2237,2022,l)
);
},
{
closed = 1;
nodes = (
(2197,2022,l),
(2197,60,ls),
(2197,17,o),
(2179,6,o),
(2137,2,cs),
(2094,0,o),
(1950,-2,o),
(1772,2,c),
(1783,-17,o),
(1795,-44,o),
(1801,-57,c),
(2017,-60,o),
(2129,-59,o),
(2181,-50,cs),
(2238,-35,o),
(2263,-5,o),
(2263,64,cs),
(2263,2022,l)
);
}
);
width = 2504;
}
);
note = cid31903;
unicode = (12153,32593);
}
{
color = 11;
glyphname = uni2F7B;
layers = (
{
layerId = "CD0E3B44-F66A-4791-B84C-A1128DC61275";
shapes = (
{
closed = 1;
nodes = (
(162,2081,l),
(162,1896,l),
(1072,1896,l),
(1072,2081,l)
);
},
{
closed = 1;
nodes = (
(944,2081,l),
(944,183,ls),
(943,138,o),
(928,123,o),
(884,123,cs),
(835,120,o),
(666,120,o),
(503,125,c),
(534,72,o),
(565,-19,o),
(575,-74,c),
(783,-74,o),
(936,-71,o),
(1021,-40,cs),
(1107,-6,o),
(1135,55,o),
(1136,182,cs),
(1136,2081,l)
);
},
{
closed = 1;
nodes = (
(165,355,l),
(413,484,o),
(742,669,o),
(1044,846,c),
(992,1007,l),
(662,824,o),
(310,636,o),
(85,529,c)
);
},
{
closed = 1;
nodes = (
(1281,2081,l),
(1281,1896,l),
(2176,1896,l),
(2176,2081,l)
);
},
{
closed = 1;
nodes = (
(2080,2081,l),
(2080,187,ls),
(2080,141,o),
(2065,123,o),
(2015,123,cs),
(1962,120,o),
(1782,118,o),
(1607,125,c),
(1633,72,o),
(1668,-22,o),
(1678,-79,c),
(1904,-78,o),
(2066,-75,o),
(2157,-42,cs),
(2247,-8,o),
(2277,53,o),
(2276,184,cs),
(2276,2081,l)
);
},
{
closed = 1;
nodes = (
(1308,1580,l),
(1439,1438,o),
(1604,1238,o),
(1684,1116,c),
(1843,1231,l),
(1761,1349,o),
(1597,1532,o),
(1460,1673,c)
);
},
{
closed = 1;
nodes = (
(194,1563,l),
(324,1421,o),
(486,1221,o),
(566,1102,c),
(723,1207,l),
(644,1324,o),
(484,1514,o),
(351,1653,c)
);
},
{
closed = 1;
nodes = (
(1318,402,l),
(1563,537,o),
(1892,729,o),
(2195,910,c),
(2146,1069,l),
(1808,883,o),
(1445,687,o),
(1220,575,c)
);
}
);
width = 2504;
},
{
layerId = "5C20EF92-B63D-42A8-8878-93C2863E0093";
shapes = (
{
closed = 1;
nodes = (
(139,2125,l),
(139,1752,l),
(1040,1752,l),
(1040,2125,l)
);
},
{
closed = 1;
nodes = (
(777,2125,l),
(777,330,ls),
(777,288,o),
(758,268,o),
(713,273,cs),
(660,270,o),
(476,270,o),
(342,272,c),
(400,177,o),
(459,2,o),
(473,-106,c),
(713,-106,o),
(886,-97,o),
(1004,-40,cs),
(1129,25,o),
(1166,125,o),
(1166,326,cs),
(1166,2125,l)
);
},
{
closed = 1;
nodes = (
(157,315,l),
(399,435,o),
(693,599,o),
(962,759,c),
(857,1081,l),
(551,920,o),
(228,757,o),
(15,676,c)
);
},
{
closed = 1;
nodes = (
(1264,2125,l),
(1264,1752,l),
(2126,1752,l),
(2126,2125,l)
);
},
{
closed = 1;
nodes = (
(1936,2125,l),
(1936,337,ls),
(1936,291,o),
(1918,268,o),
(1865,273,cs),
(1814,270,o),
(1621,268,o),
(1487,272,c),
(1532,177,o),
(1604,-6,o),
(1616,-117,c),
(1865,-118,o),
(2044,-109,o),
(2170,-47,cs),
(2295,16,o),
(2337,116,o),
(2338,325,cs),
(2338,2125,l)
);
},
{
closed = 1;
nodes = (
(1246,1445,l),
(1347,1317,o),
(1484,1140,o),
(1547,1025,c),
(1862,1248,l),
(1792,1357,o),
(1663,1511,o),
(1549,1635,c)
);
},
{
closed = 1;
nodes = (
(112,1432,l),
(210,1303,o),
(334,1123,o),
(395,1011,c),
(715,1220,l),
(647,1326,o),
(533,1493,o),
(425,1615,c)
);
},
{
closed = 1;
nodes = (
(1380,372,l),
(1612,498,o),
(1898,663,o),
(2155,821,c),
(2062,1139,l),
(1743,984,o),
(1397,819,o),
(1190,734,c)
);
}
);
width = 2504;
},
{
layerId = "B1F27B51-9973-4381-9301-4FE46FE1CA59";
shapes = (
{
closed = 1;
nodes = (
(177,2053,l),
(177,1990,l),
(1093,1990,l),
(1093,2053,l)
);
},
{
closed = 1;
nodes = (
(1054,2053,l),
(1054,86,ls),
(1054,41,o),
(1041,28,o),
(996,26,cs),
(950,23,o),
(793,23,o),
(610,28,c),
(623,3,o),
(633,-33,o),
(641,-53,c),
(830,-53,o),
(973,-54,o),
(1032,-40,cs),
(1094,-26,o),
(1115,10,o),
(1115,88,cs),
(1115,2053,l)
);
},
{
closed = 1;
nodes = (
(172,381,l),
(422,516,o),
(773,714,o),
(1098,904,c),
(1081,958,l),
(735,761,o),
(365,554,o),
(130,430,c)
);
},
{
closed = 1;
nodes = (
(1292,2053,l),
(1292,1990,l),
(2211,1990,l),
(2211,2053,l)
);
},
{
closed = 1;
nodes = (
(2174,2053,l),
(2174,90,ls),
(2175,42,o),
(2162,28,o),
(2112,26,cs),
(2060,23,o),
(1888,20,o),
(1689,28,c),
(1700,3,o),
(1710,-33,o),
(1718,-53,c),
(1929,-53,o),
(2081,-53,o),
(2150,-40,cs),
(2216,-25,o),
(2238,10,o),
(2238,94,cs),
(2238,2053,l)
);
},
{
closed = 1;
nodes = (
(1346,1669,l),
(1499,1519,o),
(1686,1304,o),
(1776,1176,c),
(1829,1222,l),
(1741,1341,o),
(1554,1545,o),
(1400,1699,c)
);
},
{
closed = 1;
nodes = (
(250,1649,l),
(399,1498,o),
(585,1287,o),
(678,1162,c),
(730,1198,l),
(641,1323,o),
(453,1528,o),
(300,1679,c)
);
},
{
closed = 1;
nodes = (
(1280,423,l),
(1532,562,o),
(1889,772,o),
(2219,966,c),
(2200,1024,l),
(1850,816,o),
(1477,601,o),
(1241,472,c)
);
}
);
width = 2504;
}
);
note = cid32098;
unicode = 12155;
}
{
color = 11;
glyphname = uni2F90;
layers = (
{
layerId = "CD0E3B44-F66A-4791-B84C-A1128DC61275";
shapes = (
{
closed = 1;
nodes = (
(152,1819,l),
(152,1632,l),
(2354,1632,l),
(2354,1819,l)
);
},
{
closed = 1;
nodes = (
(331,-69,l),
(658,-2,o),
(1124,96,o),
(1557,189,c),
(1540,377,l),
(1076,281,o),
(584,183,o),
(271,125,c)
);
},
{
closed = 1;
nodes = (
(2159,1439,l),
(1993,1266,o),
(1706,1045,o),
(1497,915,c),
(1640,799,l),
(1849,931,o),
(2127,1133,o),
(2325,1320,c)
);
},
{
closed = 1;
nodes = (
(1145,2211,l),
(1145,1703,l),
(1344,1703,l),
(1344,2211,l)
);
},
{
closed = 1;
nodes = (
(1230,1676,l),
(1349,892,o),
(1575,367,o),
(2286,-83,c),
(2312,-23,o),
(2376,49,o),
(2428,88,c),
(1751,485,o),
(1529,967,o),
(1414,1709,c)
);
},
{
closed = 1;
nodes = (
(1162,1758,l),
(956,1420,o),
(524,1080,o),
(82,890,c),
(112,849,o),
(166,771,o),
(187,723,c),
(662,935,o),
(1097,1292,o),
(1355,1680,c)
);
},
{
closed = 1;
nodes = (
(650,1081,l),
(650,127,l),
(847,127,l),
(847,1231,l),
(814,1244,l)
);
}
);
width = 2504;
},
{
layerId = "5C20EF92-B63D-42A8-8878-93C2863E0093";
shapes = (
{
closed = 1;
nodes = (
(131,1918,l),
(131,1550,l),
(2375,1550,l),
(2375,1918,l)
);
},
{
closed = 1;
nodes = (
(344,-118,l),
(689,-53,o),
(1131,33,o),
(1542,119,c),
(1510,508,l),
(1062,420,o),
(571,330,o),
(233,277,c)
);
},
{
closed = 1;
nodes = (
(2094,1479,l),
(1940,1296,o),
(1683,1084,o),
(1489,964,c),
(1779,729,l),
(1971,854,o),
(2228,1042,o),
(2429,1238,c)
);
},
{
closed = 1;
nodes = (
(1046,2251,l),
(1046,1686,l),
(1449,1686,l),
(1449,2251,l)
);
},
{
closed = 1;
nodes = (
(1177,1623,l),
(1280,913,o),
(1448,359,o),
(2202,-132,c),
(2252,-1,o),
(2383,149,o),
(2487,232,c),
(1811,595,o),
(1651,1066,o),
(1560,1692,c)
);
},
{
closed = 1;
nodes = (
(1057,1783,l),
(873,1500,o),
(467,1185,o),
(48,1029,c),
(107,945,o),
(215,787,o),
(257,685,c),
(739,888,o),
(1167,1242,o),
(1448,1630,c)
);
},
{
closed = 1;
nodes = (
(572,1011,l),
(572,197,l),
(967,197,l),
(967,1305,l),
(892,1333,l)
);
}
);
width = 2504;
},
{
layerId = "B1F27B51-9973-4381-9301-4FE46FE1CA59";
shapes = (
{
closed = 1;
nodes = (
(165,1753,l),
(165,1686,l),
(2341,1686,l),
(2341,1753,l)
);
},
{
closed = 1;
nodes = (
(322,-37,l),
(636,34,o),
(1118,135,o),
(1566,234,c),
(1561,291,l),
(1085,189,o),
(591,86,o),
(297,26,c)
);
},
{
closed = 1;
nodes = (
(2204,1413,l),
(2028,1245,o),
(1721,1019,o),
(1502,883,c),
(1548,844,l),
(1768,983,o),
(2060,1194,o),
(2259,1374,c)
);
},
{
closed = 1;
nodes = (
(1211,2187,l),
(1211,1712,l),
(1277,1712,l),
(1277,2187,l)
);
},
{
closed = 1;
nodes = (
(1265,1711,l),
(1395,878,o),
(1658,374,o),
(2340,-53,c),
(2350,-38,o),
(2370,-17,o),
(2388,-8,c),
(1712,413,o),
(1449,902,o),
(1316,1721,c)
);
},
{
closed = 1;
nodes = (
(1229,1741,l),
(1010,1367,o),
(561,1011,o),
(105,798,c),
(115,786,o),
(135,760,o),
(142,745,c),
(610,966,o),
(1050,1327,o),
(1294,1715,c)
);
},
{
closed = 1;
nodes = (
(702,1128,l),
(702,82,l),
(765,82,l),
(765,1182,l),
(762,1186,l)
);
}
);
width = 2504;
}
);
note = cid36745;
unicode = (12176,34915);
}
{
color = 11;
glyphname = uni2F95;
layers = (
{
layerId = "CD0E3B44-F66A-4791-B84C-A1128DC61275";
shapes = (
{
closed = 1;
nodes = (
(627,179,l),
(627,6,l),
(1885,6,l),
(1885,179,l)
);
},
{
closed = 1;
nodes = (
(553,911,l),
(553,-97,l),
(749,-97,l),
(749,740,l),
(1763,740,l),
(1763,-91,l),
(1968,-91,l),
(1968,911,l)
);
},
{
closed = 1;
nodes = (
(1477,1214,o),
(1905,854,o),
(2292,643,c),
(2327,700,o),
(2372,765,o),
(2419,812,c),
(2027,994,o),
(1593,1351,o),
(1331,1737,c),
(1139,1737,l),
(944,1399,o),
(531,1010,o),
(102,784,c),
(143,745,o),
(194,678,o),
(220,635,c),
(639,866,o),
(1043,1231,o),
(1244,1546,c)
);
},
{
closed = 1;
nodes = (
(1479,2060,l),
(1724,1884,o),
(2013,1626,o),
(2149,1457,c),
(2311,1575,l),
(2169,1748,o),
(1871,1996,o),
(1630,2165,c)
);
},
{
closed = 1;
nodes = (
(823,2157,l),
(668,1935,o),
(420,1712,o),
(182,1571,c),
(227,1536,o),
(306,1467,o),
(341,1431,c),
(574,1588,o),
(840,1839,o),
(1011,2090,c)
);
}
);
width = 2504;
},
{
layerId = "5C20EF92-B63D-42A8-8878-93C2863E0093";
shapes = (
{
closed = 1;
nodes = (
(646,283,l),
(646,-56,l),
(1845,-56,l),
(1845,283,l)
);
},
{
closed = 1;
nodes = (
(509,930,l),
(509,-135,l),
(905,-135,l),
(905,596,l),
(1579,596,l),
(1579,-135,l),
(2002,-135,l),
(2002,930,l)
);
},
{
closed = 1;
nodes = (
(1456,1110,o),
(1850,780,o),
(2214,580,c),
(2282,700,o),
(2372,828,o),
(2468,922,c),
(2075,1076,o),
(1701,1376,o),
(1430,1754,c),
(1040,1754,l),
(856,1469,o),
(475,1101,o),
(68,903,c),
(143,822,o),
(251,684,o),
(304,591,c),
(686,800,o),
(1051,1103,o),
(1249,1377,c)
);
},
{
closed = 1;
nodes = (
(1377,2035,l),
(1606,1853,o),
(1892,1587,o),
(2020,1417,c),
(2351,1645,l),
(2209,1826,o),
(1910,2074,o),
(1685,2241,c)
);
},
{
closed = 1;
nodes = (
(719,2224,l),
(580,2009,o),
(338,1795,o),
(104,1670,c),
(188,1599,o),
(345,1460,o),
(415,1382,c),
(652,1539,o),
(934,1817,o),
(1104,2085,c)
);
}
);
width = 2504;
},
{
layerId = "B1F27B51-9973-4381-9301-4FE46FE1CA59";
shapes = (
{
closed = 1;
nodes = (
(613,111,l),
(613,46,l),
(1909,46,l),
(1909,111,l)
);
},
{
closed = 1;
nodes = (
(581,900,l),
(581,-71,l),
(646,-71,l),
(646,834,l),
(1883,834,l),
(1883,-63,l),
(1945,-63,l),
(1945,900,l)
);
},
{
closed = 1;
nodes = (
(1490,1281,o),
(1943,903,o),
(2344,686,c),
(2356,700,o),
(2372,726,o),
(2389,741,c),
(1995,939,o),
(1522,1334,o),
(1265,1726,c),
(1203,1726,l),
(1001,1353,o),
(569,949,o),
(125,707,c),
(143,692,o),
(157,675,o),
(166,663,c),
(609,910,o),
(1035,1313,o),
(1242,1658,c)
);
},
{
closed = 1;
nodes = (
(1545,2075,l),
(1800,1904,o),
(2094,1652,o),
(2233,1481,c),
(2287,1530,l),
(2144,1696,o),
(1846,1944,o),
(1592,2116,c)
);
},
{
closed = 1;
nodes = (
(891,2114,l),
(725,1886,o),
(475,1658,o),
(234,1505,c),
(253,1497,o),
(281,1473,o),
(292,1461,c),
(521,1620,o),
(776,1854,o),
(950,2094,c)
);
}
);
width = 2504;
}
);
note = cid38580;
unicode = (12181,35895);
}
{
color = 11;
glyphname = uni2F97;
layers = (
{
layerId = "CD0E3B44-F66A-4791-B84C-A1128DC61275";
shapes = (
{
closed = 1;
nodes = (
(718,1425,l),
(1403,973,o),
(1464,320,o),
(1235,153,cs),
(1175,103,o),
(1110,95,o),
(1037,95,cs),
(975,95,o),
(892,101,o),
(795,111,c),
(831,50,o),
(844,-33,o),
(847,-89,c),
(933,-91,o),
(1015,-97,o),
(1081,-93,cs),
(1199,-94,o),
(1288,-74,o),
(1382,2,cs),
(1695,227,o),
(1645,1029,o),
(866,1528,c)
);
},
{
closed = 1;
nodes = (
(1020,1290,l),
(814,1098,o),
(422,889,o),
(136,785,c),
(176,747,o),
(233,677,o),
(262,635,c),
(551,757,o),
(951,991,o),
(1181,1207,c)
);
},
{
closed = 1;
nodes = (
(1253,947,l),
(989,656,o),
(491,349,o),
(88,203,c),
(131,166,o),
(189,93,o),
(220,47,c),
(623,212,o),
(1124,537,o),
(1414,865,c)
);
},
{
closed = 1;
nodes = (
(162,2044,l),
(162,1860,l),
(2347,1860,l),
(2347,2044,l)
);
},
{
closed = 1;
nodes = (
(1252,1996,l),
(997,1700,o),
(552,1453,o),
(116,1307,c),
(165,1270,o),
(233,1189,o),
(267,1148,c),
(689,1315,o),
(1149,1582,o),
(1437,1913,c)
);
},
{
closed = 1;
nodes = (
(1277,1900,l),
(1441,1109,o),
(1736,460,o),
(2275,143,c),
(2308,194,o),
(2371,270,o),
(2417,310,c),
(1901,584,o),
(1604,1213,o),
(1460,1933,c)
);
},
{
closed = 1;
nodes = (
(2186,1644,l),
(2028,1478,o),
(1758,1264,o),
(1554,1140,c),
(1686,1025,l),
(1890,1148,o),
(2156,1342,o),
(2352,1515,c)
);
}
);
width = 2504;
},
{
layerId = "5C20EF92-B63D-42A8-8878-93C2863E0093";
shapes = (
{
closed = 1;
nodes = (
(574,1264,l),
(1206,877,o),
(1211,408,o),
(1088,300,cs),
(1057,259,o),
(1016,249,o),
(963,249,cs),
(882,249,o),
(832,259,o),
(746,267,c),
(831,141,o),
(849,-25,o),
(855,-138,c),
(915,-134,o),
(976,-146,o),
(1046,-137,cs),
(1185,-137,o),
(1280,-109,o),
(1382,-21,cs),
(1679,206,o),
(1723,979,o),
(889,1471,c)
);
},
{
closed = 1;
nodes = (
(855,1295,l),
(683,1128,o),
(344,972,o),
(47,880,c),
(126,807,o),
(241,670,o),
(292,586,c),
(602,708,o),
(953,921,o),
(1173,1140,c)
);
},
{
closed = 1;
nodes = (
(1076,955,l),
(855,711,o),
(427,463,o),
(35,323,c),
(117,254,o),
(237,108,o),
(298,9,c),
(697,182,o),
(1118,474,o),
(1391,795,c)
);
},
{
closed = 1;
nodes = (
(130,2131,l),
(130,1769,l),
(2389,1769,l),
(2389,2131,l)
);
},
{
closed = 1;
nodes = (
(1193,2019,l),
(946,1751,o),
(495,1530,o),
(38,1411,c),
(130,1335,o),
(268,1175,o),
(337,1091,c),
(773,1245,o),
(1263,1518,o),
(1568,1848,c)
);
},
{
closed = 1;
nodes = (
(1230,1820,l),
(1383,1034,o),
(1627,422,o),
(2178,76,c),
(2244,187,o),
(2369,340,o),
(2457,420,c),
(1963,692,o),
(1714,1252,o),
(1599,1884,c)
);
},
{
closed = 1;
nodes = (
(2070,1621,l),
(1923,1453,o),
(1687,1255,o),
(1504,1133,c),
(1770,903,l),
(1956,1016,o),
(2196,1190,o),
(2405,1356,c)
);
}
);
width = 2504;
},
{
layerId = "B1F27B51-9973-4381-9301-4FE46FE1CA59";
shapes = (
{
closed = 1;
nodes = (
(814,1530,l),
(1532,1037,o),
(1630,263,o),
(1332,56,cs),
(1252,-1,o),
(1174,-6,o),
(1086,-6,cs),
(1036,-6,o),
(931,-3,o),
(827,8,c),
(831,-9,o),
(841,-41,o),
(840,-57,c),
(945,-62,o),
(1041,-65,o),
(1103,-65,cs),
(1208,-65,o),
(1294,-50,o),
(1382,17,cs),
(1706,241,o),
(1593,1064,o),
(853,1566,c)
);
},
{
closed = 1;
nodes = (
(1130,1286,l),
(901,1078,o),
(475,835,o),
(192,721,c),
(211,709,o),
(228,685,o),
(241,667,c),
(515,789,o),
(949,1038,o),
(1188,1250,c)
);
},
{
closed = 1;
nodes = (
(1371,940,l),
(1078,618,o),
(534,275,o),
(123,121,c),
(138,108,o),
(158,84,o),
(168,69,c),
(575,232,o),
(1127,576,o),
(1429,912,c)
);
},
{
closed = 1;
nodes = (
(183,1986,l),
(183,1920,l),
(2319,1920,l),
(2319,1986,l)
);
},
{
closed = 1;
nodes = (
(1292,1983,l),
(1032,1664,o),
(589,1400,o),
(170,1239,c),
(186,1226,o),
(211,1198,o),
(222,1185,c),
(634,1360,o),
(1075,1625,o),
(1351,1956,c)
);
},
{
closed = 1;
nodes = (
(1309,1952,l),
(1478,1158,o),
(1808,483,o),
(2338,186,c),
(2351,202,o),
(2372,225,o),
(2391,237,c),
(1863,513,o),
(1532,1187,o),
(1368,1965,c)
);
},
{
closed = 1;
nodes = (
(2263,1659,l),
(2095,1495,o),
(1803,1270,o),
(1591,1142,c),
(1634,1105,l),
(1847,1235,o),
(2131,1442,o),
(2317,1618,c)
);
}
);
width = 2504;
}
);
note = cid38638;
unicode = (12183,35925);
}
{
color = 11;
glyphname = uni2FA2;
layers = (
{
layerId = "CD0E3B44-F66A-4791-B84C-A1128DC61275";
shapes = (
{
closed = 1;
nodes = (
(448,827,l),
(448,653,l),
(2074,653,l),
(2074,827,l)
);
},
{
closed = 1;
nodes = (
(1140,1296,l),
(1140,755,l),
(1332,755,l),
(1332,1296,l)
);
},
{
closed = 1;
nodes = (
(433,1365,l),
(433,1191,l),
(1982,1191,l),
(1982,561,l),
(2178,561,l),
(2178,1365,l)
);
},
{
closed = 1;
nodes = (
(316,1365,l),
(316,293,ls),
(317,-1,o),
(442,-70,o),
(868,-70,cs),
(961,-70,o),
(1772,-70,o),
(1877,-70,cs),
(2242,-70,o),
(2322,23,o),
(2363,351,c),
(2303,360,o),
(2221,392,o),
(2169,421,c),
(2142,167,o),
(2103,117,o),
(1873,117,cs),
(1699,117,o),
(991,117,o),
(853,117,cs),
(559,117,o),
(513,151,o),
(514,293,cs),
(514,1365,l)
);
},
{
closed = 1;
nodes = (
(650,1951,l),
(1821,1951,l),
(1821,1679,l),
(650,1679,l)
);
},
{
closed = 1;
nodes = (
(459,2103,l),
(459,1527,l),
(2022,1527,l),
(2022,2103,l)
);
}
);
width = 2504;
},
{
layerId = "5C20EF92-B63D-42A8-8878-93C2863E0093";
shapes = (
{
closed = 1;
nodes = (
(530,920,l),
(530,583,l),
(2015,583,l),
(2015,920,l)
);
},
{
closed = 1;
nodes = (
(1035,1289,l),
(1035,799,l),
(1419,799,l),
(1419,1289,l)
);
},
{
closed = 1;
nodes = (
(503,1435,l),
(503,1094,l),
(1838,1094,l),
(1838,514,l),
(2228,514,l),
(2228,1435,l)
);
},
{
closed = 1;
nodes = (
(257,1435,l),
(257,415,ls),
(257,-9,o),
(417,-123,o),
(980,-123,cs),
(1108,-123,o),
(1633,-123,o),
(1775,-123,cs),
(2234,-123,o),
(2371,-15,o),
(2433,361,c),
(2316,377,o),
(2147,441,o),
(2047,488,c),
(2011,281,o),
(1972,248,o),
(1742,248,cs),
(1602,248,o),
(1112,248,o),
(980,248,cs),
(687,248,o),
(652,270,o),
(653,420,cs),
(653,1435,l)
);
},
{
closed = 1;
nodes = (
(794,1884,l),
(1667,1884,l),
(1667,1801,l),
(794,1801,l)
);
},
{
closed = 1;
nodes = (
(410,2166,l),
(410,1519,l),
(2081,1519,l),
(2081,2166,l)
);
}
);
width = 2504;
},
{
layerId = "B1F27B51-9973-4381-9301-4FE46FE1CA59";
shapes = (
{
closed = 1;
nodes = (
(394,766,l),
(394,700,l),
(2112,700,l),
(2112,766,l)
);
},
{
closed = 1;
nodes = (
(1209,1302,l),
(1209,727,l),
(1274,727,l),
(1274,1302,l)
);
},
{
closed = 1;
nodes = (
(388,1320,l),
(388,1255,l),
(2078,1255,l),
(2078,593,l),
(2141,593,l),
(2141,1320,l)
);
},
{
closed = 1;
nodes = (
(354,1320,l),
(354,211,ls),
(355,6,o),
(459,-34,o),
(793,-33,cs),
(864,-34,o),
(1864,-34,o),
(1943,-33,cs),
(2249,-34,o),
(2290,49,o),
(2318,344,c),
(2295,350,o),
(2270,360,o),
(2249,376,c),
(2228,92,o),
(2190,30,o),
(1959,31,cs),
(1763,30,o),
(909,30,o),
(771,31,cs),
(477,30,o),
(422,75,o),
(422,209,cs),
(422,1320,l)
);
},
{
closed = 1;
nodes = (
(556,1994,l),
(1922,1994,l),
(1922,1599,l),
(556,1599,l)
);
},
{
closed = 1;
nodes = (
(491,2060,l),
(491,1532,l),
(1984,1532,l),
(1984,2060,l)
);
}
);
width = 2504;
}
);
note = cid40617;
unicode = (12194,37009);
}
{
color = 11;
glyphname = uni2FB8;
layers = (
{
layerId = "CD0E3B44-F66A-4791-B84C-A1128DC61275";
shapes = (
{
closed = 1;
nodes = (
(571,1041,l),
(571,886,l),
(1939,886,l),
(1939,1041,l)
);
},
{
closed = 1;
nodes = (
(571,635,l),
(571,480,l),
(1939,480,l),
(1939,635,l)
);
},
{
closed = 1;
nodes = (
(571,221,l),
(571,48,l),
(1947,48,l),
(1947,221,l)
);
},
{
closed = 1;
nodes = (
(134,1867,l),
(134,1686,l),
(2376,1686,l),
(2376,1867,l)
);
},
{
closed = 1;
nodes = (
(418,1457,l),
(418,-93,l),
(612,-93,l),
(612,1285,l),
(1884,1285,l),
(1884,-93,l),
(2087,-93,l),
(2087,1457,l)
);
},
{
closed = 1;
nodes = (
(1156,1773,l),
(1135,1655,o),
(1092,1483,o),
(1052,1370,c),
(1240,1343,l),
(1288,1450,o),
(1346,1609,o),
(1393,1755,c)
);
},
{
closed = 1;
nodes = (
(1753,2217,l),
(1696,2104,o),
(1592,1944,o),
(1509,1843,c),
(1678,1788,l),
(1766,1885,o),
(1876,2025,o),
(1968,2161,c)
);
},
{
closed = 1;
nodes = (
(567,2146,l),
(655,2052,o),
(755,1917,o),
(798,1831,c),
(977,1925,l),
(929,2006,o),
(831,2132,o),
(738,2222,c)
);
}
);
width = 2504;
},
{
layerId = "5C20EF92-B63D-42A8-8878-93C2863E0093";
shapes = (
{
closed = 1;
nodes = (
(645,1058,l),
(645,770,l),
(1846,770,l),
(1846,1058,l)
);
},
{
closed = 1;
nodes = (
(645,684,l),
(645,393,l),
(1846,393,l),
(1846,684,l)
);
},
{
closed = 1;
nodes = (
(645,295,l),
(645,-41,l),
(1845,-41,l),
(1845,295,l)
);
},
{
closed = 1;
nodes = (
(111,1930,l),
(111,1570,l),
(2406,1570,l),
(2406,1930,l)
);
},
{
closed = 1;
nodes = (
(329,1476,l),
(329,-137,l),
(717,-137,l),
(717,1138,l),
(1745,1138,l),
(1745,-137,l),
(2157,-137,l),
(2157,1476,l)
);
},
{
closed = 1;
nodes = (
(1046,1703,l),
(1028,1586,o),
(982,1430,o),
(940,1313,c),
(1320,1273,l),
(1390,1380,o),
(1482,1524,o),
(1547,1692,c)
);
},
{
closed = 1;
nodes = (
(1626,2264,l),
(1582,2147,o),
(1504,1993,o),
(1435,1887,c),
(1788,1793,l),
(1867,1885,o),
(1975,2020,o),
(2082,2174,c)
);
},
{
closed = 1;
nodes = (
(465,2123,l),
(561,2025,o),
(662,1883,o),
(707,1796,c),
(1070,1988,l),
(1017,2066,o),
(914,2189,o),
(816,2279,c)
);
}
);
width = 2504;
},
{
layerId = "B1F27B51-9973-4381-9301-4FE46FE1CA59";
shapes = (
{
closed = 1;
nodes = (
(522,1032,l),
(522,961,l),
(2000,961,l),
(2000,1032,l)
);
},
{
closed = 1;
nodes = (
(522,603,l),
(522,538,l),
(2000,538,l),
(2000,603,l)
);
},
{
closed = 1;
nodes = (
(522,172,l),
(522,104,l),
(2013,104,l),
(2013,172,l)
);
},
{
closed = 1;
nodes = (
(149,1828,l),
(149,1763,l),
(2357,1763,l),
(2357,1828,l)
);
},
{
closed = 1;
nodes = (
(478,1446,l),
(478,-65,l),
(543,-65,l),
(543,1382,l),
(1976,1382,l),
(1976,-65,l),
(2042,-65,l),
(2042,1446,l)
);
},
{
closed = 1;
nodes = (
(1227,1818,l),
(1208,1701,o),
(1165,1518,o),
(1127,1407,c),
(1186,1388,l),
(1222,1495,o),
(1257,1665,o),
(1294,1794,c)
);
},
{
closed = 1;
nodes = (
(1837,2185,l),
(1771,2075,o),
(1650,1913,o),
(1558,1815,c),
(1607,1784,l),
(1699,1885,o),
(1810,2028,o),
(1895,2152,c)
);
},
{
closed = 1;
nodes = (
(633,2161,l),
(718,2069,o),
(816,1939,o),
(860,1855,c),
(916,1886,l),
(871,1968,o),
(777,2095,o),
(688,2185,c)
);
}
);
width = 2504;
}
);
note = cid44697;
unicode = (12216,39318);
}
{
color = 11;
glyphname = uni2FBB;
layers = (
{
layerId = "CD0E3B44-F66A-4791-B84C-A1128DC61275";
shapes = (
{
closed = 1;
nodes = (
(196,1457,l),
(196,974,l),
(374,974,l),
(374,1288,l),
(2121,1288,l),
(2121,974,l),
(2308,974,l),
(2308,1457,l)
);
},
{
closed = 1;
nodes = (
(546,2104,l),
(546,1377,l),
(733,1377,l),
(733,1950,l),
(1760,1950,l),
(1760,1375,l),
(1953,1375,l),
(1953,2104,l)
);
},
{
closed = 1;
nodes = (
(577,1133,l),
(577,-93,l),
(764,-93,l),
(764,977,l),
(1832,977,l),
(1832,1133,l)
);
},
{
closed = 1;
nodes = (
(1108,1796,l),
(1108,1364,l),
(1280,1364,l),
(1280,1663,l),
(1831,1663,l),
(1831,1796,l)
);
},
{
closed = 1;
nodes = (
(1740,1133,l),
(1740,111,ls),
(1741,79,o),
(1730,69,o),
(1692,67,cs),
(1655,64,o),
(1519,61,o),
(1376,67,c),
(1401,23,o),
(1426,-46,o),
(1435,-93,c),
(1629,-94,o),
(1756,-91,o),
(1831,-65,cs),
(1908,-40,o),
(1932,9,o),
(1932,108,cs),
(1932,1133,l)
);
},
{
closed = 1;
nodes = (
(671,791,l),
(671,647,l),
(1842,647,l),
(1842,791,l)
);
},
{
closed = 1;
nodes = (
(671,455,l),
(671,306,l),
(1842,306,l),
(1842,455,l)
);
}
);
width = 2504;
},
{
layerId = "5C20EF92-B63D-42A8-8878-93C2863E0093";
shapes = (
{
closed = 1;
nodes = (
(139,1527,l),
(139,942,l),
(488,942,l),
(488,1199,l),
(1999,1199,l),
(1999,942,l),
(2367,942,l),
(2367,1527,l)
);
},
{
closed = 1;
nodes = (
(484,2161,l),
(484,1394,l),
(855,1394,l),
(855,1872,l),
(1593,1872,l),
(1593,1388,l),
(1988,1388,l),
(1988,2161,l)
);
},
{
closed = 1;
nodes = (
(539,1146,l),
(539,-137,l),
(906,-137,l),
(906,855,l),
(1750,855,l),
(1750,1146,l)
);
},
{
closed = 1;
nodes = (
(1030,1819,l),
(1030,1343,l),
(1362,1343,l),
(1362,1587,l),
(1709,1587,l),
(1709,1819,l)
);
},
{
closed = 1;
nodes = (
(1575,1146,l),
(1575,208,ls),
(1576,178,o),
(1559,169,o),
(1521,166,cs),
(1494,164,o),
(1349,161,o),
(1260,166,c),
(1303,89,o),
(1349,-40,o),
(1359,-137,c),
(1551,-137,o),
(1699,-131,o),
(1812,-84,cs),
(1922,-40,o),
(1954,40,o),
(1953,199,cs),
(1953,1146,l)
);
},
{
closed = 1;
nodes = (
(734,806,l),
(734,548,l),
(1780,548,l),
(1780,806,l)
);
},
{
closed = 1;
nodes = (
(734,497,l),
(734,228,l),
(1780,228,l),
(1780,497,l)
);
}
);
width = 2504;
},
{
layerId = "B1F27B51-9973-4381-9301-4FE46FE1CA59";
shapes = (
{
closed = 1;
nodes = (
(233,1412,l),
(233,993,l),
(299,993,l),
(299,1344,l),
(2203,1344,l),
(2203,993,l),
(2268,993,l),
(2268,1412,l)
);
},
{
closed = 1;
nodes = (
(586,2067,l),
(586,1366,l),
(653,1366,l),
(653,2002,l),
(1870,2002,l),
(1870,1366,l),
(1931,1366,l),
(1931,2067,l)
);
},
{
closed = 1;
nodes = (
(601,1126,l),
(601,-65,l),
(668,-65,l),
(668,1057,l),
(1886,1057,l),
(1886,1126,l)
);
},
{
closed = 1;
nodes = (
(1160,1781,l),
(1160,1377,l),
(1226,1377,l),
(1226,1712,l),
(1911,1712,l),
(1911,1781,l)
);
},
{
closed = 1;
nodes = (
(1852,1126,l),
(1852,47,ls),
(1851,13,o),
(1842,3,o),
(1804,-1,cs),
(1760,-2,o),
(1632,-5,o),
(1453,-1,c),
(1467,-20,o),
(1479,-47,o),
(1484,-65,c),
(1681,-65,o),
(1793,-66,o),
(1845,-53,cs),
(1899,-40,o),
(1917,-11,o),
(1917,48,cs),
(1917,1126,l)
);
},
{
closed = 1;
nodes = (
(628,784,l),
(628,713,l),
(1882,713,l),
(1882,784,l)
);
},
{
closed = 1;
nodes = (
(628,425,l),
(628,358,l),
(1882,358,l),
(1882,425,l)
);
}
);
width = 2504;
}
);
note = cid45132;
unicode = (12219,39592);
}
{
color = 11;
glyphname = uni2FBF;
layers = (
{
layerId = "CD0E3B44-F66A-4791-B84C-A1128DC61275";
shapes = (
{
closed = 1;
nodes = (
(2002,797,l),
(1665,680,o),
(1051,591,o),
(527,536,c),
(551,496,o),
(574,426,o),
(579,377,c),
(1114,429,o),
(1746,517,o),
(2148,647,c)
);
},
{
closed = 1;
nodes = (
(421,873,l),
(421,251,ls),
(420,10,o),
(542,-47,o),
(947,-46,cs),
(1039,-47,o),
(1762,-47,o),
(1858,-46,cs),
(2199,-47,o),
(2278,33,o),
(2320,367,c),
(2257,379,o),
(2175,405,o),
(2122,438,c),
(2101,176,o),
(2065,128,o),
(1852,128,cs),
(1686,128,o),
(1064,128,o),
(941,128,cs),
(676,128,o),
(628,151,o),
(627,253,cs),
(627,873,l)
);
},
{
closed = 1;
nodes = (
(1634,2204,l),
(1397,1835,o),
(994,1499,o),
(595,1296,c),
(630,1269,o),
(690,1209,o),
(715,1178,c),
(1110,1406,o),
(1521,1753,o),
(1783,2151,c)
);
},
{
closed = 1;
nodes = (
(642,1961,l),
(1046,1761,o),
(1527,1447,o),
(1760,1224,c),
(1866,1336,l),
(1627,1564,o),
(1139,1864,o),
(740,2059,c)
);
},
{
closed = 1;
nodes = (
(991,2104,l),
(1105,2065,o),
(1239,1997,o),
(1310,1937,c),
(1390,2049,l),
(1320,2104,o),
(1188,2172,o),
(1076,2205,c)
);
},
{
closed = 1;
nodes = (
(1124,1338,l),
(1226,1275,o),
(1343,1174,o),
(1401,1103,c),
(1499,1197,l),
(1441,1268,o),
(1323,1361,o),
(1219,1423,c)
);
},
{
closed = 1;
nodes = (
(543,1692,l),
(646,1652,o),
(771,1583,o),
(835,1532,c),
(925,1639,l),
(861,1688,o),
(732,1754,o),
(631,1789,c)
);
},
{
closed = 1;
nodes = (
(1585,1746,l),
(1692,1696,o),
(1821,1612,o),
(1883,1554,c),
(1974,1656,l),
(1906,1715,o),
(1777,1792,o),
(1669,1840,c)
);
},
{
closed = 1;
nodes = (
(320,2146,l),
(320,936,l),
(2211,936,l),
(2211,2146,l),
(2008,2146,l),
(2008,1109,l),
(511,1109,l),
(511,2146,l)
);
}
);
width = 2504;
},
{
layerId = "5C20EF92-B63D-42A8-8878-93C2863E0093";
shapes = (
{
closed = 1;
nodes = (
(1940,816,l),
(1595,731,o),
(1068,679,o),
(576,650,c),
(620,570,o),
(667,426,o),
(674,328,c),
(1180,355,o),
(1769,410,o),
(2230,520,c)
);
},
{
closed = 1;
nodes = (
(354,838,l),
(354,350,ls),
(354,-4,o),
(519,-104,o),
(1074,-105,cs),
(1200,-104,o),
(1672,-104,o),
(1799,-105,cs),
(2239,-104,o),
(2369,-18,o),
(2439,359,c),
(2313,379,o),
(2144,427,o),
(2044,488,c),
(2013,275,o),
(1977,238,o),
(1774,238,cs),
(1626,238,o),
(1208,238,o),
(1088,238,cs),
(823,238,o),
(781,250,o),
(781,357,cs),
(781,838,l)
);
},
{
closed = 1;
nodes = (
(1497,2261,l),
(1309,1917,o),
(1000,1569,o),
(688,1358,c),
(756,1307,o),
(868,1204,o),
(922,1146,c),
(1219,1398,o),
(1551,1781,o),
(1768,2164,c)
);
},
{
closed = 1;
nodes = (
(672,1923,l),
(1025,1735,o),
(1465,1447,o),
(1678,1245,c),
(1871,1452,l),
(1649,1659,o),
(1190,1924,o),
(847,2104,c)
);
},
{
closed = 1;
nodes = (
(974,2074,l),
(1056,2034,o),
(1159,1973,o),
(1219,1929,c),
(1369,2123,l),
(1313,2164,o),
(1211,2223,o),
(1126,2254,c)
);
},
{
closed = 1;
nodes = (
(1156,1317,l),
(1232,1262,o),
(1320,1180,o),
(1361,1120,c),
(1541,1290,l),
(1494,1346,o),
(1400,1424,o),
(1323,1470,c)
);
},
{
closed = 1;
nodes = (
(592,1665,l),
(677,1621,o),
(776,1545,o),
(827,1498,c),
(995,1677,l),
(944,1728,o),
(837,1793,o),
(751,1834,c)
);
},
{
closed = 1;
nodes = (
(1536,1751,l),
(1615,1705,o),
(1710,1625,o),
(1754,1575,c),
(1917,1761,l),
(1863,1805,o),
(1763,1875,o),
(1688,1922,c)
);
},
{
closed = 1;
nodes = (
(290,2171,l),
(290,874,l),
(2278,874,l),
(2278,2171,l),
(1869,2171,l),
(1869,1208,l),
(672,1208,l),
(672,2171,l)
);
}
);
width = 2504;
},
{
layerId = "B1F27B51-9973-4381-9301-4FE46FE1CA59";
shapes = (
{
closed = 1;
nodes = (
(2040,783,l),
(1710,646,o),
(1041,534,o),
(495,463,c),
(505,447,o),
(513,426,o),
(515,409,c),
(1071,477,o),
(1732,589,o),
(2094,729,c)
);
},
{
closed = 1;
nodes = (
(464,895,l),
(464,187,ls),
(464,19,o),
(557,-9,o),
(865,-9,cs),
(933,-9,o),
(1822,-9,o),
(1898,-9,cs),
(2174,-9,o),
(2218,69,o),
(2243,374,c),
(2220,379,o),
(2194,390,o),
(2174,403,c),
(2158,111,o),
(2122,57,o),
(1904,57,cs),
(1724,57,o),
(968,57,o),
(844,57,cs),
(578,57,o),
(529,86,o),
(528,187,cs),
(528,895,l)
);
},
{
closed = 1;
nodes = (
(1726,2167,l),
(1455,1781,o),
(991,1454,o),
(532,1256,c),
(547,1243,o),
(572,1212,o),
(579,1199,c),
(1038,1413,o),
(1501,1737,o),
(1792,2142,c)
);
},
{
closed = 1;
nodes = (
(621,1987,l),
(1059,1778,o),
(1567,1447,o),
(1814,1209,c),
(1862,1259,l),
(1612,1500,o),
(1103,1825,o),
(667,2029,c)
);
},
{
closed = 1;
nodes = (
(1002,2123,l),
(1137,2084,o),
(1292,2011,o),
(1370,1944,c),
(1405,2002,l),
(1328,2066,o),
(1173,2138,o),
(1041,2173,c)
);
},
{
closed = 1;
nodes = (
(1105,1353,l),
(1224,1282,o),
(1358,1172,o),
(1427,1091,c),
(1469,1136,l),
(1405,1215,o),
(1270,1322,o),
(1151,1393,c)
);
},
{
closed = 1;
nodes = (
(511,1709,l),
(627,1671,o),
(768,1609,o),
(842,1555,c),
(878,1613,l),
(807,1663,o),
(663,1728,o),
(549,1759,c)
);
},
{
closed = 1;
nodes = (
(1617,1742,l),
(1744,1689,o),
(1894,1604,o),
(1969,1539,c),
(2011,1587,l),
(1935,1656,o),
(1786,1739,o),
(1658,1786,c)
);
},
{
closed = 1;
nodes = (
(339,2129,l),
(339,974,l),
(2166,974,l),
(2166,2129,l),
(2100,2129,l),
(2100,1041,l),
(406,1041,l),
(406,2129,l)
);
}
);
width = 2504;
}
);
note = cid45453;
unicode = (12223,39727);
}
{
color = 11;
glyphname = uni2FCF;
layers = (
{
layerId = "CD0E3B44-F66A-4791-B84C-A1128DC61275";
shapes = (
{
closed = 1;
nodes = (
(1023,2215,l),
(877,2149,o),
(631,2076,o),
(409,2030,c),
(432,1994,o),
(457,1931,o),
(467,1892,c),
(697,1938,o),
(968,2004,o),
(1166,2082,c)
);
},
{
closed = 1;
nodes = (
(360,2060,l),
(360,1275,l),
(550,1275,l),
(550,2019,l)
);
},
{
closed = 1;
nodes = (
(360,1347,l),
(360,1187,l),
(2160,1187,l),
(2160,2084,l),
(1360,2084,l),
(1360,1926,l),
(1968,1926,l),
(1968,1347,l)
);
},
{
closed = 1;
nodes = (
(435,1718,l),
(435,1564,l),
(1102,1564,l),
(1102,1718,l)
);
},
{
closed = 1;
nodes = (
(1395,1718,l),
(1395,1564,l),
(2052,1564,l),
(2052,1718,l)
);
},
{
closed = 1;
nodes = (
(413,1096,l),
(413,76,l),
(602,111,l),
(602,1096,l)
);
},
{
closed = 1;
nodes = (
(1135,1091,l),
(1135,49,l),
(1314,82,l),
(1314,1091,l)
);
},
{
closed = 1;
nodes = (
(140,-50,l),
(367,-17,o),
(670,28,o),
(964,73,c),
(955,240,l),
(642,194,o),
(324,148,o),
(113,123,c)
);
},
{
closed = 1;
nodes = (
(1008,-50,l),
(1241,-15,o),
(1555,34,o),
(1857,84,c),
(1852,244,l),
(1528,195,o),
(1200,146,o),
(983,119,c)
);
},
{
closed = 1;
nodes = (
(1852,1097,l),
(1862,307,o),
(1936,-108,o),
(2201,-108,cs),
(2329,-108,o),
(2392,-45,o),
(2413,214,c),
(2370,229,o),
(2313,262,o),
(2277,294,c),
(2270,121,o),
(2255,76,o),
(2215,76,cs),
(2102,76,o),
(2035,386,o),
(2041,1097,c)
);
},
{
closed = 1;
nodes = (
(672,918,l),
(773,867,o),
(898,783,o),
(955,718,c),
(1058,839,l),
(998,900,o),
(874,979,o),
(769,1025,c)
);
},
{
closed = 1;
nodes = (
(650,543,l),
(751,489,o),
(868,400,o),
(926,330,c),
(1029,450,l),
(974,515,o),
(855,600,o),
(752,652,c)
);
},
{
closed = 1;
nodes = (
(1399,914,l),
(1502,860,o),
(1633,775,o),
(1693,711,c),
(1793,830,l),
(1728,893,o),
(1599,973,o),
(1493,1022,c)
);
},
{
closed = 1;
nodes = (
(1382,541,l),
(1491,476,o),
(1619,379,o),
(1679,308,c),
(1788,429,l),
(1723,495,o),
(1593,590,o),
(1484,650,c)
);
}
);
width = 2504;
},
{
layerId = "5C20EF92-B63D-42A8-8878-93C2863E0093";
shapes = (
{
closed = 1;
nodes = (
(981,2260,l),
(833,2194,o),
(614,2125,o),
(401,2083,c),
(440,2017,o),
(487,1892,o),
(507,1814,c),
(736,1855,o),
(1017,1913,o),
(1250,1995,c)
);
},
{
closed = 1;
nodes = (
(301,2122,l),
(301,1267,l),
(689,1267,l),
(689,2057,l)
);
},
{
closed = 1;
nodes = (
(301,1423,l),
(301,1124,l),
(2238,1124,l),
(2238,2162,l),
(1358,2162,l),
(1358,1869,l),
(1852,1869,l),
(1852,1423,l)
);
},
{
closed = 1;
nodes = (
(473,1796,l),
(473,1514,l),
(1180,1514,l),
(1180,1796,l)
);
},
{
closed = 1;
nodes = (
(1353,1796,l),
(1353,1514,l),
(2018,1514,l),
(2018,1796,l)
);
},
{
closed = 1;
nodes = (
(346,1075,l),
(346,69,l),
(721,124,l),
(721,1075,l)
);
},
{
closed = 1;
nodes = (
(1070,1078,l),
(1070,32,l),
(1424,82,l),
(1424,1078,l)
);
},
{
closed = 1;
nodes = (
(145,-112,l),
(375,-87,o),
(662,-56,o),
(930,-22,c),
(915,297,l),
(619,264,o),
(311,238,o),
(94,222,c)
);
},
{
closed = 1;
nodes = (
(1008,-112,l),
(1236,-89,o),
(1516,-61,o),
(1780,-30,c),
(1770,274,l),
(1479,245,o),
(1178,226,o),
(970,212,c)
);
},
{
closed = 1;
nodes = (
(1761,1078,l),
(1767,350,o),
(1825,-130,o),
(2166,-129,cs),
(2360,-130,o),
(2455,-37,o),
(2478,301,c),
(2401,328,o),
(2299,394,o),
(2233,456,c),
(2230,300,o),
(2220,238,o),
(2196,238,cs),
(2155,238,o),
(2119,547,o),
(2140,1078,c)
);
},
{
closed = 1;
nodes = (
(674,884,l),
(757,832,o),
(867,749,o),
(915,697,c),
(1111,909,l),
(1061,960,o),
(948,1030,o),
(862,1074,c)
);
},
{
closed = 1;
nodes = (
(675,480,l),
(756,436,o),
(855,361,o),
(905,309,c),
(1096,534,l),
(1049,580,o),
(946,649,o),
(866,682,c)
);
},
{
closed = 1;
nodes = (
(1364,852,l),
(1451,804,o),
(1570,726,o),
(1623,671,c),
(1810,887,l),
(1749,943,o),
(1629,1011,o),
(1542,1052,c)
);
},
{
closed = 1;
nodes = (
(1352,476,l),
(1442,420,o),
(1559,336,o),
(1614,276,c),
(1815,501,l),
(1754,557,o),
(1632,633,o),
(1539,682,c)
);
}
);
width = 2504;
},
{
layerId = "B1F27B51-9973-4381-9301-4FE46FE1CA59";
shapes = (
{
closed = 1;
nodes = (
(1049,2185,l),
(905,2120,o),
(642,2045,o),
(416,1995,c),
(424,1979,o),
(437,1957,o),
(441,1944,c),
(672,1992,o),
(936,2066,o),
(1114,2140,c)
);
},
{
closed = 1;
nodes = (
(397,2020,l),
(397,1282,l),
(460,1282,l),
(460,1995,l)
);
},
{
closed = 1;
nodes = (
(397,1298,l),
(397,1226,l),
(2108,1226,l),
(2108,2030,l),
(1362,2030,l),
(1362,1963,l),
(2045,1963,l),
(2045,1298,l)
);
},
{
closed = 1;
nodes = (
(409,1666,l),
(409,1601,l),
(1050,1601,l),
(1050,1666,l)
);
},
{
closed = 1;
nodes = (
(1425,1666,l),
(1425,1601,l),
(2075,1601,l),
(2075,1666,l)
);
},
{
closed = 1;
nodes = (
(458,1109,l),
(458,78,l),
(525,102,l),
(525,1109,l)
);
},
{
closed = 1;
nodes = (
(1178,1100,l),
(1178,61,l),
(1241,82,l),
(1241,1100,l)
);
},
{
closed = 1;
nodes = (
(138,-12,l),
(360,28,o),
(677,82,o),
(985,137,c),
(981,203,l),
(656,147,o),
(334,88,o),
(124,57,c)
);
},
{
closed = 1;
nodes = (
(1008,-12,l),
(1244,35,o),
(1581,98,o),
(1910,159,c),
(1906,223,l),
(1559,160,o),
(1215,94,o),
(992,58,c)
);
},
{
closed = 1;
nodes = (
(1912,1108,l),
(1925,278,o),
(2009,-94,o),
(2225,-95,cs),
(2309,-94,o),
(2353,-50,o),
(2370,156,c),
(2348,164,o),
(2322,176,o),
(2305,188,c),
(2295,4,o),
(2276,-30,o),
(2227,-30,cs),
(2067,-30,o),
(1982,280,o),
(1975,1108,c)
);
},
{
closed = 1;
nodes = (
(668,941,l),
(784,891,o),
(918,805,o),
(981,731,c),
(1023,792,l),
(959,862,o),
(825,943,o),
(708,993,c)
);
},
{
closed = 1;
nodes = (
(633,586,l),
(749,524,o),
(878,425,o),
(939,343,c),
(984,398,l),
(924,473,o),
(794,569,o),
(677,633,c)
);
},
{
closed = 1;
nodes = (
(1421,954,l),
(1538,897,o),
(1672,806,o),
(1738,735,c),
(1781,793,l),
(1714,858,o),
(1578,948,o),
(1461,1003,c)
);
},
{
closed = 1;
nodes = (
(1403,584,l),
(1522,514,o),
(1657,409,o),
(1724,327,c),
(1771,380,l),
(1703,455,o),
(1568,561,o),
(1447,629,c)
);
}
);
width = 2504;
}
);
note = cid47187;
unicode = (12239,40736);
}
{
color = 11;
glyphname = uni2FD1;
layers = (
{
layerId = "CD0E3B44-F66A-4791-B84C-A1128DC61275";
shapes = (
{
closed = 1;
nodes = (
(1582,1651,l),
(1582,1104,l),
(1745,1104,l),
(1745,1612,l)
);
},
{
closed = 1;
nodes = (
(1850,980,l),
(1850,-101,l),
(2044,-101,l),
(2044,980,l)
);
},
{
closed = 1;
nodes = (
(795,1678,l),
(795,1653,ls),
(778,1331,o),
(762,1214,o),
(736,1183,cs),
(722,1166,o),
(705,1164,o),
(676,1163,cs),
(648,1164,o),
(579,1164,o),
(502,1171,c),
(524,1131,o),
(540,1069,o),
(542,1024,c),
(622,1020,o),
(702,1019,o),
(744,1025,cs),
(801,1028,o),
(832,1044,o),
(864,1078,cs),
(912,1130,o),
(929,1267,o),
(949,1610,cs),
(952,1633,o),
(952,1679,o),
(951,1678,c)
);
},
{
closed = 1;
nodes = (
(1477,1014,l),
(1645,1034,o),
(1840,1061,o),
(2042,1090,c),
(2040,1226,l),
(1817,1203,o),
(1612,1181,o),
(1456,1167,c)
);
},
{
closed = 1;
nodes = (
(492,980,l),
(492,700,ls),
(492,483,o),
(457,223,o),
(155,30,c),
(198,-2,o),
(260,-73,o),
(286,-119,c),
(641,106,o),
(687,424,o),
(687,696,cs),
(687,980,l)
);
},
{
closed = 1;
nodes = (
(2139,1768,l),
(2023,1710,o),
(1807,1651,o),
(1622,1614,c),
(1642,1580,o),
(1665,1526,o),
(1673,1495,c),
(1871,1526,o),
(2102,1585,o),
(2268,1655,c)
);
},
{
closed = 1;
nodes = (
(1900,1635,l),
(1962,1342,o),
(2094,1096,o),
(2314,975,c),
(2338,1017,o),
(2387,1076,o),
(2422,1105,c),
(2219,1202,o),
(2090,1411,o),
(2033,1663,c)
);
},
{
closed = 1;
nodes = (
(916,1759,l),
(984,1679,o),
(1056,1569,o),
(1092,1496,c),
(1222,1563,l),
(1191,1634,o),
(1114,1738,o),
(1046,1813,c)
);
},
{
closed = 1;
nodes = (
(1446,1825,l),
(1408,1748,o),
(1340,1628,o),
(1291,1552,c),
(1417,1504,l),
(1472,1573,o),
(1537,1672,o),
(1598,1775,c)
);
},
{
closed = 1;
nodes = (
(184,1678,l),
(184,1536,l),
(848,1536,l),
(848,1678,l)
);
},
{
closed = 1;
nodes = (
(151,1992,l),
(151,1838,l),
(2351,1838,l),
(2351,1992,l)
);
},
{
closed = 1;
nodes = (
(566,825,l),
(566,674,l),
(1949,674,l),
(1949,825,l)
);
},
{
closed = 1;
nodes = (
(548,472,l),
(548,318,l),
(1949,318,l),
(1949,472,l)
);
},
{
closed = 1;
nodes = (
(1148,2217,l),
(1148,1904,l),
(1342,1904,l),
(1342,2217,l)
);
},
{
closed = 1;
nodes = (
(1149,1515,l),
(1149,1008,l),
(1325,1008,l),
(1325,1515,l)
);
},
{
closed = 1;
nodes = (
(417,1631,l),
(392,1388,o),
(319,1190,o),
(90,1077,c),
(127,1056,o),
(174,1001,o),
(194,961,c),
(460,1098,o),
(546,1334,o),
(579,1631,c)
);
}
);
width = 2504;
},
{
layerId = "5C20EF92-B63D-42A8-8878-93C2863E0093";
shapes = (
{
closed = 1;
nodes = (
(1557,1691,l),
(1556.991,1104,l),
(1865,1104,l),
(1865,1633,l)
);
},
{
closed = 1;
nodes = (
(1711,955,l),
(1711,-145,l),
(2101,-145,l),
(2101,955,l)
);
},
{
closed = 1;
nodes = (
(668,1710,l),
(668,1670,ls),
(656,1387,o),
(644,1284,o),
(624,1253,cs),
(606,1236,o),
(587,1234,o),
(562,1233,cs),
(538,1234,o),
(495,1234,o),
(440,1238,c),
(481,1166,o),
(510,1051,o),
(510,969,c),
(599,963,o),
(677,968,o),
(723,976,cs),
(784,985,o),
(824,1009,o),
(864,1057,cs),
(921,1123,o),
(936,1281,o),
(959,1608,cs),
(959,1638,o),
(959,1709,o),
(959,1710,c)
);
},
{
closed = 1;
nodes = (
(1492,961,l),
(1663,983,o),
(1859,1011,o),
(2042,1037,c),
(2040,1283,l),
(1817,1266,o),
(1612,1251,o),
(1456,1234,c)
);
},
{
closed = 1;
nodes = (
(467,955,l),
(467,705,ls),
(467,536,o),
(427,301,o),
(120,149,c),
(203,81,o),
(330,-73,o),
(377,-168,c),
(800,58,o),
(862,418,o),
(862,694,cs),
(862,955,l)
);
},
{
closed = 1;
nodes = (
(2131,1789,l),
(2009,1731,o),
(1807,1673,o),
(1627,1639,c),
(1661,1580,o),
(1700,1477,o),
(1715,1419,c),
(1920,1449,o),
(2165,1503,o),
(2355,1581,c)
);
},
{
closed = 1;
nodes = (
(1877,1627,l),
(1943,1325,o),
(2064,1056,o),
(2280,926,c),
(2321,1003,o),
(2418,1119,o),
(2477,1175,c),
(2297,1268,o),
(2178,1460,o),
(2125,1676,c)
);
},
{
closed = 1;
nodes = (
(866,1742,l),
(920,1658,o),
(974,1542,o),
(1001,1464,c),
(1254,1573,l),
(1229,1642,o),
(1165,1751,o),
(1108,1830,c)
);
},
{
closed = 1;
nodes = (
(1387,1844,l),
(1359,1762,o),
(1309,1637,o),
(1274,1557,c),
(1514,1483,l),
(1560,1551,o),
(1615,1651,o),
(1676,1762,c)
);
},
{
closed = 1;
nodes = (
(152,1710,l),
(152,1452,l),
(766,1452,l),
(766,1710,l)
);
},
{
closed = 1;
nodes = (
(113,2076,l),
(113,1785,l),
(2391,1785,l),
(2391,2076,l)
);
},
{
closed = 1;
nodes = (
(596,842,l),
(596,560,l),
(1909,560,l),
(1909,842,l)
);
},
{
closed = 1;
nodes = (
(603,495,l),
(603,211,l),
(1909,211,l),
(1909,495,l)
);
},
{
closed = 1;
nodes = (
(1043,2255,l),
(1043,1934,l),
(1431,1934,l),
(1431,2255,l)
);
},
{
closed = 1;
nodes = (
(1057,1502,l),
(1057,983,l),
(1399,983,l),
(1399,1502,l)
);
},
{
closed = 1;
nodes = (
(288,1639,l),
(276,1411,o),
(248,1239,o),
(33,1126,c),
(101,1078,o),
(183,970,o),
(215,896,c),
(511,1055,o),
(567,1311,o),
(589,1639,c)
);
}
);
width = 2504;
},
{
layerId = "B1F27B51-9973-4381-9301-4FE46FE1CA59";
shapes = (
{
closed = 1;
nodes = (
(1595,1627,l),
(1595,1104,l),
(1663,1104,l),
(1663,1597,l)
);
},
{
closed = 1;
nodes = (
(1942,997,l),
(1942,-73,l),
(2007,-73,l),
(2007,997,l)
);
},
{
closed = 1;
nodes = (
(877,1659,l),
(877,1641,ls),
(861,1294,o),
(839,1169,o),
(813,1138,cs),
(799,1121,o),
(782,1118,o),
(749,1118,cs),
(719,1118,o),
(632,1118,o),
(542,1128,c),
(553,1110,o),
(560,1081,o),
(563,1061,c),
(637,1058,o),
(719,1055,o),
(759,1057,cs),
(811,1057,o),
(839,1065,o),
(864,1093,cs),
(905,1137,o),
(923,1258,o),
(944,1612,cs),
(946,1630,o),
(946,1658,o),
(946,1659,c)
);
},
{
closed = 1;
nodes = (
(1468,1049,l),
(1633,1070,o),
(1828,1098,o),
(2042,1125,c),
(2040,1189,l),
(1817,1164,o),
(1612,1136,o),
(1456,1120,c)
);
},
{
closed = 1;
nodes = (
(509,997,l),
(509,698,ls),
(509,448,o),
(477,171,o),
(177,-45,c),
(195,-56,o),
(215,-73,o),
(226,-89,c),
(537,138,o),
(572,426,o),
(572,698,cs),
(572,997,l)
);
},
{
closed = 1;
nodes = (
(2146,1755,l),
(2031,1697,o),
(1807,1636,o),
(1620,1597,c),
(1630,1580,o),
(1643,1557,o),
(1647,1544,c),
(1839,1579,o),
(2063,1639,o),
(2210,1704,c)
);
},
{
closed = 1;
nodes = (
(1913,1640,l),
(1974,1352,o),
(2114,1121,o),
(2337,1007,c),
(2348,1025,o),
(2367,1047,o),
(2385,1058,c),
(2167,1159,o),
(2032,1379,o),
(1974,1654,c)
);
},
{
closed = 1;
nodes = (
(953,1771,l),
(1027,1693,o),
(1111,1585,o),
(1152,1517,c),
(1203,1556,l),
(1165,1627,o),
(1078,1729,o),
(1006,1802,c)
);
},
{
closed = 1;
nodes = (
(1483,1814,l),
(1439,1739,o),
(1362,1621,o),
(1303,1550,c),
(1354,1517,l),
(1415,1588,o),
(1485,1685,o),
(1546,1782,c)
);
},
{
closed = 1;
nodes = (
(205,1659,l),
(205,1590,l),
(904,1590,l),
(904,1659,l)
);
},
{
closed = 1;
nodes = (
(177,1938,l),
(177,1875,l),
(2327,1875,l),
(2327,1938,l)
);
},
{
closed = 1;
nodes = (
(547,816,l),
(547,749,l),
(1973,749,l),
(1973,816,l)
);
},
{
closed = 1;
nodes = (
(510,457,l),
(510,391,l),
(1973,391,l),
(1973,457,l)
);
},
{
closed = 1;
nodes = (
(1217,2191,l),
(1217,1883,l),
(1282,1883,l),
(1282,2191,l)
);
},
{
closed = 1;
nodes = (
(1208,1522,l),
(1208,1025,l),
(1276,1025,l),
(1276,1522,l)
);
},
{
closed = 1;
nodes = (
(503,1624,l),
(469,1374,o),
(364,1159,o),
(128,1047,c),
(144,1041,o),
(167,1020,o),
(179,1004,c),
(424,1127,o),
(533,1348,o),
(572,1624,c)
);
}
);
width = 2504;
}
);
note = cid47285;
unicode = (12241,40778);
}
{
color = 11;
glyphname = uni2FD3;
layers = (
{
layerId = "CD0E3B44-F66A-4791-B84C-A1128DC61275";
shapes = (
{
closed = 1;
nodes = (
(584,2211,l),
(584,1902,l),
(774,1902,l),
(774,2211,l)
);
},
{
closed = 1;
nodes = (
(149,1997,l),
(149,1828,l),
(1214,1828,l),
(1214,1997,l)
);
},
{
closed = 1;
nodes = (
(104,1478,l),
(104,1312,l),
(1259,1312,l),
(1259,1478,l)
);
},
{
closed = 1;
nodes = (
(319,835,l),
(319,699,l),
(1047,699,l),
(1047,835,l)
);
},
{
closed = 1;
nodes = (
(319,519,l),
(319,384,l),
(1047,384,l),
(1047,519,l)
);
},
{
closed = 1;
nodes = (
(300,1791,l),
(342,1690,o),
(382,1556,o),
(394,1469,c),
(557,1512,l),
(542,1596,o),
(500,1729,o),
(457,1829,c)
);
},
{
closed = 1;
nodes = (
(910,1835,l),
(887,1741,o),
(840,1602,o),
(800,1512,c),
(951,1469,l),
(991,1556,o),
(1037,1675,o),
(1085,1791,c)
);
},
{
closed = 1;
nodes = (
(241,1152,l),
(241,-89,l),
(425,-89,l),
(425,1007,l),
(1055,1007,l),
(1055,1152,l)
);
},
{
closed = 1;
nodes = (
(953,1152,l),
(953,120,ls),
(953,89,o),
(944,81,o),
(913,83,cs),
(883,80,o),
(791,80,o),
(687,85,c),
(710,35,o),
(742,-40,o),
(753,-91,c),
(892,-91,o),
(993,-88,o),
(1062,-61,cs),
(1125,-30,o),
(1144,23,o),
(1143,116,cs),
(1143,1152,l)
);
},
{
closed = 1;
nodes = (
(1459,2017,l),
(1459,1854,l),
(2374,1854,l),
(2374,2017,l)
);
},
{
closed = 1;
nodes = (
(1460,976,l),
(1460,847,l),
(2275,847,l),
(2275,976,l)
);
},
{
closed = 1;
nodes = (
(1468,698,l),
(1468,571,l),
(2261,571,l),
(2261,698,l)
);
},
{
closed = 1;
nodes = (
(1452,413,l),
(1452,289,l),
(2287,289,l),
(2287,413,l)
);
},
{
closed = 1;
nodes = (
(1382,2211,l),
(1382,1560,l),
(1572,1560,l),
(1572,2211,l)
);
},
{
closed = 1;
nodes = (
(1382,1655,l),
(1382,1499,l),
(2087,1499,l),
(2087,1278,l),
(1382,1278,l),
(1382,1127,l),
(2276,1127,l),
(2276,1655,l)
);
},
{
closed = 1;
nodes = (
(1382,1196,l),
(1382,184,ls),
(1383,-30,o),
(1454,-78,o),
(1692,-79,cs),
(1745,-78,o),
(2100,-78,o),
(2150,-79,cs),
(2345,-78,o),
(2399,-10,o),
(2421,218,c),
(2368,232,o),
(2293,257,o),
(2252,288,c),
(2242,119,o),
(2224,83,o),
(2136,83,cs),
(2062,83,o),
(1768,83,o),
(1713,83,cs),
(1591,83,o),
(1572,101,o),
(1572,185,cs),
(1572,1196,l)
);
}
);
width = 2504;
},
{
layerId = "5C20EF92-B63D-42A8-8878-93C2863E0093";
shapes = (
{
closed = 1;
nodes = (
(472,2255,l),
(472,1925,l),
(852,1925,l),
(852,2255,l)
);
},
{
closed = 1;
nodes = (
(105,2096,l),
(105,1771,l),
(1214,1771,l),
(1214,2096,l)
);
},
{
closed = 1;
nodes = (
(70,1597,l),
(70,1278,l),
(1251,1278,l),
(1251,1597,l)
);
},
{
closed = 1;
nodes = (
(306,875,l),
(306,632,l),
(998,632,l),
(998,875,l)
);
},
{
closed = 1;
nodes = (
(306,568,l),
(306,327,l),
(998,327,l),
(998,568,l)
);
},
{
closed = 1;
nodes = (
(220,1772,l),
(247,1690,o),
(269,1581,o),
(280,1514,c),
(592,1596,l),
(583,1656,o),
(551,1760,o),
(529,1837,c)
);
},
{
closed = 1;
nodes = (
(778,1845,l),
(771,1771,o),
(749,1672,o),
(722,1601,c),
(1018,1532,l),
(1042,1595,o),
(1077,1675,o),
(1125,1772,c)
);
},
{
closed = 1;
nodes = (
(176,1205,l),
(176,-127,l),
(545,-127,l),
(545,942,l),
(1015,942,l),
(1015,1205,l)
);
},
{
closed = 1;
nodes = (
(801,1205,l),
(801,239,ls),
(801,207,o),
(788,200,o),
(761,203,cs),
(734,201,o),
(652,201,o),
(594,205,c),
(635,118,o),
(693,-26,o),
(713,-131,c),
(849,-131,o),
(962,-122,o),
(1062,-69,cs),
(1156,-11,o),
(1182,74,o),
(1183,230,cs),
(1183,1205,l)
);
},
{
closed = 1;
nodes = (
(1472,2110,l),
(1472,1797,l),
(2395,1797,l),
(2395,2110,l)
);
},
{
closed = 1;
nodes = (
(1467,1029,l),
(1467,807,l),
(2310,807,l),
(2310,1029,l)
);
},
{
closed = 1;
nodes = (
(1493,751,l),
(1493,536,l),
(2301,536,l),
(2301,751,l)
);
},
{
closed = 1;
nodes = (
(1447,483,l),
(1447,272,l),
(2325,272,l),
(2325,483,l)
);
},
{
closed = 1;
nodes = (
(1325,2251,l),
(1325,1526,l),
(1707,1526,l),
(1707,2251,l)
);
},
{
closed = 1;
nodes = (
(1325,1718,l),
(1325,1429,l),
(1931,1429,l),
(1931,1362,l),
(1325,1362,l),
(1325,1082,l),
(2308,1082,l),
(2308,1718,l)
);
},
{
closed = 1;
nodes = (
(1325,1226,l),
(1325,303,ls),
(1325,-30,o),
(1429,-118,o),
(1745,-117,cs),
(1825,-118,o),
(2001,-118,o),
(2068,-117,cs),
(2329,-118,o),
(2424,-26,o),
(2465,245,c),
(2360,271,o),
(2215,320,o),
(2138,377,c),
(2124,230,o),
(2105,188,o),
(2031,187,cs),
(1984,188,o),
(1850,188,o),
(1815,187,cs),
(1723,188,o),
(1708,201,o),
(1707,307,cs),
(1707,1226,l)
);
}
);
width = 2504;
},
{
layerId = "B1F27B51-9973-4381-9301-4FE46FE1CA59";
shapes = (
{
closed = 1;
nodes = (
(659,2183,l),
(659,1887,l),
(722,1887,l),
(722,2183,l)
);
},
{
closed = 1;
nodes = (
(177,1931,l),
(177,1865,l),
(1214,1865,l),
(1214,1931,l)
);
},
{
closed = 1;
nodes = (
(127,1401,l),
(127,1333,l),
(1264,1333,l),
(1264,1401,l)
);
},
{
closed = 1;
nodes = (
(326,811,l),
(326,742,l),
(1079,742,l),
(1079,811,l)
);
},
{
closed = 1;
nodes = (
(326,489,l),
(326,421,l),
(1079,421,l),
(1079,489,l)
);
},
{
closed = 1;
nodes = (
(352,1805,l),
(406,1690,o),
(456,1539,o),
(469,1439,c),
(533,1458,l),
(515,1558,o),
(465,1708,o),
(412,1822,c)
);
},
{
closed = 1;
nodes = (
(997,1828,l),
(964,1721,o),
(902,1557,o),
(852,1454,c),
(908,1430,l),
(955,1531,o),
(1012,1675,o),
(1059,1802,c)
);
},
{
closed = 1;
nodes = (
(282,1117,l),
(282,-63,l),
(345,-63,l),
(345,1050,l),
(1081,1050,l),
(1081,1117,l)
);
},
{
closed = 1;
nodes = (
(1054,1117,l),
(1054,41,ls),
(1054,12,o),
(1047,5,o),
(1012,1,cs),
(982,-2,o),
(883,-2,o),
(748,3,c),
(760,-19,o),
(773,-48,o),
(779,-65,c),
(921,-66,o),
(1013,-66,o),
(1062,-54,cs),
(1105,-42,o),
(1118,-13,o),
(1117,41,cs),
(1117,1117,l)
);
},
{
closed = 1;
nodes = (
(1452,1956,l),
(1452,1891,l),
(2359,1891,l),
(2359,1956,l)
);
},
{
closed = 1;
nodes = (
(1454,941,l),
(1454,873,l),
(2251,873,l),
(2251,941,l)
);
},
{
closed = 1;
nodes = (
(1451,663,l),
(1451,593,l),
(2235,593,l),
(2235,663,l)
);
},
{
closed = 1;
nodes = (
(1454,368,l),
(1454,300,l),
(2261,300,l),
(2261,368,l)
);
},
{
closed = 1;
nodes = (
(1419,2187,l),
(1419,1581,l),
(1482,1581,l),
(1482,2187,l)
);
},
{
closed = 1;
nodes = (
(1419,1616,l),
(1419,1544,l),
(2190,1544,l),
(2190,1226,l),
(1419,1226,l),
(1419,1159,l),
(2257,1159,l),
(2257,1616,l)
);
},
{
closed = 1;
nodes = (
(1419,1175,l),
(1419,107,ls),
(1420,-30,o),
(1471,-53,o),
(1655,-53,cs),
(1693,-53,o),
(2165,-53,o),
(2204,-53,cs),
(2357,-53,o),
(2383,1,o),
(2393,203,c),
(2373,206,o),
(2344,218,o),
(2327,232,c),
(2319,47,o),
(2302,16,o),
(2205,15,cs),
(2114,16,o),
(1713,16,o),
(1647,15,cs),
(1504,16,o),
(1483,36,o),
(1482,105,cs),
(1482,1175,l)
);
}
);
width = 2504;
}
);
note = cid47443;
unicode = (12243,40845,63940);
}
{
color = 11;
glyphname = uni9F9C.uv024;
layers = (
{
layerId = "CD0E3B44-F66A-4791-B84C-A1128DC61275";
shapes = (
{
closed = 1;
nodes = (
(758,2219,l),
(636,2034,o),
(404,1813,o),
(93,1653,c),
(132,1629,o),
(188,1574,o),
(213,1539,c),
(542,1721,o),
(779,1955,o),
(940,2180,c)
);
},
{
closed = 1;
nodes = (
(764,2087,l),
(658,1953,l),
(1468,1953,l),
(1468,2087,l)
);
},
{
closed = 1;
nodes = (
(1340,1769,l),
(1340,128,l),
(1509,128,l),
(1509,1769,l)
);
},
{
closed = 1;
nodes = (
(399,1796,l),
(399,1347,l),
(1017,1347,l),
(1017,1478,l),
(575,1478,l),
(575,1796,l)
);
},
{
closed = 1;
nodes = (
(509,1796,l),
(509,1667,l),
(1947,1667,l),
(1947,1474,l),
(1425,1474,l),
(1425,1346,l),
(2124,1346,l),
(2124,1796,l)
);
},
{
closed = 1;
nodes = (
(969,1771,l),
(969,245,ls),
(968,-1,o),
(1055,-64,o),
(1362,-64,cs),
(1429,-64,o),
(1989,-64,o),
(2060,-64,cs),
(2321,-64,o),
(2374,19,o),
(2403,284,c),
(2353,294,o),
(2285,319,o),
(2245,346,c),
(2229,126,o),
(2198,80,o),
(2054,80,cs),
(1938,80,o),
(1453,80,o),
(1364,80,cs),
(1173,80,o),
(1138,109,o),
(1139,243,cs),
(1139,1771,l)
);
},
{
closed = 1;
nodes = (
(1429,1203,l),
(1429,1070,l),
(2077,1070,l),
(2077,382,l),
(1432,382,l),
(1432,247,l),
(2237,247,l),
(2237,1203,l)
);
},
{
closed = 1;
nodes = (
(289,1261,l),
(289,1160,l),
(698,1160,l),
(698,839,l),
(283,839,l),
(283,740,l),
(842,740,l),
(842,1261,l)
);
},
{
closed = 1;
nodes = (
(289,644,l),
(289,545,l),
(692,545,l),
(692,191,l),
(283,191,l),
(283,93,l),
(837,93,l),
(837,644,l)
);
},
{
closed = 1;
nodes = (
(1874,1021,l),
(1802,832,o),
(1684,651,o),
(1548,524,c),
(1578,504,o),
(1628,466,o),
(1648,447,c),
(1784,579,o),
(1915,786,o),
(1994,990,c)
);
},
{
closed = 1;
nodes = (
(1545,876,l),
(1698,769,o),
(1876,617,o),
(1954,502,c),
(2036,595,l),
(1955,704,o),
(1778,852,o),
(1621,955,c)
);
},
{
closed = 1;
nodes = (
(168,1059,l),
(168,946,l),
(746,946,l),
(746,1059,l)
);
},
{
closed = 1;
nodes = (
(757,1072,l),
(757,931,l),
(1425,931,l),
(1425,1072,l)
);
},
{
closed = 1;
nodes = (
(167,430,l),
(167,320,l),
(745,320,l),
(745,430,l)
);
},
{
closed = 1;
nodes = (
(754,444,l),
(754,304,l),
(1430,304,l),
(1430,444,l)
);
},
{
closed = 1;
nodes = (
(1405,2087,l),
(1405,2053,l),
(1363,1966,o),
(1274,1841,o),
(1192,1765,c),
(1231,1745,o),
(1287,1708,o),
(1316,1682,c),
(1409,1760,o),
(1522,1891,o),
(1598,2009,c),
(1473,2095,l),
(1448,2087,l)
);
}
);
width = 2504;
},
{
layerId = "5C20EF92-B63D-42A8-8878-93C2863E0093";
shapes = (
{
closed = 1;
nodes = (
(678,2259,l),
(561,2097,o),
(355,1917,o),
(78,1784,c),
(154,1734,o),
(262,1622,o),
(308,1547,c),
(619,1729,o),
(845,1937,o),
(1027,2180,c)
);
},
{
closed = 1;
nodes = (
(785,2127,l),
(603,1890,l),
(1409,1890,l),
(1409,2127,l)
);
},
{
closed = 1;
nodes = (
(1278,1777,l),
(1278,183,l),
(1611,183,l),
(1611,1777,l)
);
},
{
closed = 1;
nodes = (
(350,1819,l),
(350,1312,l),
(952,1312,l),
(952,1533,l),
(697,1533,l),
(697,1819,l)
);
},
{
closed = 1;
nodes = (
(576,1819,l),
(576,1602,l),
(1786,1602,l),
(1786,1533,l),
(1444,1533,l),
(1444,1316,l),
(2129,1316,l),
(2129,1819,l)
);
},
{
closed = 1;
nodes = (
(870,1781,l),
(870,315,ls),
(869,-24,o),
(978,-122,o),
(1387,-121,cs),
(1478,-122,o),
(1884,-122,o),
(1976,-121,cs),
(2308,-122,o),
(2395,-38,o),
(2443,234,c),
(2347,251,o),
(2221,296,o),
(2150,339,c),
(2128,166,o),
(2088,136,o),
(1947,135,cs),
(1850,136,o),
(1497,136,o),
(1414,135,cs),
(1230,136,o),
(1201,158,o),
(1202,310,cs),
(1202,1781,l)
);
},
{
closed = 1;
nodes = (
(1437,1252,l),
(1437,1017,l),
(1978,1017,l),
(1978,496,l),
(1437,496,l),
(1437,262,l),
(2282,262,l),
(2282,1252,l)
);
},
{
closed = 1;
nodes = (
(224,1253,l),
(224,1107,l),
(527,1107,l),
(527,854,l),
(209,854,l),
(209,710,l),
(789,710,l),
(789,1253,l)
);
},
{
closed = 1;
nodes = (
(224,644,l),
(224,505,l),
(527,505,l),
(527,240,l),
(209,240,l),
(209,103,l),
(788,103,l),
(788,644,l)
);
},
{
closed = 1;
nodes = (
(1769,1013,l),
(1733,867,o),
(1671,722,o),
(1580,615,c),
(1625,582,o),
(1707,516,o),
(1739,485,c),
(1837,600,o),
(1917,792,o),
(1964,963,c)
);
},
{
closed = 1;
nodes = (
(1555,817,l),
(1676,738,o),
(1827,626,o),
(1895,534,c),
(2013,694,l),
(1946,778,o),
(1792,886,o),
(1665,965,c)
);
},
{
closed = 1;
nodes = (
(115,1067,l),
(115,896,l),
(611,896,l),
(611,1067,l)
);
},
{
closed = 1;
nodes = (
(635,1106,l),
(635,854,l),
(1433,854,l),
(1433,1106,l)
);
},
{
closed = 1;
nodes = (
(118,460,l),
(118,293,l),
(614,293,l),
(614,460,l)
);
},
{
closed = 1;
nodes = (
(635,501,l),
(635,251,l),
(1435,251,l),
(1435,501,l)
);
},
{
closed = 1;
nodes = (
(1306,2127,l),
(1306,2066,l),
(1263,1990,o),
(1170,1862,o),
(1082,1782,c),
(1154,1739,o),
(1252,1667,o),
(1311,1620,c),
(1426,1709,o),
(1573,1852,o),
(1676,1969,c),
(1435,2140,l),
(1386,2127,l)
);
}
);
width = 2504;
},
{
layerId = "B1F27B51-9973-4381-9301-4FE46FE1CA59";
shapes = (
{
closed = 1;
nodes = (
(810,2195,l),
(685,1995,o),
(435,1745,o),
(102,1567,c),
(117,1560,o),
(138,1542,o),
(150,1532,c),
(490,1714,o),
(735,1967,o),
(880,2180,c)
);
},
{
closed = 1;
nodes = (
(751,2061,l),
(696,1992,l),
(1506,1992,l),
(1506,2061,l)
);
},
{
closed = 1;
nodes = (
(1380,1762,l),
(1380,91,l),
(1445,91,l),
(1445,1762,l)
);
},
{
closed = 1;
nodes = (
(431,1781,l),
(431,1371,l),
(1060,1371,l),
(1060,1440,l),
(495,1440,l),
(495,1781,l)
);
},
{
closed = 1;
nodes = (
(462,1781,l),
(462,1710,l),
(2052,1710,l),
(2052,1436,l),
(1413,1436,l),
(1413,1365,l),
(2120,1365,l),
(2120,1781,l)
);
},
{
closed = 1;
nodes = (
(1033,1764,l),
(1033,200,ls),
(1033,13,o),
(1108,-26,o),
(1343,-27,cs),
(1397,-26,o),
(2058,-26,o),
(2114,-27,cs),
(2329,-26,o),
(2359,56,o),
(2379,319,c),
(2356,323,o),
(2329,334,o),
(2308,348,c),
(2296,101,o),
(2272,42,o),
(2125,43,cs),
(1995,42,o),
(1425,42,o),
(1329,43,cs),
(1136,42,o),
(1099,78,o),
(1100,198,cs),
(1100,1764,l)
);
},
{
closed = 1;
nodes = (
(1420,1171,l),
(1420,1105,l),
(2143,1105,l),
(2143,307,l),
(1430,307,l),
(1430,240,l),
(2207,240,l),
(2207,1171,l)
);
},
{
closed = 1;
nodes = (
(330,1268,l),
(330,1195,l),
(810,1195,l),
(810,830,l),
(332,830,l),
(332,761,l),
(877,761,l),
(877,1268,l)
);
},
{
closed = 1;
nodes = (
(330,644,l),
(330,571,l),
(802,571,l),
(802,161,l),
(332,161,l),
(332,88,l),
(869,88,l),
(869,644,l)
);
},
{
closed = 1;
nodes = (
(1943,1028,l),
(1848,810,o),
(1694,606,o),
(1527,464,c),
(1547,453,o),
(1575,429,o),
(1586,423,c),
(1749,565,o),
(1913,783,o),
(2013,1007,c)
);
},
{
closed = 1;
nodes = (
(1538,913,l),
(1713,791,o),
(1908,610,o),
(1992,481,c),
(2051,529,l),
(1961,654,o),
(1768,830,o),
(1593,948,c)
);
},
{
closed = 1;
nodes = (
(203,1050,l),
(203,983,l),
(836,983,l),
(836,1050,l)
);
},
{
closed = 1;
nodes = (
(837,1049,l),
(837,984,l),
(1418,984,l),
(1418,1049,l)
);
},
{
closed = 1;
nodes = (
(199,409,l),
(199,337,l),
(831,337,l),
(831,409,l)
);
},
{
closed = 1;
nodes = (
(833,407,l),
(833,339,l),
(1428,339,l),
(1428,407,l)
);
},
{
closed = 1;
nodes = (
(1471,2061,l),
(1471,2044,l),
(1429,1952,o),
(1341,1827,o),
(1265,1754,c),
(1283,1748,o),
(1308,1736,o),
(1320,1722,c),
(1399,1796,o),
(1486,1916,o),
(1546,2035,c),
(1499,2065,l),
(1486,2061,l)
);
}
);
width = 2504;
}
);
note = cid47476;
unicode = 12244;
}
{
color = 11;
glyphname = "a-hira";
layers = (
{
layerId = "CD0E3B44-F66A-4791-B84C-A1128DC61275";
shapes = (
{
closed = 1;
nodes = (
(1087,333,l),
(1087,1266,l),
(1088,1266,l),
(1088,2147,l),
(885,2147,l),
(885,1266,l),
(887,1266,l),
(887,333,l)
);
},
{
closed = 1;
nodes = (
(2248,1663,l),
(2248,1838,l),
(256,1838,l),
(256,1663,l)
);
},
{
closed = 1;
nodes = (
(1556,-3,l),
(1974,58,o),
(2268,363,o),
(2267,730,cs),
(2268,1159,o),
(1900,1421,o),
(1302,1421,cs),
(697,1421,o),
(237,1042,o),
(237,537,cs),
(237,264,o),
(372,79,o),
(579,79,cs),
(907,79,o),
(1502,569,o),
(1907,1162,c),
(1745,1267,l),
(1407,771,o),
(833,272,o),
(607,272,cs),
(507,275,o),
(441,381,o),
(441,542,cs),
(441,940,o),
(828,1245,o),
(1333,1245,cs),
(1779,1245,o),
(2057,1045,o),
(2057,731,cs),
(2057,451,o),
(1834,229,o),
(1496,179,c)
);
}
);
width = 2504;
},
{
layerId = "5C20EF92-B63D-42A8-8878-93C2863E0093";
shapes = (
{
closed = 1;
nodes = (
(1236,259,l),
(1236,1134,l),
(1254,1132,l),
(1254,2164,l),
(793,2164,l),
(793,1132,l),
(813,1134,l),
(813,259,l)
);
},
{
closed = 1;
nodes = (
(2280,1532,l),
(2280,1920,l),
(224,1920,l),
(224,1535,l)
);
},
{
closed = 1;
nodes = (
(1642,-75,l),
(2051,10,o),
(2331,328,o),
(2332,709,cs),
(2331,1177,o),
(1963,1438,o),
(1302,1438,cs),
(638,1438,o),
(172,1060,o),
(172,522,cs),
(172,185,o),
(356,-18,o),
(655,-18,cs),
(1063,-18,o),
(1545,341,o),
(1977,969,c),
(1653,1198,l),
(1308,718,o),
(929,381,o),
(735,382,cs),
(656,380,o),
(623,432,o),
(624,540,cs),
(623,863,o),
(915,1066,o),
(1382,1066,cs),
(1688,1066,o),
(1870,933,o),
(1871,714,cs),
(1870,513,o),
(1727,366,o),
(1463,299,c)
);
}
);
width = 2504;
},
{
layerId = "B1F27B51-9973-4381-9301-4FE46FE1CA59";
shapes = (
{
closed = 1;
nodes = (
(997,372,l),
(997,1339,l),
(997,1339,l),
(997,2140,l),
(934,2140,l),
(934,1339,l),
(934,1339,l),
(934,372,l)
);
},
{
closed = 1;
nodes = (
(2229,1731,l),
(2229,1794,l),
(275,1794,l),
(275,1731,l)
);
},
{
closed = 1;
nodes = (
(1508,35,l),
(1930,85,o),
(2231,381,o),
(2231,742,cs),
(2231,1148,o),
(1863,1413,o),
(1302,1414,cs),
(727,1413,o),
(272,1029,o),
(271,542,cs),
(272,305,o),
(381,135,o),
(538,136,cs),
(815,132,o),
(1481,707,o),
(1850,1264,c),
(1798,1303,l),
(1446,768,o),
(790,194,o),
(541,197,cs),
(421,200,o),
(337,342,o),
(336,542,cs),
(337,993,o),
(765,1352,o),
(1305,1352,cs),
(1830,1352,o),
(2166,1110,o),
(2166,742,cs),
(2166,412,o),
(1891,142,o),
(1500,97,c)
);
}
);
width = 2504;
}
);
unicode = 12354;
}
{
color = 11;
glyphname = "ismall-hira";
layers = (
{
layerId = "CD0E3B44-F66A-4791-B84C-A1128DC61275";
shapes = (
{
closed = 1;
nodes = (
(1123,67,o),
(1405,360,o),
(1529,719,c),
(1339,805,l),
(1248,542,o),
(1035,284,o),
(910,284,cs),
(782,284,o),
(650,593,o),
(650,916,cs),
(650,1090,o),
(683,1299,o),
(741,1499,c),
(540,1533,l),
(475,1310,o),
(440,1086,o),
(441,898,cs),
(440,438,o),
(643,67,o),
(901,67,cs)
);
},
{
closed = 1;
nodes = (
(2120,258,l),
(2119,744,o),
(2018,1218,o),
(1834,1561,c),
(1645,1499,l),
(1813,1171,o),
(1912,711,o),
(1913,258,c)
);
}
);
width = 2504;
},
{
layerId = "5C20EF92-B63D-42A8-8878-93C2863E0093";
shapes = (
{
closed = 1;
nodes = (
(1158,1,o),
(1458,268,o),
(1603,648,c),
(1208,854,l),
(1126,665,o),
(977,473,o),
(917,473,cs),
(872,473,o),
(822,675,o),
(823,921,cs),
(822,1096,o),
(850,1273,o),
(920,1511,c),
(483,1568,l),
(408,1294,o),
(373,1083,o),
(374,875,cs),
(373,337,o),
(569,1,o),
(882,0,cs)
);
},
{
closed = 1;
nodes = (
(2181,201,l),
(2180,731,o),
(2092,1207,o),
(1914,1610,c),
(1498,1484,l),
(1650,1111,o),
(1733,650,o),
(1732,201,c)
);
}
);
width = 2504;
},
{
layerId = "B1F27B51-9973-4381-9301-4FE46FE1CA59";
shapes = (
{
closed = 1;
nodes = (
(1105,101,o),
(1378,410,o),
(1486,753,c),
(1427,777,l),
(1324,460,o),
(1073,167,o),
(910,167,cs),
(728,167,o),
(542,532,o),
(542,912,cs),
(542,1086,o),
(575,1311,o),
(630,1496,c),
(567,1515,l),
(513,1318,o),
(478,1088,o),
(477,911,cs),
(478,490,o),
(682,101,o),
(910,101,cs)
);
},
{
closed = 1;
nodes = (
(2087,287,l),
(2087,753,o),
(1977,1223,o),
(1792,1539,c),
(1735,1510,l),
(1914,1205,o),
(2021,744,o),
(2020,287,c)
);
}
);
width = 2504;
}
);
unicode = 12355;
}
{
color = 11;
glyphname = "i-hira";
layers = (
{
layerId = "CD0E3B44-F66A-4791-B84C-A1128DC61275";
shapes = (
{
closed = 1;
nodes = (
(1092,76,o),
(1444,444,o),
(1597,888,c),
(1403,984,l),
(1282,630,o),
(1004,305,o),
(827,305,cs),
(634,305,o),
(455,693,o),
(454,1138,cs),
(455,1357,o),
(497,1619,o),
(573,1883,c),
(361,1909,l),
(280,1630,o),
(236,1350,o),
(238,1120,cs),
(236,538,o),
(491,76,o),
(810,76,cs)
);
},
{
closed = 1;
nodes = (
(2336,315,l),
(2337,927,o),
(2209,1515,o),
(1979,1948,c),
(1781,1885,l),
(1994,1468,o),
(2121,888,o),
(2122,315,c)
);
}
);
width = 2504;
},
{
layerId = "5C20EF92-B63D-42A8-8878-93C2863E0093";
shapes = (
{
closed = 1;
nodes = (
(1136,-4,o),
(1510,330,o),
(1691,802,c),
(1256,1034,l),
(1139,763,o),
(941,521,o),
(835,520,cs),
(725,521,o),
(649,775,o),
(649,1145,cs),
(649,1373,o),
(686,1598,o),
(776,1902,c),
(292,1953,l),
(197,1611,o),
(155,1349,o),
(156,1086,cs),
(155,417,o),
(399,-4,o),
(789,-4,cs)
);
},
{
closed = 1;
nodes = (
(2415,248,l),
(2414,909,o),
(2299,1501,o),
(2078,2003,c),
(1621,1875,l),
(1813,1398,o),
(1919,814,o),
(1920,248,c)
);
}
);
width = 2504;
},
{
layerId = "B1F27B51-9973-4381-9301-4FE46FE1CA59";
shapes = (
{
closed = 1;
nodes = (
(1070,119,o),
(1408,505,o),
(1544,936,c),
(1481,959,l),
(1356,558,o),
(1038,187,o),
(824,187,cs),
(583,187,o),
(350,650,o),
(350,1136,cs),
(350,1349,o),
(392,1632,o),
(462,1869,c),
(397,1887,l),
(326,1641,o),
(284,1353,o),
(284,1135,cs),
(284,604,o),
(541,119,o),
(823,120,cs)
);
},
{
closed = 1;
nodes = (
(2296,351,l),
(2295,935,o),
(2158,1524,o),
(1928,1917,c),
(1869,1888,l),
(2091,1505,o),
(2229,927,o),
(2230,351,c)
);
}
);
width = 2504;
}
);
unicode = 12356;
}
{
color = 11;
glyphname = "usmall-hira";
layers = (
{
layerId = "CD0E3B44-F66A-4791-B84C-A1128DC61275";
shapes = (
{
closed = 1;
nodes = (
(788,12,l),
(1541,29,o),
(2024,305,o),
(2024,719,cs),
(2024,996,o),
(1803,1137,o),
(1371,1137,cs),
(1129,1137,o),
(811,1091,o),
(441,1009,c),
(489,817,l),
(900,906,o),
(1162,944,o),
(1365,944,cs),
(1664,944,o),
(1805,867,o),
(1805,707,cs),
(1805,431,o),
(1385,226,o),
(754,203,c)
);
},
{
closed = 1;
nodes = (
(1720,1580,l),
(1435,1580,o),
(1048,1610,o),
(754,1653,c),
(729,1453,l),
(1060,1411,o),
(1449,1384,o),
(1720,1384,c)
);
}
);
width = 2504;
},
{
layerId = "5C20EF92-B63D-42A8-8878-93C2863E0093";
shapes = (
{
closed = 1;
nodes = (
(768,-47,l),
(1597,-19,o),
(2074,256,o),
(2074,702,cs),
(2074,1007,o),
(1851,1155,o),
(1388,1156,cs),
(1135,1155,o),
(788,1110,o),
(365,1017,c),
(474,604,l),
(992,717,o),
(1204,751,o),
(1382,752,cs),
(1544,751,o),
(1600,723,o),
(1599,667,cs),
(1600,518,o),
(1255,396,o),
(675,361,c)
);
},
{
closed = 1;
nodes = (
(1779,1637,l),
(1440,1638,o),
(1009,1662,o),
(704,1700,c),
(653,1270,l),
(1044,1237,o),
(1477,1218,o),
(1779,1218,c)
);
}
);
width = 2504;
},
{
layerId = "B1F27B51-9973-4381-9301-4FE46FE1CA59";
shapes = (
{
closed = 1;
nodes = (
(798,41,l),
(1510,56,o),
(1996,333,o),
(1997,730,cs),
(1996,990,o),
(1779,1125,o),
(1359,1126,cs),
(1127,1125,o),
(825,1083,o),
(482,1006,c),
(496,943,l),
(846,1023,o),
(1140,1063,o),
(1358,1063,cs),
(1740,1063,o),
(1930,950,o),
(1931,727,cs),
(1930,377,o),
(1471,121,o),
(794,106,c)
);
},
{
closed = 1;
nodes = (
(1689,1549,l),
(1432,1550,o),
(1068,1582,o),
(779,1629,c),
(772,1564,l),
(1071,1517,o),
(1433,1485,o),
(1689,1484,c)
);
}
);
width = 2504;
}
);
unicode = 12357;
}
{
color = 11;
glyphname = "ke-hira";
layers = (
{
layerId = "CD0E3B44-F66A-4791-B84C-A1128DC61275";
shapes = (
{
closed = 1;
nodes = (
(1041,33,l),
(1818,71,o),
(1989,226,o),
(1989,911,cs),
(1989,2098,l),
(1775,2096,l),
(1775,909,ls),
(1776,338,o),
(1687,260,o),
(993,228,c)
);
},
{
closed = 1;
nodes = (
(2398,1417,l),
(2398,1609,l),
(830,1609,l),
(830,1417,l)
);
},
{
alignment = -1;
ref = "_left-arc";
}
);
width = 2504;
},
{
layerId = "5C20EF92-B63D-42A8-8878-93C2863E0093";
shapes = (
{
closed = 1;
nodes = (
(1104,-14,l),
(1877,23,o),
(2136,241,o),
(2136,862,cs),
(2136,2128,l),
(1649,2128,l),
(1647,862,ls),
(1647,492,o),
(1577,447,o),
(978,421,c)
);
},
{
closed = 1;
nodes = (
(2430,1257,l),
(2430,1681,l),
(880,1681,l),
(880,1257,l)
);
},
{
alignment = -1;
ref = "_left-arc";
}
);
width = 2504;
},
{
layerId = "B1F27B51-9973-4381-9301-4FE46FE1CA59";
shapes = (
{
closed = 1;
nodes = (
(1005,57,l),
(1786,95,o),
(1911,217,o),
(1911,935,cs),
(1911,2077,l),
(1845,2077,l),
(1845,935,ls),
(1845,255,o),
(1745,160,o),
(1002,124,c)
);
},
{
closed = 1;
nodes = (
(2379,1505,l),
(2379,1568,l),
(805,1568,l),
(805,1505,l)
);
},
{
alignment = -1;
ref = "_left-arc";
}
);
width = 2504;
}
);
unicode = 12369;
}
{
color = 11;
glyphname = "si-hira";
layers = (
{
layerId = "CD0E3B44-F66A-4791-B84C-A1128DC61275";
shapes = (
{
closed = 1;
nodes = (
(1751,4,o),
(2066,257,o),
(2329,904,c),
(2128,986,l),
(1893,423,o),
(1635,207,o),
(1208,208,cs),
(812,207,o),
(640,392,o),
(640,815,cs),
(640,2052,l),
(420,2052,l),
(420,815,ls),
(420,256,o),
(664,4,o),
(1206,4,cs)
);
}
);
width = 2504;
},
{
layerId = "5C20EF92-B63D-42A8-8878-93C2863E0093";
shapes = (
{
closed = 1;
nodes = (
(1803,-27,o),
(2105,214,o),
(2394,925,c),
(1957,1120,l),
(1723,603,o),
(1538,434,o),
(1201,435,cs),
(917,434,o),
(808,557,o),
(810,878,cs),
(810,2052,l),
(309,2052,l),
(309,878,ls),
(310,240,o),
(573,-27,o),
(1201,-28,cs)
);
}
);
width = 2504;
},
{
layerId = "B1F27B51-9973-4381-9301-4FE46FE1CA59";
shapes = (
{
closed = 1;
nodes = (
(1723,23,o),
(2046,278,o),
(2291,891,c),
(2230,919,l),
(1991,331,o),
(1693,87,o),
(1208,87,cs),
(753,87,o),
(549,301,o),
(549,779,cs),
(549,2052,l),
(482,2052,l),
(482,779,ls),
(481,264,o),
(713,23,o),
(1208,23,cs)
);
}
);
width = 2504;
}
);
unicode = 12375;
}
{
color = 11;
glyphname = "su-hira";
layers = (
{
layerId = "CD0E3B44-F66A-4791-B84C-A1128DC61275";
shapes = (
{
closed = 1;
nodes = (
(706,-15,l),
(1308,17,o),
(1690,365,o),
(1690,873,cs),
(1690,987,o),
(1670,1080,o),
(1623,1171,c),
(1643,1057,l),
(1643,2172,l),
(1425,2171,l),
(1425,1252,l),
(1561,1305,l),
(1456,1450,o),
(1303,1530,o),
(1098,1531,cs),
(772,1530,o),
(560,1333,o),
(560,1025,cs),
(560,721,o),
(761,525,o),
(1072,525,cs),
(1313,525,o),
(1521,646,o),
(1572,810,c),
(1478,849,l),
(1478,791,l),
(1477,456,o),
(1137,202,o),
(675,176,c)
);
},
{
closed = 1;
nodes = (
(907,705,o),
(781,833,o),
(780,1027,cs),
(781,1226,o),
(912,1350,o),
(1119,1351,cs),
(1322,1350,o),
(1452,1223,o),
(1452,1027,cs),
(1452,810,o),
(1293,705,o),
(1110,705,cs)
);
},
{
closed = 1;
nodes = (
(2348,1677,l),
(2348,1852,l),
(156,1852,l),
(156,1677,l)
);
}
);
width = 2504;
},
{
layerId = "5C20EF92-B63D-42A8-8878-93C2863E0093";
shapes = (
{
closed = 1;
nodes = (
(624,-80,l),
(1397,-46,o),
(1795,231,o),
(1795,745,cs),
(1795,911,o),
(1754,1043,o),
(1672,1154,c),
(1706,983,l),
(1706,2165,l),
(1215,2163,l),
(1215,1368,l),
(1357,1457,l),
(1201,1503,o),
(1152,1512,o),
(1073,1512,cs),
(714,1512,o),
(450,1292,o),
(449,983,cs),
(450,668,o),
(687,455,o),
(1047,455,cs),
(1170,455,o),
(1304,488,o),
(1402,534,c),
(1308,580,l),
(1308,524,l),
(1307,443,o),
(968,361,o),
(545,344,c)
);
},
{
closed = 1;
nodes = (
(998,802,o),
(922,879,o),
(922,983,cs),
(922,1088,o),
(998,1162,o),
(1103,1163,cs),
(1209,1162,o),
(1282,1089,o),
(1282,983,cs),
(1282,883,o),
(1214,802,o),
(1104,802,cs)
);
},
{
closed = 1;
nodes = (
(2380,1555,l),
(2380,1938,l),
(124,1936,l),
(124,1553,l)
);
}
);
width = 2504;
},
{
layerId = "B1F27B51-9973-4381-9301-4FE46FE1CA59";
shapes = (
{
closed = 1;
nodes = (
(750,21,l),
(1271,53,o),
(1634,432,o),
(1634,943,cs),
(1634,1024,o),
(1619,1104,o),
(1595,1180,c),
(1605,1096,l),
(1605,2176,l),
(1540,2176,l),
(1540,1190,l),
(1586,1200,l),
(1530,1403,o),
(1355,1526,o),
(1113,1526,cs),
(814,1526,o),
(619,1338,o),
(618,1047,cs),
(619,763,o),
(807,570,o),
(1087,570,cs),
(1297,570,o),
(1566,684,o),
(1599,974,c),
(1569,993,l),
(1569,935,l),
(1568,464,o),
(1228,114,o),
(741,82,c)
);
},
{
closed = 1;
nodes = (
(846,632,o),
(687,796,o),
(688,1047,cs),
(687,1303,o),
(853,1464,o),
(1114,1464,cs),
(1377,1464,o),
(1543,1303,o),
(1544,1047,cs),
(1543,738,o),
(1292,632,o),
(1093,633,cs)
);
},
{
closed = 1;
nodes = (
(2329,1743,l),
(2329,1806,l),
(175,1806,l),
(175,1743,l)
);
}
);
width = 2504;
}
);
unicode = 12377;
}
{
color = 11;
glyphname = "ta-hira";
layers = (
{
layerId = "CD0E3B44-F66A-4791-B84C-A1128DC61275";
shapes = (
{
closed = 1;
nodes = (
(446,-19,l),
(666,673,o),
(829,1423,o),
(919,2134,c),
(707,2145,l),
(612,1422,o),
(448,694,o),
(234,20,c)
);
},
{
closed = 1;
nodes = (
(1930,36,o),
(2102,52,o),
(2285,87,c),
(2259,281,l),
(2081,248,o),
(1911,230,o),
(1757,231,cs),
(1457,230,o),
(1255,328,o),
(1256,467,cs),
(1255,543,o),
(1324,623,o),
(1475,718,c),
(1321,844,l),
(1121,703,o),
(1032,581,o),
(1032,446,cs),
(1032,197,o),
(1318,36,o),
(1756,37,cs)
);
},
{
closed = 1;
nodes = (
(1931,1628,l),
(1931,1817,l),
(197,1817,l),
(197,1628,l)
);
},
{
closed = 1;
nodes = (
(1130,1086,l),
(1514,1131,o),
(1880,1151,o),
(2250,1151,c),
(2250,1342,l),
(1876,1340,o),
(1504,1317,o),
(1117,1275,c)
);
}
);
width = 2504;
},
{
layerId = "5C20EF92-B63D-42A8-8878-93C2863E0093";
shapes = (
{
closed = 1;
nodes = (
(673,-68,l),
(871,645,o),
(1013,1380,o),
(1097,2132,c),
(610,2153,l),
(509,1370,o),
(374,686,o),
(184,20,c)
);
},
{
closed = 1;
nodes = (
(1996,-29,o),
(2137,-17,o),
(2332,22,c),
(2278,457,l),
(2100,423,o),
(1959,408,o),
(1806,407,cs),
(1622,408,o),
(1513,446,o),
(1513,516,cs),
(1513,561,o),
(1569,632,o),
(1659,696,c),
(1223,840,l),
(1073,714,o),
(1000,595,o),
(1000,466,cs),
(1000,154,o),
(1303,-29,o),
(1806,-28,cs)
);
},
{
closed = 1;
nodes = (
(1980,1455,l),
(1980,1880,l),
(148,1880,l),
(148,1455,l)
);
},
{
closed = 1;
nodes = (
(1151,893,l),
(1540,925,o),
(1925,943,o),
(2305,943,c),
(2305,1363,l),
(1917,1364,o),
(1527,1346,o),
(1127,1315,c)
);
}
);
width = 2504;
},
{
layerId = "B1F27B51-9973-4381-9301-4FE46FE1CA59";
shapes = (
{
closed = 1;
nodes = (
(323,3,l),
(554,686,o),
(732,1445,o),
(826,2134,c),
(758,2140,l),
(666,1450,o),
(489,698,o),
(261,22,c)
);
},
{
closed = 1;
nodes = (
(1894,71,o),
(2087,88,o),
(2261,121,c),
(2248,186,l),
(2073,153,o),
(1888,136,o),
(1731,136,cs),
(1366,136,o),
(1116,263,o),
(1117,441,cs),
(1116,545,o),
(1199,647,o),
(1397,774,c),
(1361,825,l),
(1143,686,o),
(1050,566,o),
(1051,436,cs),
(1050,216,o),
(1327,71,o),
(1731,71,cs)
);
},
{
closed = 1;
nodes = (
(1905,1719,l),
(1905,1781,l),
(223,1781,l),
(223,1719,l)
);
},
{
closed = 1;
nodes = (
(1117,1188,l),
(1498,1239,o),
(1859,1264,o),
(2219,1264,c),
(2219,1327,l),
(1853,1326,o),
(1490,1304,o),
(1112,1251,c)
);
}
);
width = 2504;
}
);
unicode = 12383;
}
{
color = 11;
glyphname = "di-hira";
layers = (
{
layerId = "CD0E3B44-F66A-4791-B84C-A1128DC61275";
shapes = (
{
closed = 1;
nodes = (
(1839,1584,l),
(1839,1768,l),
(132,1768,l),
(132,1584,l)
);
},
{
closed = 1;
nodes = (
(2127,1736,l),
(2046,1914,o),
(1962,2059,o),
(1854,2202,c),
(1705,2107,l),
(1803,1975,o),
(1882,1840,o),
(1973,1653,c)
);
},
{
closed = 1;
nodes = (
(2490,1791,l),
(2413,1971,o),
(2335,2117,o),
(2233,2264,c),
(2081,2178,l),
(2174,2044,o),
(2250,1906,o),
(2333,1719,c)
);
},
{
closed = 1;
nodes = (
(1764,6,o),
(2108,234,o),
(2109,639,cs),
(2108,1002,o),
(1838,1214,o),
(1378,1214,cs),
(1103,1214,o),
(850,1139,o),
(613,983,c),
(653,955,l),
(785,1259,o),
(931,1785,o),
(965,2093,c),
(751,2106,l),
(711,1754,o),
(512,1109,o),
(343,780,c),
(530,701,l),
(800,925,o),
(1048,1024,o),
(1350,1025,cs),
(1698,1024,o),
(1885,893,o),
(1885,650,cs),
(1885,360,o),
(1625,201,o),
(1150,200,cs),
(942,201,o),
(669,228,o),
(426,276,c),
(402,81,l),
(632,36,o),
(925,6,o),
(1150,7,cs)
);
}
);
width = 2504;
},
{
layerId = "5C20EF92-B63D-42A8-8878-93C2863E0093";
shapes = (
{
closed = 1;
nodes = (
(1963,1446,l),
(1963,1854,l),
(127,1854,l),
(127,1446,l)
);
},
{
closed = 1;
nodes = (
(2062,1761,l),
(1971,1939,o),
(1880,2087,o),
(1765,2227,c),
(1498,2072,l),
(1613,1921,o),
(1702,1783,o),
(1791,1612,c)
);
},
{
closed = 1;
nodes = (
(2490,1779,l),
(2407,1963,o),
(2330,2114,o),
(2223,2266,c),
(1951,2127,l),
(2058,1973,o),
(2135,1829,o),
(2212,1653,c)
);
},
{
closed = 1;
nodes = (
(1819,-42,o),
(2184,189,o),
(2182,626,cs),
(2184,1032,o),
(1882,1293,o),
(1405,1294,cs),
(1242,1293,o),
(1049,1258,o),
(845,1192,c),
(924,1134,l),
(1002,1366,o),
(1104,1835,o),
(1138,2103,c),
(649,2127,l),
(614,1803,o),
(427,1170,o),
(275,830,c),
(698,661,l),
(973,815,o),
(1145,869,o),
(1329,869,cs),
(1549,869,o),
(1671,791,o),
(1672,650,cs),
(1671,478,o),
(1490,395,o),
(1129,398,cs),
(918,395,o),
(648,423,o),
(403,469,c),
(349,34,l),
(573,-12,o),
(877,-42,o),
(1129,-42,cs)
);
}
);
width = 2504;
},
{
layerId = "B1F27B51-9973-4381-9301-4FE46FE1CA59";
shapes = (
{
closed = 1;
nodes = (
(1928,1655,l),
(1928,1718,l),
(149,1718,l),
(149,1655,l)
);
},
{
closed = 1;
nodes = (
(2163,1678,l),
(2085,1856,o),
(2008,2001,o),
(1906,2146,c),
(1854,2112,l),
(1947,1982,o),
(2020,1844,o),
(2105,1650,c)
);
},
{
closed = 1;
nodes = (
(2490,1796,l),
(2413,1974,o),
(2338,2119,o),
(2234,2264,c),
(2184,2230,l),
(2276,2103,o),
(2349,1962,o),
(2434,1772,c)
);
},
{
closed = 1;
nodes = (
(1745,31,o),
(2081,256,o),
(2081,648,cs),
(2081,984,o),
(1827,1170,o),
(1376,1170,cs),
(1036,1170,o),
(757,1068,o),
(500,851,c),
(519,856,l),
(677,1203,o),
(847,1760,o),
(885,2088,c),
(819,2093,l),
(775,1732,o),
(569,1074,o),
(394,753,c),
(451,721,l),
(718,986,o),
(1007,1108,o),
(1373,1107,cs),
(1791,1108,o),
(2012,948,o),
(2013,648,cs),
(2012,297,o),
(1709,96,o),
(1171,96,cs),
(968,96,o),
(690,124,o),
(451,170,c),
(442,105,l),
(677,60,o),
(962,31,o),
(1171,31,cs)
);
}
);
width = 2504;
}
);
unicode = 12386;
}
{
color = 11;
glyphname = "to-hira";
layers = (
{
layerId = "CD0E3B44-F66A-4791-B84C-A1128DC61275";
shapes = (
{
closed = 1;
nodes = (
(1515,9,o),
(1819,42,o),
(2122,96,c),
(2094,291,l),
(1753,234,o),
(1495,204,o),
(1265,205,cs),
(782,204,o),
(542,329,o),
(542,573,cs),
(542,912,o),
(1002,1184,o),
(2054,1463,c),
(2002,1656,l),
(824,1346,o),
(319,1019,o),
(318,559,cs),
(319,198,o),
(641,9,o),
(1254,9,cs)
);
},
{
closed = 1;
nodes = (
(1033,1180,l),
(938,1490,o),
(872,1785,o),
(829,2104,c),
(611,2073,l),
(654,1753,o),
(719,1451,o),
(817,1127,c)
);
}
);
width = 2504;
},
{
layerId = "5C20EF92-B63D-42A8-8878-93C2863E0093";
shapes = (
{
closed = 1;
nodes = (
(1515,-54,o),
(1801,-24,o),
(2152,39,c),
(2092,474,l),
(1635,402,o),
(1467,383,o),
(1284,383,cs),
(940,383,o),
(770,457,o),
(772,615,cs),
(770,864,o),
(1205,1086,o),
(2115,1307,c),
(2007,1742,l),
(794,1454,o),
(261,1098,o),
(263,578,cs),
(261,165,o),
(601,-54,o),
(1252,-54,cs)
);
},
{
closed = 1;
nodes = (
(1189,1175,l),
(1095,1477,o),
(1024,1803,o),
(989,2102,c),
(489,2027,l),
(522,1735,o),
(594,1394,o),
(689,1060,c)
);
}
);
width = 2504;
},
{
layerId = "B1F27B51-9973-4381-9301-4FE46FE1CA59";
shapes = (
{
closed = 1;
nodes = (
(1515,43,o),
(1827,78,o),
(2105,125,c),
(2094,190,l),
(1815,143,o),
(1508,108,o),
(1256,108,cs),
(694,108,o),
(415,257,o),
(415,551,cs),
(415,936,o),
(890,1236,o),
(2019,1545,c),
(2000,1608,l),
(840,1288,o),
(349,974,o),
(349,548,cs),
(349,213,o),
(657,43,o),
(1256,43,cs)
);
},
{
closed = 1;
nodes = (
(949,1184,l),
(851,1499,o),
(789,1773,o),
(745,2104,c),
(677,2095,l),
(723,1762,o),
(785,1480,o),
(883,1165,c)
);
}
);
width = 2504;
}
);
unicode = 12392;
}
{
color = 11;
glyphname = "ho-hira";
layers = (
{
layerId = "CD0E3B44-F66A-4791-B84C-A1128DC61275";
shapes = (
{
closed = 1;
nodes = (
(1713,40,o),
(1872,204,o),
(1873,568,cs),
(1873,1794,l),
(2320,1794,l),
(2320,1977,l),
(823,1977,l),
(823,1794,l),
(1668,1793,l),
(1668,577,ls),
(1668,322,o),
(1577,226,o),
(1334,226,cs),
(1125,226,o),
(1021,298,o),
(1020,449,cs),
(1021,601,o),
(1130,677,o),
(1343,676,cs),
(1611,677,o),
(1808,562,o),
(2242,145,c),
(2377,280,l),
(1909,727,o),
(1683,851,o),
(1355,853,cs),
(1006,851,o),
(820,712,o),
(820,449,cs),
(820,186,o),
(1010,40,o),
(1355,40,cs)
);
},
{
closed = 1;
nodes = (
(2320,1218,l),
(2320,1400,l),
(823,1400,l),
(823,1218,l)
);
},
{
alignment = -1;
pos = (-21,0);
ref = "_left-arc";
scale = (0.9769,1);
}
);
width = 2504;
},
{
layerId = "5C20EF92-B63D-42A8-8878-93C2863E0093";
shapes = (
{
closed = 1;
nodes = (
(1787,-16,o),
(1969,160,o),
(1970,509,cs),
(1970,1606,l),
(2370,1606,l),
(2370,2017,l),
(842,2017,l),
(842,1606,l),
(1507,1606,l),
(1507,535,ls),
(1508,432,o),
(1471,395,o),
(1366,394,cs),
(1272,395,o),
(1224,425,o),
(1223,489,cs),
(1224,560,o),
(1283,597,o),
(1392,599,cs),
(1592,597,o),
(1746,483,o),
(2151,46,c),
(2444,339,l),
(1970,850,o),
(1765,980,o),
(1418,979,cs),
(1012,980,o),
(787,806,o),
(788,489,cs),
(787,172,o),
(1020,-16,o),
(1418,-15,cs)
);
},
{
closed = 1;
nodes = (
(2370,1079,l),
(2370,1477,l),
(842,1477,l),
(842,1077,l)
);
},
{
alignment = -1;
pos = (-30,0);
ref = "_left-arc";
scale = (0.9384,1);
}
);
width = 2504;
},
{
layerId = "B1F27B51-9973-4381-9301-4FE46FE1CA59";
shapes = (
{
closed = 1;
nodes = (
(1672,71,o),
(1819,225,o),
(1820,597,cs),
(1820,1890,l),
(2295,1890,l),
(2295,1955,l),
(814,1955,l),
(814,1890,l),
(1757,1890,l),
(1757,597,ls),
(1757,264,o),
(1633,135,o),
(1315,135,cs),
(1037,135,o),
(901,232,o),
(901,429,cs),
(901,621,o),
(1040,721,o),
(1317,720,cs),
(1620,721,o),
(1841,602,o),
(2294,200,c),
(2338,245,l),
(1874,660,o),
(1639,783,o),
(1317,783,cs),
(1004,783,o),
(838,659,o),
(839,429,cs),
(838,194,o),
(1004,71,o),
(1317,71,cs)
);
},
{
closed = 1;
nodes = (
(2295,1293,l),
(2295,1356,l),
(814,1356,l),
(814,1293,l)
);
},
{
alignment = -1;
pos = (-14,0);
ref = "_left-arc";
scale = (0.9977,1);
}
);
width = 2504;
}
);
unicode = 12411;
}
{
color = 11;
glyphname = "ma-hira";
layers = (
{
layerId = "CD0E3B44-F66A-4791-B84C-A1128DC61275";
shapes = (
{
closed = 1;
nodes = (
(1314,11,o),
(1513,191,o),
(1513,567,cs),
(1513,2145,l),
(1308,2143,l),
(1308,567,ls),
(1309,310,o),
(1184,196,o),
(903,196,cs),
(659,196,o),
(531,280,o),
(532,439,cs),
(531,595,o),
(655,675,o),
(904,674,cs),
(1257,675,o),
(1585,506,o),
(2092,69,c),
(2228,211,l),
(1701,672,o),
(1327,854,o),
(905,854,cs),
(526,854,o),
(319,706,o),
(318,433,cs),
(319,163,o),
(530,11,o),
(906,13,cs)
);
},
{
closed = 1;
nodes = (
(2206,1166,l),
(2206,1347,l),
(297,1347,l),
(297,1166,l)
);
},
{
closed = 1;
nodes = (
(2232,1680,l),
(2232,1867,l),
(273,1867,l),
(273,1680,l)
);
}
);
width = 2504;
},
{
layerId = "5C20EF92-B63D-42A8-8878-93C2863E0093";
shapes = (
{
closed = 1;
nodes = (
(1423,-54,o),
(1660,150,o),
(1660,550,cs),
(1662,2128,l),
(1199,2128,l),
(1199,550,ls),
(1199,420,o),
(1110,356,o),
(941,357,cs),
(815,356,o),
(747,394,o),
(748,456,cs),
(747,525,o),
(815,558,o),
(954,558,cs),
(1225,558,o),
(1459,422,o),
(1974,-30,c),
(2278,278,l),
(1734,772,o),
(1395,940,o),
(954,940,cs),
(505,940,o),
(261,767,o),
(263,452,cs),
(261,128,o),
(512,-54,o),
(956,-54,cs)
);
},
{
closed = 1;
nodes = (
(2258,1021,l),
(2258,1419,l),
(250,1419,l),
(250,1021,l)
);
},
{
closed = 1;
nodes = (
(2282,1519,l),
(2282,1930,l),
(224,1930,l),
(224,1519,l)
);
}
);
width = 2504;
},
{
layerId = "B1F27B51-9973-4381-9301-4FE46FE1CA59";
shapes = (
{
closed = 1;
nodes = (
(1261,46,o),
(1435,208,o),
(1435,574,cs),
(1435,2152,l),
(1370,2152,l),
(1370,574,ls),
(1370,246,o),
(1227,107,o),
(879,107,cs),
(571,107,o),
(413,219,o),
(413,425,cs),
(413,634,o),
(571,742,o),
(879,741,cs),
(1270,742,o),
(1652,557,o),
(2154,124,c),
(2199,173,l),
(1683,617,o),
(1288,805,o),
(879,804,cs),
(538,805,o),
(347,671,o),
(347,424,cs),
(347,181,o),
(538,46,o),
(879,45,cs)
);
},
{
closed = 1;
nodes = (
(2181,1243,l),
(2181,1306,l),
(321,1306,l),
(321,1243,l)
);
},
{
closed = 1;
nodes = (
(2207,1769,l),
(2207,1829,l),
(297,1829,l),
(297,1769,l)
);
}
);
width = 2504;
}
);
unicode = 12414;
}
{
color = 11;
glyphname = "mi-hira";
layers = (
{
layerId = "CD0E3B44-F66A-4791-B84C-A1128DC61275";
shapes = (
{
closed = 1;
nodes = (
(1086,54,o),
(1309,756,o),
(1310,1953,cs),
(1310,1977,l),
(256,1977,l),
(256,1793,l),
(1147,1793,l),
(1091,1858,l),
(1091,898,o),
(917,271,o),
(670,270,cs),
(540,271,o),
(367,503,o),
(368,681,cs),
(367,909,o),
(670,1049,o),
(1185,1049,cs),
(1610,1049,o),
(1950,945,o),
(2337,690,c),
(2415,869,l),
(2023,1121,o),
(1633,1239,o),
(1185,1238,cs),
(546,1239,o),
(163,1029,o),
(163,679,cs),
(163,381,o),
(436,54,o),
(697,55,cs)
);
},
{
closed = 1;
nodes = (
(1632,10,l),
(1986,265,o),
(2057,507,o),
(2056,1479,cs),
(2056,1916,l),
(1847,1916,l),
(1847,1486,ls),
(1847,573,o),
(1796,385,o),
(1482,162,c)
);
}
);
width = 2504;
},
{
layerId = "5C20EF92-B63D-42A8-8878-93C2863E0093";
shapes = (
{
closed = 1;
nodes = (
(1252,-18,o),
(1445,558,o),
(1446,1991,cs),
(1446,2017,l),
(224,2017,l),
(224,1606,l),
(1055,1606,l),
(944,1742,l),
(944,877,o),
(868,471,o),
(702,470,cs),
(632,471,o),
(559,570,o),
(559,664,cs),
(559,828,o),
(791,920,o),
(1204,921,cs),
(1607,920,o),
(1905,827,o),
(2291,579,c),
(2455,993,l),
(2063,1229,o),
(1651,1344,o),
(1204,1345,cs),
(511,1344,o),
(97,1087,o),
(98,664,cs),
(97,299,o),
(406,-18,o),
(766,-17,cs)
);
},
{
closed = 1;
nodes = (
(1691,-67,l),
(2074,233,o),
(2143,467,o),
(2142,1435,cs),
(2142,1939,l),
(1671,1939,l),
(1671,1463,ls),
(1671,623,o),
(1638,503,o),
(1346,278,c)
);
}
);
width = 2504;
},
{
layerId = "B1F27B51-9973-4381-9301-4FE46FE1CA59";
shapes = (
{
closed = 1;
nodes = (
(995,94,o),
(1235,861,o),
(1235,1931,cs),
(1235,1955,l),
(275,1955,l),
(275,1890,l),
(1196,1890,l),
(1169,1920,l),
(1169,911,o),
(943,160,o),
(651,160,cs),
(488,160,o),
(262,464,o),
(262,688,cs),
(262,956,o),
(604,1118,o),
(1176,1117,cs),
(1610,1118,o),
(1971,1005,o),
(2359,748,c),
(2397,803,l),
(2001,1065,o),
(1622,1183,o),
(1176,1182,cs),
(565,1183,o),
(196,999,o),
(197,688,cs),
(196,427,o),
(452,94,o),
(656,94,cs)
);
},
{
closed = 1;
nodes = (
(1595,50,l),
(1937,281,o),
(2007,526,o),
(2008,1497,cs),
(2008,1903,l),
(1942,1903,l),
(1942,1499,ls),
(1941,548,o),
(1880,320,o),
(1555,102,c)
);
}
);
width = 2504;
}
);
unicode = 12415;
}
{
color = 11;
glyphname = "yusmall-hira";
layers = (
{
layerId = "CD0E3B44-F66A-4791-B84C-A1128DC61275";
shapes = (
{
closed = 1;
nodes = (
(618,268,l),
(618,548,ls),
(618,955,o),
(982,1287,o),
(1434,1287,cs),
(1737,1287,o),
(1924,1134,o),
(1925,888,cs),
(1924,642,o),
(1738,491,o),
(1432,491,cs),
(1211,491,o),
(1061,569,o),
(924,763,c),
(807,611,l),
(962,397,o),
(1152,302,o),
(1432,301,cs),
(1859,302,o),
(2126,527,o),
(2126,888,cs),
(2126,1246,o),
(1858,1477,o),
(1434,1478,cs),
(979,1477,o),
(618,1203,o),
(505,793,c),
(618,793,l),
(618,1503,l),
(420,1503,l),
(420,269,l)
);
},
{
closed = 1;
nodes = (
(1040,-61,l),
(1398,58,o),
(1513,240,o),
(1512,673,cs),
(1512,1689,l),
(1312,1689,l),
(1312,673,ls),
(1312,325,o),
(1240,209,o),
(955,112,c)
);
}
);
width = 2504;
},
{
layerId = "5C20EF92-B63D-42A8-8878-93C2863E0093";
shapes = (
{
closed = 1;
nodes = (
(789,275,l),
(789,555,ls),
(790,881,o),
(1069,1138,o),
(1432,1138,cs),
(1646,1138,o),
(1769,1050,o),
(1768,895,cs),
(1769,742,o),
(1651,652,o),
(1453,652,cs),
(1306,652,o),
(1195,701,o),
(1034,837,c),
(815,489,l),
(1004,323,o),
(1196,254,o),
(1453,254,cs),
(1915,254,o),
(2185,487,o),
(2185,895,cs),
(2185,1295,o),
(1900,1538,o),
(1432,1539,cs),
(1019,1538,o),
(735,1342,o),
(568,940,c),
(789,940,l),
(789,1495,l),
(370,1495,l),
(370,277,l)
);
},
{
closed = 1;
nodes = (
(1099,-110,l),
(1477,19,o),
(1601,208,o),
(1601,656,cs),
(1601,1697,l),
(1171,1699,l),
(1169,656,ls),
(1170,390,o),
(1137,335,o),
(908,249,c)
);
}
);
width = 2504;
},
{
layerId = "B1F27B51-9973-4381-9301-4FE46FE1CA59";
shapes = (
{
closed = 1;
nodes = (
(512,264,l),
(512,544,ls),
(512,1004,o),
(929,1380,o),
(1436,1380,cs),
(1798,1380,o),
(2031,1186,o),
(2030,884,cs),
(2031,584,o),
(1793,391,o),
(1419,390,cs),
(1151,391,o),
(979,488,o),
(855,712,c),
(802,676,l),
(940,436,o),
(1130,326,o),
(1419,325,cs),
(1831,326,o),
(2096,546,o),
(2095,884,cs),
(2096,1224,o),
(1836,1445,o),
(1436,1445,cs),
(960,1445,o),
(558,1128,o),
(469,713,c),
(512,713,l),
(512,1506,l),
(447,1506,l),
(447,264,l)
);
},
{
closed = 1;
nodes = (
(1000,-37,l),
(1346,81,o),
(1459,259,o),
(1458,684,cs),
(1458,1686,l),
(1393,1686,l),
(1393,684,ls),
(1394,284,o),
(1297,132,o),
(979,23,c)
);
}
);
width = 2504;
}
);
unicode = 12421;
}
{
color = 11;
glyphname = "n-hira";
layers = (
{
layerId = "CD0E3B44-F66A-4791-B84C-A1128DC61275";
shapes = (
{
closed = 1;
nodes = (
(565,595,ls),
(680,877,o),
(900,999,o),
(1058,998,cs),
(1236,999,o),
(1281,823,o),
(1334,589,cs),
(1403,269,o),
(1496,36,o),
(1770,37,cs),
(2065,36,o),
(2265,293,o),
(2399,828,c),
(2207,891,l),
(2094,453,o),
(1952,245,o),
(1781,246,cs),
(1621,245,o),
(1581,415,o),
(1536,642,cs),
(1467,969,o),
(1386,1208,o),
(1124,1207,cs),
(960,1208,o),
(783,1120,o),
(632,976,c),
(700,931,l),
(1153,2028,l),
(956,2089,l),
(133,72,l),
(320,0,l)
);
}
);
width = 2504;
},
{
layerId = "5C20EF92-B63D-42A8-8878-93C2863E0093";
shapes = (
{
closed = 1;
nodes = (
(662,382,ls),
(809,761,o),
(1007,805,o),
(1079,805,cs),
(1154,805,o),
(1199,754,o),
(1245,570,cs),
(1347,155,o),
(1506,-3,o),
(1804,-3,cs),
(2169,-3,o),
(2357,232,o),
(2468,823,c),
(2047,967,l),
(1967,600,o),
(1913,472,o),
(1830,471,cs),
(1773,472,o),
(1741,525,o),
(1702,697,cs),
(1609,1127,o),
(1489,1280,o),
(1258,1281,cs),
(1114,1280,o),
(951,1220,o),
(746,1092,c),
(902,1000,l),
(1300,2026,l),
(845,2154,l),
(59,74,l),
(486,-78,l)
);
}
);
width = 2504;
},
{
layerId = "B1F27B51-9973-4381-9301-4FE46FE1CA59";
shapes = (
{
closed = 1;
nodes = (
(512,712,ls),
(612,938,o),
(841,1101,o),
(1045,1102,cs),
(1280,1101,o),
(1328,859,o),
(1380,598,cs),
(1431,330,o),
(1487,58,o),
(1753,57,cs),
(2009,58,o),
(2212,323,o),
(2358,830,c),
(2295,850,l),
(2160,370,o),
(1971,125,o),
(1753,125,cs),
(1537,125,o),
(1492,354,o),
(1444,611,cs),
(1390,880,o),
(1332,1168,o),
(1053,1168,cs),
(877,1168,o),
(692,1065,o),
(568,912,c),
(590,892,l),
(1071,2028,l),
(1012,2053,l),
(174,72,l),
(231,48,l)
);
}
);
width = 2504;
}
);
unicode = 12435;
}
{
color = 11;
glyphname = "e-kata";
layers = (
{
layerId = "CD0E3B44-F66A-4791-B84C-A1128DC61275";
shapes = (
{
closed = 1;
nodes = (
(2274,137,l),
(2274,331,l),
(1363,329,l),
(1363,1721,l),
(2222,1721,l),
(2222,1917,l),
(282,1917,l),
(282,1721,l),
(1142,1721,l),
(1142,331,l),
(230,329,l),
(230,137,l)
);
}
);
width = 2504;
},
{
layerId = "5C20EF92-B63D-42A8-8878-93C2863E0093";
shapes = (
{
closed = 1;
nodes = (
(2306,72,l),
(2304,509,l),
(1510,509,l),
(1510,1545,l),
(2254,1545,l),
(2254,1980,l),
(248,1980,l),
(248,1545,l),
(997,1545,l),
(997,509,l),
(198,509,l),
(198,70,l)
);
}
);
width = 2504;
},
{
layerId = "B1F27B51-9973-4381-9301-4FE46FE1CA59";
shapes = (
{
closed = 1;
nodes = (
(2255,171,l),
(2255,236,l),
(1285,236,l),
(1285,1814,l),
(2203,1814,l),
(2203,1879,l),
(299,1879,l),
(299,1814,l),
(1219,1814,l),
(1219,236,l),
(249,236,l),
(249,171,l)
);
}
);
width = 2504;
}
);
unicode = 12456;
}
{
color = 11;
glyphname = "ge-kata";
layers = (
{
layerId = "CD0E3B44-F66A-4791-B84C-A1128DC61275";
name = "[367]";
shapes = (
{
closed = 1;
nodes = (
(530,2,l),
(1359,66,o),
(1728,444,o),
(1728,1224,cs),
(1728,1617,l),
(1511,1617,l),
(1511,1224,ls),
(1509,545,o),
(1212,248,o),
(483,197,c)
);
},
{
closed = 1;
nodes = (
(249,894,l),
(545,1226,o),
(695,1584,o),
(745,2069,c),
(534,2080,l),
(486,1644,o),
(347,1317,o),
(84,1007,c)
);
},
{
closed = 1;
nodes = (
(2376,1514,l),
(2376,1709,l),
(537,1709,l),
(537,1514,l)
);
},
{
closed = 1;
nodes = (
(2102,1706,l),
(2014,1881,o),
(1932,2026,o),
(1822,2170,c),
(1676,2074,l),
(1774,1942,o),
(1855,1809,o),
(1942,1623,c)
);
},
{
closed = 1;
nodes = (
(2477,1730,l),
(2399,1908,o),
(2322,2056,o),
(2219,2205,c),
(2068,2115,l),
(2161,1982,o),
(2236,1845,o),
(2319,1658,c)
);
}
);
width = 2504;
},
{
layerId = "5C20EF92-B63D-42A8-8878-93C2863E0093";
shapes = (
{
closed = 1;
nodes = (
(553,-53,l),
(1454,24,o),
(1833,396,o),
(1833,1199,cs),
(1833,1573,l),
(1331,1573,l),
(1330.992,1198.991,ls),
(1331,621,o),
(1116,423,o),
(435,382,c)
);
},
{
closed = 1;
nodes = (
(410,812,l),
(709,1158,o),
(867,1556,o),
(919,2077,c),
(448,2103,l),
(392,1692,o),
(260,1365,o),
(23,1054,c)
);
},
{
closed = 1;
nodes = (
(2354,1344,l),
(2354,1781,l),
(552,1781,l),
(550,1344,l)
);
},
{
closed = 1;
nodes = (
(2068,1757,l),
(1978,1934,o),
(1888,2082,o),
(1772,2223,c),
(1502,2065,l),
(1619,1914,o),
(1708,1776,o),
(1800,1606,c)
);
},
{
closed = 1;
nodes = (
(2491,1779,l),
(2412,1965,o),
(2334,2112,o),
(2226,2264,c),
(1957,2127,l),
(2061,1971,o),
(2139,1828,o),
(2215,1651,c)
);
}
);
width = 2504;
},
{
layerId = "B1F27B51-9973-4381-9301-4FE46FE1CA59";
shapes = (
{
closed = 1;
nodes = (
(505,33,l),
(1296,88,o),
(1660,469,o),
(1659,1237,cs),
(1659,1633,l),
(1593,1633,l),
(1593,1237,ls),
(1594,504,o),
(1255,153,o),
(496,98,c)
);
},
{
closed = 1;
nodes = (
(152,940,l),
(445,1262,o),
(589,1600,o),
(638,2062,c),
(573,2067,l),
(525,1622,o),
(384,1294,o),
(105,983,c)
);
},
{
closed = 1;
nodes = (
(2378,1601,l),
(2378,1666,l),
(517,1666,l),
(517,1601,l)
);
},
{
closed = 1;
nodes = (
(2115,1769,l),
(2034,1944,o),
(1956,2089,o),
(1849,2231,c),
(1801,2195,l),
(1895,2066,o),
(1970,1932,o),
(2057,1741,c)
);
},
{
closed = 1;
nodes = (
(2489,1793,l),
(2412,1971,o),
(2337,2116,o),
(2233,2261,c),
(2183,2227,l),
(2275,2097,o),
(2348,1959,o),
(2433,1769,c)
);
}
);
width = 2504;
}
);
unicode = 12466;
}
{
color = 11;
glyphname = "sa-kata";
layers = (
{
layerId = "CD0E3B44-F66A-4791-B84C-A1128DC61275";
shapes = (
{
closed = 1;
nodes = (
(626,29,l),
(1645,51,o),
(2026,364,o),
(2026,1179,cs),
(2026,2107,l),
(1806,2107,l),
(1806,1179,ls),
(1806,476,o),
(1513,243,o),
(592,226,c)
);
},
{
closed = 1;
nodes = (
(707,844,l),
(706,2107,l),
(489,2107,l),
(489,844,l)
);
},
{
closed = 1;
nodes = (
(2413,1494,l),
(2413,1686,l),
(91,1686,l),
(91,1493,l)
);
}
);
width = 2504;
},
{
layerId = "5C20EF92-B63D-42A8-8878-93C2863E0093";
shapes = (
{
closed = 1;
nodes = (
(626,-40,l),
(1685,-25,o),
(2108,290,o),
(2108,1060,cs),
(2108,2115,l),
(1606,2115,l),
(1606,1060,ls),
(1605,537,o),
(1386,401,o),
(533,394,c)
);
},
{
closed = 1;
nodes = (
(922,785,l),
(922,2115,l),
(422,2115,l),
(424,787,l)
);
},
{
closed = 1;
nodes = (
(2430,1306,l),
(2430,1741,l),
(76,1741,l),
(76,1306,l)
);
}
);
width = 2504;
},
{
layerId = "B1F27B51-9973-4381-9301-4FE46FE1CA59";
shapes = (
{
closed = 1;
nodes = (
(626,70,l),
(1623,92,o),
(1982,403,o),
(1982,1244,cs),
(1982,2102,l),
(1916,2102,l),
(1916,1244,ls),
(1916,440,o),
(1584,155,o),
(623,135,c)
);
},
{
closed = 1;
nodes = (
(589,871,l),
(588,2102,l),
(521,2102,l),
(521,871,l)
);
},
{
closed = 1;
nodes = (
(2402,1590,l),
(2402,1655,l),
(100,1655,l),
(100,1590,l)
);
}
);
width = 2504;
}
);
unicode = 12469;
}
{
color = 11;
glyphname = "si-kata";
layers = (
{
layerId = "CD0E3B44-F66A-4791-B84C-A1128DC61275";
shapes = (
{
closed = 1;
nodes = (
(415,67,l),
(1586,101,o),
(2199,611,o),
(2343,1667,c),
(2133,1698,l),
(2006,743,o),
(1464,299,o),
(384,273,c)
);
},
{
closed = 1;
nodes = (
(1173,1262,l),
(863,1337,o),
(611,1382,o),
(324,1418,c),
(282,1228,l),
(565,1192,o),
(816,1147,o),
(1129,1073,c)
);
},
{
closed = 1;
nodes = (
(1321,1862,l),
(1002,1937,o),
(737,1982,o),
(435,2018,c),
(393,1830,l),
(692,1793,o),
(956,1745,o),
(1276,1673,c)
);
}
);
width = 2504;
},
{
layerId = "5C20EF92-B63D-42A8-8878-93C2863E0093";
shapes = (
{
closed = 1;
nodes = (
(348,-5,l),
(1635,53,o),
(2249,550,o),
(2408,1677,c),
(1930,1753,l),
(1808,854,o),
(1353,496,o),
(273,456,c)
);
},
{
closed = 1;
nodes = (
(1163,1342,l),
(844,1418,o),
(581,1464,o),
(274,1504,c),
(173,1085,l),
(481,1042,o),
(740,995,o),
(1060,920,c)
);
},
{
closed = 1;
nodes = (
(1304,1944,l),
(978,2019,o),
(712,2064,o),
(400,2107,c),
(296,1685,l),
(611,1643,o),
(876,1595,o),
(1196,1520,c)
);
}
);
width = 2504;
},
{
layerId = "B1F27B51-9973-4381-9301-4FE46FE1CA59";
shapes = (
{
closed = 1;
nodes = (
(449,108,l),
(1558,128,o),
(2171,641,o),
(2307,1662,c),
(2242,1669,l),
(2111,685,o),
(1522,194,o),
(446,174,c)
);
},
{
closed = 1;
nodes = (
(1176,1218,l),
(874,1291,o),
(627,1335,o),
(349,1368,c),
(340,1305,l),
(611,1273,o),
(856,1230,o),
(1163,1155,c)
);
},
{
closed = 1;
nodes = (
(1332,1818,l),
(1015,1891,o),
(750,1936,o),
(451,1968,c),
(446,1907,l),
(737,1874,o),
(999,1829,o),
(1318,1755,c)
);
}
);
width = 2504;
}
);
unicode = 12471;
}
{
color = 11;
glyphname = "se-kata";
layers = (
{
layerId = "CD0E3B44-F66A-4791-B84C-A1128DC61275";
shapes = (
{
closed = 1;
nodes = (
(1563,79,o),
(1928,104,o),
(2267,145,c),
(2254,338,l),
(1937,297,o),
(1599,276,o),
(1278,276,cs),
(877,276,o),
(828,322,o),
(829,706,cs),
(829,2090,l),
(617,2092,l),
(615,668,ls),
(616,189,o),
(729,79,o),
(1234,81,cs)
);
},
{
closed = 1;
nodes = (
(2316,1614,l),
(2285,1812,l),
(40,1456,l),
(70,1258,l)
);
},
{
closed = 1;
nodes = (
(1609,710,l),
(1956,926,o),
(2226,1264,o),
(2316,1614,c),
(2118,1676,l),
(2025,1355,o),
(1794,1063,o),
(1474,872,c)
);
}
);
width = 2504;
},
{
layerId = "5C20EF92-B63D-42A8-8878-93C2863E0093";
shapes = (
{
closed = 1;
nodes = (
(1581,7,o),
(1930,28,o),
(2332,69,c),
(2304,508,l),
(1967,462,o),
(1673,445,o),
(1303,444,cs),
(1053,445,o),
(1036,464,o),
(1037,740,cs),
(1037,2115,l),
(548,2115,l),
(548,636,ls),
(548,162,o),
(699,7,o),
(1175,9,cs)
);
},
{
closed = 1;
nodes = (
(2396,1444,l),
(2331,1894,l),
(10,1570,l),
(77,1120,l)
);
},
{
closed = 1;
nodes = (
(1706,596,l),
(2046,826,o),
(2306,1143,o),
(2396,1444,c),
(1945,1594,l),
(1840,1341,o),
(1665,1139,o),
(1388,952,c)
);
}
);
width = 2504;
},
{
layerId = "B1F27B51-9973-4381-9301-4FE46FE1CA59";
shapes = (
{
closed = 1;
nodes = (
(1554,119,o),
(1925,145,o),
(2231,183,c),
(2227,247,l),
(1921,207,o),
(1559,185,o),
(1265,185,cs),
(785,185,o),
(718,245,o),
(718,689,cs),
(718,2077,l),
(653,2077,l),
(653,687,ls),
(653,206,o),
(745,119,o),
(1261,120,cs)
);
},
{
closed = 1;
nodes = (
(2274,1706,l),
(2263,1768,l),
(57,1396,l),
(68,1329,l)
);
},
{
closed = 1;
nodes = (
(1554,770,l),
(1907,979,o),
(2183,1330,o),
(2274,1706,c),
(2209,1720,l),
(2121,1363,o),
(1860,1022,o),
(1520,826,c)
);
}
);
width = 2504;
}
);
unicode = 12475;
}
{
color = 11;
glyphname = "bu-kata";
layers = (
{
layerId = "CD0E3B44-F66A-4791-B84C-A1128DC61275";
shapes = (
{
closed = 1;
nodes = (
(345,40,l),
(1494,69,o),
(2112,673,o),
(2119,1766,c),
(2063,1871,l),
(199,1871,l),
(199,1669,l),
(2006,1669,l),
(1902,1777,l),
(1901,794,o),
(1359,272,o),
(314,240,c)
);
},
{
closed = 1;
nodes = (
(2110,1763,l),
(2029,1941,o),
(1949,2088,o),
(1841,2232,c),
(1690,2141,l),
(1789,2007,o),
(1864,1874,o),
(1951,1686,c)
);
},
{
closed = 1;
nodes = (
(2486,1788,l),
(2411,1969,o),
(2337,2115,o),
(2234,2264,c),
(2084,2183,l),
(2174,2047,o),
(2246,1909,o),
(2326,1720,c)
);
}
);
width = 2504;
},
{
layerId = "5C20EF92-B63D-42A8-8878-93C2863E0093";
shapes = (
{
closed = 1;
nodes = (
(381,-15,l),
(1587,20,o),
(2213,619,o),
(2214,1744,c),
(2219,1944,l),
(178,1944,l),
(178,1483,l),
(1954,1483,l),
(1712,1743,l),
(1710,884,o),
(1267,477,o),
(292,433,c)
);
},
{
closed = 1;
nodes = (
(2084,1699,l),
(2050,1900,o),
(2004,2068,o),
(1940,2239,c),
(1630,2158,l),
(1700,1984,o),
(1744,1827,o),
(1777,1635,c)
);
},
{
closed = 1;
nodes = (
(2482,1728,l),
(2453,1927,o),
(2413,2091,o),
(2350,2264,c),
(2049,2200,l),
(2111,2021,o),
(2150,1865,o),
(2180,1669,c)
);
}
);
width = 2504;
},
{
layerId = "B1F27B51-9973-4381-9301-4FE46FE1CA59";
shapes = (
{
closed = 1;
nodes = (
(363,71,l),
(1487,95,o),
(2103,699,o),
(2104,1772,c),
(2075,1809,l),
(246,1809,l),
(246,1743,l),
(2069,1743,l),
(2037,1772,l),
(2037,737,o),
(1445,160,o),
(362,136,c)
);
},
{
closed = 1;
nodes = (
(2104,1772,l),
(2023,1947,o),
(1945,2092,o),
(1838,2234,c),
(1788,2197,l),
(1883,2068,o),
(1961,1934,o),
(2046,1744,c)
);
},
{
closed = 1;
nodes = (
(2478,1796,l),
(2401,1974,o),
(2325,2119,o),
(2222,2264,c),
(2174,2230,l),
(2264,2100,o),
(2339,1962,o),
(2422,1772,c)
);
}
);
width = 2504;
}
);
unicode = 12502;
}
{
color = 11;
glyphname = "pu-kata";
layers = (
{
layerId = "CD0E3B44-F66A-4791-B84C-A1128DC61275";
shapes = (
{
closed = 1;
nodes = (
(356,40,l),
(1505,69,o),
(2124,680,o),
(2126,1783,c),
(2000,1783,l),
(2000,1886,l),
(206,1886,l),
(206,1683,l),
(2017,1683,l),
(1908,1794,l),
(1908,799,o),
(1369,272,o),
(320,240,c)
);
},
{
closed = 1;
nodes = (
(2344,1606,o),
(2490,1753,o),
(2490,1935,cs),
(2490,2117,o),
(2344,2264,o),
(2161,2264,cs),
(1979,2264,o),
(1833,2117,o),
(1833,1935,cs),
(1833,1753,o),
(1979,1606,o),
(2161,1607,cs)
);
},
{
closed = 1;
nodes = (
(2072,1772,o),
(1998,1845,o),
(1998,1935,cs),
(1998,2023,o),
(2072,2098,o),
(2161,2097,cs),
(2249,2098,o),
(2324,2023,o),
(2323,1935,cs),
(2324,1845,o),
(2249,1772,o),
(2161,1772,cs)
);
}
);
width = 2504;
},
{
layerId = "5C20EF92-B63D-42A8-8878-93C2863E0093";
shapes = (
{
closed = 1;
nodes = (
(377,-15,l),
(1581,20,o),
(2208,618,o),
(2208,1739,c),
(1977,1739,l),
(1977,1941,l),
(174,1941,l),
(174,1480,l),
(1950,1480,l),
(1706,1737,l),
(1706,883,o),
(1261,477,o),
(286,433,c)
);
},
{
closed = 1;
nodes = (
(2320,1504,o),
(2490,1675,o),
(2492,1885,cs),
(2490,2093,o),
(2320,2264,o),
(2111,2266,cs),
(1901,2264,o),
(1730,2093,o),
(1730,1885,cs),
(1730,1675,o),
(1901,1504,o),
(2111,1504,cs)
);
},
{
closed = 1;
nodes = (
(2052,1777,o),
(2004,1826,o),
(2003,1885,cs),
(2004,1945,o),
(2052,1993,o),
(2111,1992,cs),
(2171,1993,o),
(2219,1945,o),
(2220,1885,cs),
(2219,1826,o),
(2171,1777,o),
(2111,1777,cs)
);
}
);
width = 2504;
},
{
layerId = "B1F27B51-9973-4381-9301-4FE46FE1CA59";
shapes = (
{
closed = 1;
nodes = (
(341,71,l),
(1459,95,o),
(2075,711,o),
(2082,1803,c),
(2023,1803,l),
(2023,1855,l),
(223,1855,l),
(223,1790,l),
(2049,1790,l),
(2016,1823,l),
(2016,752,o),
(1425,160,o),
(339,136,c)
);
},
{
closed = 1;
nodes = (
(2365,1702,o),
(2490,1829,o),
(2490,1984,cs),
(2490,2139,o),
(2365,2264,o),
(2210,2264,cs),
(2055,2264,o),
(1929,2139,o),
(1928,1984,cs),
(1929,1829,o),
(2055,1702,o),
(2210,1702,cs)
);
},
{
closed = 1;
nodes = (
(2089,1763,o),
(1990,1863,o),
(1990,1984,cs),
(1990,2106,o),
(2089,2203,o),
(2210,2202,cs),
(2332,2203,o),
(2429,2106,o),
(2430,1984,cs),
(2429,1863,o),
(2332,1763,o),
(2210,1764,cs)
);
}
);
width = 2504;
}
);
unicode = 12503;
}
{
color = 11;
glyphname = "ya-kata";
layers = (
{
layerId = "CD0E3B44-F66A-4791-B84C-A1128DC61275";
shapes = (
{
closed = 1;
nodes = (
(2378,1629,l),
(2338,1833,l),
(87,1394,l),
(127,1191,l)
);
},
{
closed = 1;
nodes = (
(1273,2,l),
(887,2088,l),
(666,2050,l),
(1050,-36,l)
);
},
{
closed = 1;
nodes = (
(1738,626,l),
(2091,789,o),
(2369,1229,o),
(2378,1629,c),
(2164,1655,l),
(2162,1314,o),
(1922,938,o),
(1600,783,c)
);
}
);
width = 2504;
},
{
layerId = "5C20EF92-B63D-42A8-8878-93C2863E0093";
shapes = (
{
closed = 1;
nodes = (
(2430,1469,l),
(2343,1932,l),
(50,1508,l),
(140,1044,l)
);
},
{
closed = 1;
nodes = (
(1395,-3,l),
(1034,2140,l),
(521,2052,l),
(882,-88,l)
);
},
{
closed = 1;
nodes = (
(1765,453,l),
(2158,682,o),
(2408,1060,o),
(2430,1469,c),
(1946,1536,l),
(1941,1262,o),
(1766,1009,o),
(1434,802,c)
);
}
);
width = 2504;
},
{
layerId = "B1F27B51-9973-4381-9301-4FE46FE1CA59";
shapes = (
{
closed = 1;
nodes = (
(2349,1719,l),
(2336,1782,l),
(105,1334,l),
(118,1269,l)
);
},
{
closed = 1;
nodes = (
(1207,4,l),
(809,2061,l),
(743,2046,l),
(1141,-9,l)
);
},
{
closed = 1;
nodes = (
(1721,717,l),
(2053,846,o),
(2349,1318,o),
(2349,1719,c),
(2283,1720,l),
(2283,1342,o),
(2004,897,o),
(1691,772,c)
);
}
);
width = 2504;
}
);
unicode = 12516;
}
{
color = 11;
glyphname = "ri-kata";
layers = (
{
layerId = "CD0E3B44-F66A-4791-B84C-A1128DC61275";
shapes = (
{
closed = 1;
nodes = (
(574,21,l),
(1667,44,o),
(2093,399,o),
(2094,1285,cs),
(2094,2046,l),
(1865,2046,l),
(1865,1281,ls),
(1865,524,o),
(1527,249,o),
(551,222,c)
);
},
{
closed = 1;
nodes = (
(654,900,l),
(654,2046,l),
(426,2046,l),
(426,900,l)
);
}
);
width = 2504;
},
{
layerId = "5C20EF92-B63D-42A8-8878-93C2863E0093";
shapes = (
{
closed = 1;
nodes = (
(551,-26,l),
(1715,-19,o),
(2181,363,o),
(2180,1302,cs),
(2180,2078,l),
(1657,2078,l),
(1657,1289,ls),
(1657,642,o),
(1384,442,o),
(486,422,c)
);
},
{
closed = 1;
nodes = (
(847,900,l),
(847,2080,l),
(321,2080,l),
(319,900,l)
);
}
);
width = 2504;
},
{
layerId = "B1F27B51-9973-4381-9301-4FE46FE1CA59";
shapes = (
{
closed = 1;
nodes = (
(587,45,l),
(1643,78,o),
(2044,416,o),
(2044,1276,cs),
(2044,2027,l),
(1978,2027,l),
(1978,1276,ls),
(1978,457,o),
(1604,143,o),
(585,110,c)
);
},
{
closed = 1;
nodes = (
(550,900,l),
(550,2027,l),
(482,2027,l),
(482,900,l)
);
}
);
width = 2504;
}
);
unicode = 12522;
}
{
color = 11;
glyphname = "wo-kata";
layers = (
{
layerId = "CD0E3B44-F66A-4791-B84C-A1128DC61275";
shapes = (
{
closed = 1;
nodes = (
(459,49,l),
(1617,78,o),
(2232,700,o),
(2232,1846,cs),
(2232,1936,l),
(313,1936,l),
(313,1743,l),
(2121,1743,l),
(2013,1846,l),
(2013,797,o),
(1499,278,o),
(429,243,c)
);
},
{
closed = 1;
nodes = (
(2037,1009,l),
(2039,1200,l),
(435,1200,l),
(435,1009,l)
);
}
);
width = 2504;
},
{
layerId = "5C20EF92-B63D-42A8-8878-93C2863E0093";
shapes = (
{
closed = 1;
nodes = (
(449,-16,l),
(1653,19,o),
(2281,634,o),
(2282,1787,cs),
(2282,1991,l),
(248,1991,l),
(248,1558,l),
(2024,1558,l),
(1780,1787,l),
(1779,847,o),
(1387,468,o),
(360,421,c)
);
},
{
closed = 1;
nodes = (
(1990,858,l),
(1990,1282,l),
(386,1282,l),
(386,858,l)
);
}
);
width = 2504;
},
{
layerId = "B1F27B51-9973-4381-9301-4FE46FE1CA59";
shapes = (
{
closed = 1;
nodes = (
(466,83,l),
(1598,108,o),
(2206,734,o),
(2207,1873,cs),
(2207,1905,l),
(347,1905,l),
(347,1840,l),
(2172,1840,l),
(2141,1873,l),
(2140,769,o),
(1560,173,o),
(461,148,c)
);
},
{
closed = 1;
nodes = (
(2061,1091,l),
(2061,1156,l),
(459,1156,l),
(459,1091,l)
);
}
);
width = 2504;
}
);
unicode = 12530;
}
{
color = 11;
glyphname = "iteration-kata";
layers = (
{
layerId = "CD0E3B44-F66A-4791-B84C-A1128DC61275";
shapes = (
{
closed = 1;
nodes = (
(1852,419,l),
(1515,1013,o),
(1214,1409,o),
(821,1775,c),
(652,1634,l),
(1034,1275,o),
(1321,890,o),
(1652,309,c)
);
}
);
width = 2504;
},
{
layerId = "5C20EF92-B63D-42A8-8878-93C2863E0093";
shapes = (
{
closed = 1;
nodes = (
(1984,490,l),
(1625,1098,o),
(1318,1497,o),
(920,1869,c),
(520,1548,l),
(889,1199,o),
(1182,814,o),
(1536,208,c)
);
}
);
width = 2504;
},
{
layerId = "B1F27B51-9973-4381-9301-4FE46FE1CA59";
shapes = (
{
closed = 1;
nodes = (
(1781,387,l),
(1456,970,o),
(1158,1361,o),
(770,1724,c),
(723,1680,l),
(1111,1314,o),
(1401,929,o),
(1719,358,c)
);
}
);
width = 2504;
}
);
unicode = 12541;
}
{
color = 11;
glyphname = uni4E0B;
layers = (
{
layerId = "CD0E3B44-F66A-4791-B84C-A1128DC61275";
shapes = (
{
closed = 1;
nodes = (
(137,2027,l),
(137,1833,l),
(2369,1833,l),
(2369,2027,l)
);
},
{
closed = 1;
nodes = (
(1100,1872,l),
(1100,-91,l),
(1306,-91,l),
(1306,1872,l)
);
},
{
closed = 1;
nodes = (
(1212,1278,l),
(1516,1121,o),
(1906,883,o),
(2098,727,c),
(2235,904,l),
(2035,1057,o),
(1637,1281,o),
(1342,1426,c)
);
}
);
width = 2504;
},
{
layerId = "5C20EF92-B63D-42A8-8878-93C2863E0093";
shapes = (
{
closed = 1;
nodes = (
(118,2069,l),
(118,1679,l),
(2388,1679,l),
(2388,2069,l)
);
},
{
closed = 1;
nodes = (
(988,1701,l),
(988,-131,l),
(1411,-131,l),
(1411,1701,l)
);
},
{
closed = 1;
nodes = (
(1205,1084,l),
(1472,935,o),
(1846,700,o),
(2011,539,c),
(2305,899,l),
(2119,1062,o),
(1725,1267,o),
(1475,1396,c)
);
}
);
width = 2504;
},
{
layerId = "B1F27B51-9973-4381-9301-4FE46FE1CA59";
shapes = (
{
closed = 1;
nodes = (
(149,1997,l),
(149,1932,l),
(2357,1932,l),
(2357,1997,l)
);
},
{
closed = 1;
nodes = (
(1175,1984,l),
(1175,-65,l),
(1237,-65,l),
(1237,1984,l)
);
},
{
closed = 1;
nodes = (
(1218,1405,l),
(1544,1244,o),
(1944,1002,o),
(2156,851,c),
(2190,906,l),
(1982,1054,o),
(1580,1290,o),
(1253,1447,c)
);
}
);
width = 2504;
}
);
note = cid09494;
unicode = 19979;
}
{
color = 11;
glyphname = uni4E10;
layers = (
{
layerId = "CD0E3B44-F66A-4791-B84C-A1128DC61275";
shapes = (
{
closed = 1;
nodes = (
(469,1018,l),
(469,838,l),
(2154,838,l),
(2154,1018,l)
);
},
{
closed = 1;
nodes = (
(189,2035,l),
(189,1852,l),
(2323,1852,l),
(2323,2035,l)
);
},
{
closed = 1;
nodes = (
(1246,1534,l),
(1246,1356,l),
(2164,1356,l),
(2164,1534,l)
);
},
{
closed = 1;
nodes = (
(2108,1018,l),
(2108,991,l),
(2048,425,o),
(1981,180,o),
(1898,111,cs),
(1864,85,o),
(1836,82,o),
(1772,82,cs),
(1708,82,o),
(1527,85,o),
(1352,100,c),
(1386,48,o),
(1410,-29,o),
(1415,-88,c),
(1588,-96,o),
(1752,-98,o),
(1838,-93,cs),
(1939,-91,o),
(1998,-73,o),
(2058,-15,cs),
(2163,81,o),
(2229,331,o),
(2300,930,cs),
(2304,957,o),
(2308,1018,o),
(2309,1018,c)
);
},
{
closed = 1;
nodes = (
(1142,1952,l),
(1142,938,l),
(1338,938,l),
(1338,1952,l)
);
},
{
closed = 1;
nodes = (
(479,1644,l),
(438,1347,o),
(368,943,o),
(309,700,c),
(503,674,l),
(557,916,o),
(627,1318,o),
(671,1625,c)
);
}
);
width = 2504;
},
{
layerId = "5C20EF92-B63D-42A8-8878-93C2863E0093";
shapes = (
{
closed = 1;
nodes = (
(507,1080,l),
(507,722,l),
(2013,722,l),
(2013,1080,l)
);
},
{
closed = 1;
nodes = (
(176,2109,l),
(176,1745,l),
(2331,1745,l),
(2331,2109,l)
);
},
{
closed = 1;
nodes = (
(1246,1587,l),
(1246,1240,l),
(2157,1240,l),
(2157,1587,l)
);
},
{
closed = 1;
nodes = (
(1937,1080,l),
(1937,1029,l),
(1896,562,o),
(1828,316,o),
(1759,258,cs),
(1715,228,o),
(1689,225,o),
(1633,226,cs),
(1560,225,o),
(1387,228,o),
(1238,239,c),
(1312,136,o),
(1361,-20,o),
(1370,-138,c),
(1531,-140,o),
(1683,-137,o),
(1783,-128,cs),
(1916,-121,o),
(2003,-91,o),
(2090,2,cs),
(2197,102,o),
(2268,366,o),
(2327,923,cs),
(2335,975,o),
(2343,1078,o),
(2344,1080,c)
);
},
{
closed = 1;
nodes = (
(1037,1925,l),
(1037,938,l),
(1429,938,l),
(1429,1925,l)
);
},
{
closed = 1;
nodes = (
(409,1644,l),
(364,1309,o),
(286,885,o),
(216,613,c),
(605,569,l),
(666,838,o),
(741,1261,o),
(791,1606,c)
);
}
);
width = 2504;
},
{
layerId = "B1F27B51-9973-4381-9301-4FE46FE1CA59";
shapes = (
{
closed = 1;
nodes = (
(447,978,l),
(447,915,l),
(2244,915,l),
(2244,978,l)
);
},
{
closed = 1;
nodes = (
(200,1986,l),
(200,1919,l),
(2316,1919,l),
(2316,1986,l)
);
},
{
closed = 1;
nodes = (
(1246,1499,l),
(1246,1433,l),
(2164,1433,l),
(2164,1499,l)
);
},
{
closed = 1;
nodes = (
(2218,978,l),
(2218,965,l),
(2147,336,o),
(2080,91,o),
(1990,12,cs),
(1963,-9,o),
(1932,-12,o),
(1864,-12,cs),
(1804,-12,o),
(1619,-9,o),
(1425,10,c),
(1436,-9,o),
(1442,-35,o),
(1445,-51,c),
(1625,-68,o),
(1798,-73,o),
(1875,-71,cs),
(1954,-71,o),
(1995,-61,o),
(2039,-26,cs),
(2141,67,o),
(2204,310,o),
(2283,932,cs),
(2284,945,o),
(2287,979,o),
(2287,978,c)
);
},
{
closed = 1;
nodes = (
(1211,1969,l),
(1211,938,l),
(1278,938,l),
(1278,1969,l)
);
},
{
closed = 1;
nodes = (
(524,1644,l),
(488,1373,o),
(422,980,o),
(370,758,c),
(439,743,l),
(485,968,o),
(553,1355,o),
(589,1637,c)
);
}
);
width = 2504;
}
);
note = cid09503;
unicode = 19984;
}
{
color = 11;
glyphname = uni4E4F;
layers = (
{
layerId = "CD0E3B44-F66A-4791-B84C-A1128DC61275";
shapes = (
{
closed = 1;
nodes = (
(300,1406,l),
(300,1221,l),
(2033,1221,l),
(2033,1406,l)
);
},
{
closed = 1;
nodes = (
(1143,1896,l),
(1143,1344,l),
(1343,1344,l),
(1343,1896,l)
);
},
{
closed = 1;
nodes = (
(1957,1406,l),
(1957,1363,l),
(1721,1012,o),
(1181,558,o),
(687,331,c),
(729,297,o),
(786,235,o),
(815,191,c),
(1324,442,o),
(1880,900,o),
(2183,1323,c),
(2037,1417,l),
(2003,1406,l)
);
},
{
closed = 1;
nodes = (
(465,496,l),
(687,39,o),
(1068,-56,o),
(1683,-55,cs),
(2352,-55,l),
(2363,-2,o),
(2395,86,o),
(2425,132,c),
(2297,130,o),
(1781,128,o),
(1692,130,cs),
(1172,130,o),
(800,197,o),
(629,564,c)
);
},
{
closed = 1;
nodes = (
(2066,2169,l),
(1648,2068,o),
(882,2003,o),
(244,1981,c),
(262,1937,o),
(285,1859,o),
(291,1808,c),
(939,1827,o),
(1718,1889,o),
(2218,2009,c)
);
},
{
closed = 1;
nodes = (
(280,-71,l),
(451,157,o),
(612,453,o),
(705,647,c),
(527,717,l),
(436,500,o),
(266,216,o),
(111,40,c)
);
}
);
width = 2504;
},
{
layerId = "5C20EF92-B63D-42A8-8878-93C2863E0093";
shapes = (
{
closed = 1;
nodes = (
(300,1459,l),
(300,1090,l),
(1957,1090,l),
(1957,1459,l)
);
},
{
closed = 1;
nodes = (
(1041,1812,l),
(1041,1337,l),
(1445,1337,l),
(1445,1812,l)
);
},
{
closed = 1;
nodes = (
(1807,1459,l),
(1807,1376,l),
(1628,1060,o),
(1160,641,o),
(700,408,c),
(781,340,o),
(905,213,o),
(965,124,c),
(1445,397,o),
(1958,837,o),
(2260,1288,c),
(1967,1480,l),
(1904,1459,l)
);
},
{
closed = 1;
nodes = (
(425,496,l),
(679,0,o),
(1095,-99,o),
(1691,-99,cs),
(2329,-99,l),
(2349,12,o),
(2412,188,o),
(2463,276,c),
(2267,268,o),
(1872,261,o),
(1722,269,cs),
(1295,268,o),
(913,313,o),
(760,614,c)
);
},
{
closed = 1;
nodes = (
(2004,2262,l),
(1547,2156,o),
(839,2091,o),
(187,2076,c),
(223,1990,o),
(267,1829,o),
(276,1724,c),
(939,1734,o),
(1701,1794,o),
(2300,1937,c)
);
},
{
closed = 1;
nodes = (
(385,-111,l),
(561,127,o),
(727,453,o),
(832,660,c),
(464,787,l),
(380,563,o),
(209,286,o),
(44,124,c)
);
}
);
width = 2504;
},
{
layerId = "B1F27B51-9973-4381-9301-4FE46FE1CA59";
shapes = (
{
closed = 1;
nodes = (
(300,1371,l),
(300,1305,l),
(2082,1305,l),
(2082,1371,l)
);
},
{
closed = 1;
nodes = (
(1209,1950,l),
(1209,1350,l),
(1275,1350,l),
(1275,1950,l)
);
},
{
closed = 1;
nodes = (
(2054,1371,l),
(2054,1354,l),
(1782,982,o),
(1195,504,o),
(678,280,c),
(692,268,o),
(706,249,o),
(718,234,c),
(1242,471,o),
(1828,939,o),
(2130,1347,c),
(2084,1378,l),
(2067,1371,l)
);
},
{
closed = 1;
nodes = (
(491,496,l),
(694,64,o),
(1050,-27,o),
(1676,-27,cs),
(2367,-27,l),
(2372,-10,o),
(2385,20,o),
(2399,38,c),
(2317,40,o),
(1720,39,o),
(1671,40,cs),
(1089,40,o),
(726,120,o),
(543,527,c)
);
},
{
closed = 1;
nodes = (
(2106,2108,l),
(1715,2011,o),
(911,1945,o),
(281,1918,c),
(287,1902,o),
(297,1879,o),
(298,1862,c),
(939,1888,o),
(1728,1953,o),
(2164,2054,c)
);
},
{
closed = 1;
nodes = (
(213,-47,l),
(380,177,o),
(537,453,o),
(621,638,c),
(566,670,l),
(474,461,o),
(304,169,o),
(154,-14,c)
);
}
);
width = 2504;
}
);
note = cid09587;
unicode = 20047;
}
{
color = 11;
glyphname = uni4E6D;
layers = (
{
layerId = "CD0E3B44-F66A-4791-B84C-A1128DC61275";
shapes = (
{
closed = 1;
nodes = (
(236,2096,l),
(236,1940,l),
(2273,1940,l),
(2273,2096,l)
);
},
{
closed = 1;
nodes = (
(945,2073,l),
(765,1812,o),
(443,1588,o),
(124,1450,c),
(164,1413,o),
(230,1338,o),
(256,1299,c),
(578,1463,o),
(915,1713,o),
(1124,2013,c)
);
},
{
closed = 1;
nodes = (
(1719,949,l),
(413,498,o),
(363,343,o),
(363,207,cs),
(363,50,o),
(494,-48,o),
(792,-48,cs),
(1910,-48,ls),
(2168,-48,o),
(2254,17,o),
(2280,416,c),
(2224,430,o),
(2157,451,o),
(2103,484,c),
(2091,174,o),
(2050,140,o),
(1925,140,cs),
(777,140,ls),
(642,140,o),
(558,164,o),
(557,222,cs),
(558,295,o),
(648,402,o),
(1875,820,cs),
(1896,828,o),
(1914,838,o),
(1924,851,c),
(1789,957,l),
(1744,949,l)
);
},
{
closed = 1;
nodes = (
(405,949,l),
(405,784,l),
(1689,784,l),
(1747,949,l)
);
},
{
closed = 1;
nodes = (
(861,1576,l),
(1850,1576,l),
(1850,1273,l),
(861,1273,l)
);
},
{
closed = 1;
nodes = (
(660,1725,l),
(660,1124,l),
(2060,1124,l),
(2060,1725,l)
);
}
);
width = 2504;
},
{
layerId = "5C20EF92-B63D-42A8-8878-93C2863E0093";
shapes = (
{
closed = 1;
nodes = (
(183,2158,l),
(183,1862,l),
(2315,1862,l),
(2315,2158,l)
);
},
{
closed = 1;
nodes = (
(823,2120,l),
(669,1863,o),
(372,1658,o),
(62,1532,c),
(138,1462,o),
(260,1308,o),
(318,1229,c),
(642,1403,o),
(978,1675,o),
(1179,1996,c)
);
},
{
closed = 1;
nodes = (
(1672,964,l),
(396,646,o),
(328,477,o),
(328,281,cs),
(328,45,o),
(526,-100,o),
(929,-98,cs),
(1821,-98,ls),
(2186,-100,o),
(2333,-4,o),
(2371,441,c),
(2264,469,o),
(2139,502,o),
(2033,569,c),
(2020,287,o),
(1962,258,o),
(1851,259,cs),
(904,259,ls),
(781,258,o),
(710,275,o),
(711,313,cs),
(710,378,o),
(801,451,o),
(1979,706,cs),
(2014,720,o),
(2042,740,o),
(2056,754,c),
(1797,976,l),
(1719,964,l)
);
},
{
closed = 1;
nodes = (
(361,964,l),
(361,645,l),
(1594,645,l),
(1707,964,l)
);
},
{
closed = 1;
nodes = (
(981,1462,l),
(1711,1462,l),
(1711,1322,l),
(981,1322,l)
);
},
{
closed = 1;
nodes = (
(578,1740,l),
(578,1046,l),
(2147,1046,l),
(2147,1740,l)
);
}
);
width = 2504;
},
{
layerId = "B1F27B51-9973-4381-9301-4FE46FE1CA59";
shapes = (
{
closed = 1;
nodes = (
(271,2058,l),
(271,1992,l),
(2243,1992,l),
(2243,2058,l)
);
},
{
closed = 1;
nodes = (
(1025,2043,l),
(829,1777,o),
(489,1541,o),
(162,1394,c),
(182,1382,o),
(208,1359,o),
(218,1346,c),
(535,1501,o),
(876,1738,o),
(1087,2024,c)
);
},
{
closed = 1;
nodes = (
(1749,940,l),
(423,401,o),
(384,254,o),
(385,160,cs),
(384,52,o),
(474,-11,o),
(703,-11,cs),
(1970,-11,ls),
(2156,-11,o),
(2201,31,o),
(2222,399,c),
(2199,404,o),
(2169,415,o),
(2150,428,c),
(2135,99,o),
(2108,63,o),
(1974,63,cs),
(695,63,ls),
(552,63,o),
(459,92,o),
(458,164,cs),
(459,241,o),
(549,370,o),
(1809,895,cs),
(1819,899,o),
(1831,904,o),
(1837,915,c),
(1782,945,l),
(1761,940,l)
);
},
{
closed = 1;
nodes = (
(433,940,l),
(433,876,l),
(1752,876,l),
(1771,940,l)
);
},
{
closed = 1;
nodes = (
(779,1651,l),
(1942,1651,l),
(1942,1241,l),
(779,1241,l)
);
},
{
closed = 1;
nodes = (
(714,1716,l),
(714,1176,l),
(2006,1176,l),
(2006,1716,l)
);
}
);
width = 2504;
}
);
note = cid09626;
unicode = 20077;
}
{
color = 11;
glyphname = uni4E8B;
layers = (
{
layerId = "CD0E3B44-F66A-4791-B84C-A1128DC61275";
shapes = (
{
closed = 1;
nodes = (
(1145,2211,l),
(1145,120,ls),
(1145,75,o),
(1131,64,o),
(1083,61,cs),
(1040,58,o),
(887,56,o),
(739,61,c),
(765,17,o),
(799,-55,o),
(809,-101,c),
(1020,-101,o),
(1150,-98,o),
(1228,-71,cs),
(1308,-42,o),
(1342,3,o),
(1343,120,cs),
(1343,2211,l)
);
},
{
closed = 1;
nodes = (
(166,2014,l),
(166,1853,l),
(2342,1853,l),
(2342,2014,l)
);
},
{
closed = 1;
nodes = (
(615,1574,l),
(1893,1574,l),
(1893,1397,l),
(615,1397,l)
);
},
{
closed = 1;
nodes = (
(429,1709,l),
(429,1262,l),
(2092,1262,l),
(2092,1709,l)
);
},
{
closed = 1;
nodes = (
(356,1088,l),
(356,946,l),
(1934,946,l),
(1934,176,l),
(2131,176,l),
(2131,1088,l)
);
},
{
closed = 1;
nodes = (
(119,775,l),
(119,621,l),
(2391,621,l),
(2391,775,l)
);
},
{
closed = 1;
nodes = (
(335,438,l),
(335,287,l),
(2036,287,l),
(2036,438,l)
);
}
);
width = 2504;
},
{
layerId = "5C20EF92-B63D-42A8-8878-93C2863E0093";
shapes = (
{
closed = 1;
nodes = (
(1046,2251,l),
(1046,209,ls),
(1046,166,o),
(1033,155,o),
(979,154,cs),
(942,151,o),
(792,147,o),
(695,154,c),
(742,80,o),
(809,-55,o),
(826,-145,c),
(1043,-146,o),
(1180,-137,o),
(1290,-90,cs),
(1401,-33,o),
(1442,38,o),
(1442,209,cs),
(1442,2251,l)
);
},
{
closed = 1;
nodes = (
(136,2119,l),
(136,1815,l),
(2365,1815,l),
(2365,2119,l)
);
},
{
closed = 1;
nodes = (
(765,1515,l),
(1718,1515,l),
(1718,1444,l),
(765,1444,l)
);
},
{
closed = 1;
nodes = (
(389,1758,l),
(389,1209,l),
(2122,1209,l),
(2122,1758,l)
);
},
{
closed = 1;
nodes = (
(335,1150,l),
(335,896,l),
(1769,896,l),
(1769,119,l),
(2169,119,l),
(2169,1150,l)
);
},
{
closed = 1;
nodes = (
(70,840,l),
(70,554,l),
(2431,554,l),
(2431,840,l)
);
},
{
closed = 1;
nodes = (
(322,493,l),
(322,217,l),
(1983,217,l),
(1983,493,l)
);
}
);
width = 2504;
},
{
layerId = "B1F27B51-9973-4381-9301-4FE46FE1CA59";
shapes = (
{
closed = 1;
nodes = (
(1211,2187,l),
(1211,64,ls),
(1211,15,o),
(1196,3,o),
(1151,0,cs),
(1106,-3,o),
(951,-5,o),
(767,0,c),
(780,-22,o),
(793,-55,o),
(798,-73,c),
(1005,-72,o),
(1130,-73,o),
(1188,-59,cs),
(1247,-48,o),
(1277,-19,o),
(1277,64,cs),
(1277,2187,l)
);
},
{
closed = 1;
nodes = (
(187,1945,l),
(187,1879,l),
(2327,1879,l),
(2327,1945,l)
);
},
{
closed = 1;
nodes = (
(518,1611,l),
(2008,1611,l),
(2008,1367,l),
(518,1367,l)
);
},
{
closed = 1;
nodes = (
(455,1677,l),
(455,1297,l),
(2071,1297,l),
(2071,1677,l)
);
},
{
closed = 1;
nodes = (
(371,1050,l),
(371,983,l),
(2044,983,l),
(2044,214,l),
(2105,214,l),
(2105,1050,l)
);
},
{
closed = 1;
nodes = (
(151,732,l),
(151,668,l),
(2367,668,l),
(2367,732,l)
);
},
{
closed = 1;
nodes = (
(344,400,l),
(344,332,l),
(2071,332,l),
(2071,400,l)
);
}
);
width = 2504;
}
);
note = cid09668;
unicode = 20107;
}
{
color = 11;
glyphname = uni4E94;
layers = (
{
layerId = "CD0E3B44-F66A-4791-B84C-A1128DC61275";
shapes = (
{
closed = 1;
nodes = (
(300,1971,l),
(300,1779,l),
(2191,1779,l),
(2191,1971,l)
);
},
{
closed = 1;
nodes = (
(141,235,l),
(141,43,l),
(2369,43,l),
(2369,235,l)
);
},
{
closed = 1;
nodes = (
(1027,1902,l),
(943,1344,o),
(788,569,o),
(670,118,c),
(888,118,l),
(994,556,o),
(1146,1325,o),
(1246,1902,c)
);
},
{
closed = 1;
nodes = (
(396,1231,l),
(396,1042,l),
(1755,1042,l),
(1755,146,l),
(1954,146,l),
(1954,1231,l)
);
}
);
width = 2504;
},
{
layerId = "5C20EF92-B63D-42A8-8878-93C2863E0093";
shapes = (
{
closed = 1;
nodes = (
(266,2041,l),
(266,1652,l),
(2235,1652,l),
(2235,2041,l)
);
},
{
closed = 1;
nodes = (
(126,355,l),
(126,-27,l),
(2388,-27,l),
(2388,355,l)
);
},
{
closed = 1;
nodes = (
(928,1902,l),
(852,1304,o),
(710,587,o),
(579,111,c),
(1021,111,l),
(1133,563,o),
(1277,1276,o),
(1379,1902,c)
);
},
{
closed = 1;
nodes = (
(334,1305,l),
(334,926,l),
(1608,926,l),
(1608,171,l),
(2011,171,l),
(2011,1305,l)
);
}
);
width = 2504;
},
{
layerId = "B1F27B51-9973-4381-9301-4FE46FE1CA59";
shapes = (
{
closed = 1;
nodes = (
(323,1924,l),
(323,1861,l),
(2163,1861,l),
(2163,1924,l)
);
},
{
closed = 1;
nodes = (
(148,153,l),
(148,88,l),
(2357,88,l),
(2357,153,l)
);
},
{
closed = 1;
nodes = (
(1095,1902,l),
(1004,1369,o),
(840,557,o),
(730,124,c),
(799,124,l),
(902,550,o),
(1060,1357,o),
(1157,1902,c)
);
},
{
closed = 1;
nodes = (
(436,1182,l),
(436,1119,l),
(1852,1119,l),
(1852,129,l),
(1917,129,l),
(1917,1182,l)
);
}
);
width = 2504;
}
);
note = cid09680;
unicode = 20116;
}
{
color = 11;
glyphname = uni4E98;
layers = (
{
layerId = "CD0E3B44-F66A-4791-B84C-A1128DC61275";
shapes = (
{
closed = 1;
nodes = (
(211,2052,l),
(211,1869,l),
(2309,1869,l),
(2309,2052,l)
);
},
{
closed = 1;
nodes = (
(134,184,l),
(134,3,l),
(2374,3,l),
(2374,184,l)
);
},
{
closed = 1;
nodes = (
(710,956,l),
(1810,956,l),
(1810,616,l),
(710,616,l)
);
},
{
closed = 1;
nodes = (
(710,1460,l),
(1810,1460,l),
(1810,1121,l),
(710,1121,l)
);
},
{
closed = 1;
nodes = (
(518,1636,l),
(518,440,l),
(2009,440,l),
(2009,1636,l)
);
}
);
width = 2504;
},
{
layerId = "5C20EF92-B63D-42A8-8878-93C2863E0093";
shapes = (
{
closed = 1;
nodes = (
(192,2134,l),
(192,1774,l),
(2344,1774,l),
(2344,2134,l)
);
},
{
closed = 1;
nodes = (
(111,303,l),
(111,-60,l),
(2399,-60,l),
(2399,303,l)
);
},
{
closed = 1;
nodes = (
(875,878,l),
(1639,878,l),
(1639,758,l),
(875,758,l)
);
},
{
closed = 1;
nodes = (
(875,1318,l),
(1639,1318,l),
(1639,1195,l),
(875,1195,l)
);
},
{
closed = 1;
nodes = (
(486,1659,l),
(486,417,l),
(2049,417,l),
(2049,1659,l)
);
}
);
width = 2504;
},
{
layerId = "B1F27B51-9973-4381-9301-4FE46FE1CA59";
shapes = (
{
closed = 1;
nodes = (
(222,1998,l),
(222,1932,l),
(2287,1932,l),
(2287,1998,l)
);
},
{
closed = 1;
nodes = (
(149,107,l),
(149,42,l),
(2357,42,l),
(2357,107,l)
);
},
{
closed = 1;
nodes = (
(600,1008,l),
(1922,1008,l),
(1922,522,l),
(600,522,l)
);
},
{
closed = 1;
nodes = (
(600,1554,l),
(1922,1554,l),
(1922,1074,l),
(600,1074,l)
);
},
{
closed = 1;
nodes = (
(537,1621,l),
(537,455,l),
(1985,455,l),
(1985,1621,l)
);
}
);
width = 2504;
}
);
note = cid09685;
unicode = 20120;
}
{
color = 11;
glyphname = uni4E9B;
layers = (
{
layerId = "CD0E3B44-F66A-4791-B84C-A1128DC61275";
shapes = (
{
closed = 1;
nodes = (
(422,707,l),
(422,518,l),
(2113,518,l),
(2113,707,l)
);
},
{
closed = 1;
nodes = (
(139,160,l),
(139,-32,l),
(2367,-32,l),
(2367,160,l)
);
},
{
closed = 1;
nodes = (
(756,1785,l),
(756,1609,l),
(1241,1609,l),
(1241,1785,l)
);
},
{
closed = 1;
nodes = (
(1375,2211,l),
(1375,1229,ls),
(1375,1001,o),
(1438,940,o),
(1682,939,cs),
(1729,940,o),
(2047,940,o),
(2100,939,cs),
(2309,940,o),
(2367,1033,o),
(2392,1372,c),
(2337,1388,o),
(2254,1419,o),
(2212,1453,c),
(2200,1173,o),
(2185,1124,o),
(2086,1125,cs),
(2017,1124,o),
(1752,1124,o),
(1700,1125,cs),
(1587,1124,o),
(1567,1140,o),
(1567,1229,cs),
(1567,2211,l)
);
},
{
closed = 1;
nodes = (
(128,863,l),
(425,899,o),
(857,953,o),
(1264,1008,c),
(1260,1187,l),
(834,1137,o),
(391,1086,o),
(103,1055,c)
);
},
{
closed = 1;
nodes = (
(2122,1967,l),
(1956,1861,o),
(1674,1748,o),
(1422,1671,c),
(1448,1629,o),
(1477,1562,o),
(1486,1516,c),
(1752,1593,o),
(2055,1704,o),
(2275,1816,c)
);
},
{
closed = 1;
nodes = (
(667,2211,l),
(667,1045,l),
(859,1065,l),
(859,2211,l)
);
},
{
closed = 1;
nodes = (
(268,1937,l),
(268,1002,l),
(448,1022,l),
(448,1937,l)
);
}
);
width = 2504;
},
{
layerId = "5C20EF92-B63D-42A8-8878-93C2863E0093";
shapes = (
{
closed = 1;
nodes = (
(395,806,l),
(395,431,l),
(2126,431,l),
(2126,806,l)
);
},
{
closed = 1;
nodes = (
(95,299,l),
(95,-87,l),
(2411,-87,l),
(2411,299,l)
);
},
{
closed = 1;
nodes = (
(786,1916,l),
(786,1569,l),
(1254,1569,l),
(1254,1916,l)
);
},
{
closed = 1;
nodes = (
(1328,2255,l),
(1328,1356,ls),
(1327,993,o),
(1408,877,o),
(1741,876,cs),
(1803,877,o),
(1943,877,o),
(2011,876,cs),
(2270,877,o),
(2375,991,o),
(2419,1365,c),
(2316,1397,o),
(2143,1458,o),
(2070,1520,c),
(2050,1286,o),
(2041,1245,o),
(1972,1245,cs),
(1939,1245,o),
(1835,1245,o),
(1805,1245,cs),
(1725,1245,o),
(1714,1258,o),
(1714,1360,cs),
(1714,2255,l)
);
},
{
closed = 1;
nodes = (
(101,798,l),
(425,830,o),
(878,876,o),
(1285,926,c),
(1283,1280,l),
(850,1245,o),
(374,1205,o),
(61,1182,c)
);
},
{
closed = 1;
nodes = (
(2092,2016,l),
(1913,1923,o),
(1660,1826,o),
(1422,1770,c),
(1471,1691,o),
(1528,1555,o),
(1543,1466,c),
(1802,1516,o),
(2112,1606,o),
(2374,1704,c)
);
},
{
closed = 1;
nodes = (
(618,2255,l),
(618,1094,l),
(1009,1114,l),
(1009,2255,l)
);
},
{
closed = 1;
nodes = (
(179,2007,l),
(179,1080,l),
(539,1109,l),
(539,2007,l)
);
}
);
width = 2504;
},
{
layerId = "B1F27B51-9973-4381-9301-4FE46FE1CA59";
shapes = (
{
closed = 1;
nodes = (
(439,641,l),
(439,576,l),
(2104,576,l),
(2104,641,l)
);
},
{
closed = 1;
nodes = (
(167,68,l),
(167,6,l),
(2339,6,l),
(2339,68,l)
);
},
{
closed = 1;
nodes = (
(733,1699,l),
(733,1635,l),
(1234,1635,l),
(1234,1699,l)
);
},
{
closed = 1;
nodes = (
(1407,2183,l),
(1407,1145,ls),
(1407,1007,o),
(1459,979,o),
(1642,978,cs),
(1681,979,o),
(2115,979,o),
(2160,978,cs),
(2334,979,o),
(2359,1061,o),
(2375,1374,c),
(2351,1381,o),
(2327,1393,o),
(2308,1406,c),
(2298,1099,o),
(2281,1043,o),
(2161,1043,cs),
(2069,1043,o),
(1698,1043,o),
(1633,1043,cs),
(1496,1043,o),
(1470,1063,o),
(1470,1143,cs),
(1470,2183,l)
);
},
{
closed = 1;
nodes = (
(143,906,l),
(425,945,o),
(843,1005,o),
(1249,1062,c),
(1245,1126,l),
(823,1066,o),
(401,1008,o),
(133,973,c)
);
},
{
closed = 1;
nodes = (
(2141,1935,l),
(1985,1823,o),
(1683,1696,o),
(1422,1605,c),
(1433,1589,o),
(1441,1568,o),
(1449,1553,c),
(1717,1646,o),
(2017,1770,o),
(2209,1891,c)
);
},
{
closed = 1;
nodes = (
(697,2183,l),
(697,1013,l),
(760,1033,l),
(760,2183,l)
);
},
{
closed = 1;
nodes = (
(326,1892,l),
(326,950,l),
(388,964,l),
(388,1892,l)
);
}
);
width = 2504;
}
);
note = cid09689;
unicode = 20123;
}
{
color = 11;
glyphname = uni4E9E;
layers = (
{
layerId = "CD0E3B44-F66A-4791-B84C-A1128DC61275";
shapes = (
{
closed = 1;
nodes = (
(193,2052,l),
(193,1874,l),
(2321,1874,l),
(2321,2052,l)
);
},
{
closed = 1;
nodes = (
(130,195,l),
(130,18,l),
(2376,18,l),
(2376,195,l)
);
},
{
closed = 1;
nodes = (
(423,820,l),
(423,648,l),
(874,648,l),
(874,98,l),
(1059,98,l),
(1059,820,l)
);
},
{
closed = 1;
nodes = (
(307,1493,l),
(307,550,l),
(498,550,l),
(498,1326,l),
(1059,1326,l),
(1059,1493,l)
);
},
{
closed = 1;
nodes = (
(1059,1971,l),
(871,1971,l),
(871,1410,l),
(1059,1410,l)
);
},
{
closed = 1;
nodes = (
(1429,1968,l),
(1429,1407,l),
(1614,1407,l),
(1614,1968,l)
);
},
{
closed = 1;
nodes = (
(1429,1497,l),
(1429,1329,l),
(1999,1329,l),
(1999,564,l),
(2196,564,l),
(2196,1497,l)
);
},
{
closed = 1;
nodes = (
(1429,820,l),
(1429,95,l),
(1614,95,l),
(1614,648,l),
(2101,648,l),
(2101,820,l)
);
}
);
width = 2504;
},
{
layerId = "5C20EF92-B63D-42A8-8878-93C2863E0093";
shapes = (
{
closed = 1;
nodes = (
(123,2141,l),
(123,1792,l),
(2386,1792,l),
(2386,2141,l)
);
},
{
closed = 1;
nodes = (
(100,315,l),
(100,-32,l),
(2406,-32,l),
(2406,315,l)
);
},
{
closed = 1;
nodes = (
(493,925,l),
(493,598,l),
(783,598,l),
(783,119,l),
(1156,119,l),
(1156,925,l)
);
},
{
closed = 1;
nodes = (
(258,1565,l),
(258,525,l),
(644,525,l),
(644,1239,l),
(1158,1239,l),
(1158,1565,l)
);
},
{
closed = 1;
nodes = (
(1158,1984,l),
(778,1984,l),
(778,1405,l),
(1158,1405,l)
);
},
{
closed = 1;
nodes = (
(1330,1968,l),
(1330,1388,l),
(1703,1388,l),
(1703,1968,l)
);
},
{
closed = 1;
nodes = (
(1330,1562,l),
(1330,1236,l),
(1850,1236,l),
(1850,539,l),
(2246,539,l),
(2246,1562,l)
);
},
{
closed = 1;
nodes = (
(1330,925,l),
(1330,114,l),
(1703,114,l),
(1703,598,l),
(2059,598,l),
(2059,925,l)
);
}
);
width = 2504;
},
{
layerId = "B1F27B51-9973-4381-9301-4FE46FE1CA59";
shapes = (
{
closed = 1;
nodes = (
(238,1996,l),
(238,1930,l),
(2278,1930,l),
(2278,1996,l)
);
},
{
closed = 1;
nodes = (
(149,117,l),
(149,53,l),
(2357,53,l),
(2357,117,l)
);
},
{
closed = 1;
nodes = (
(378,751,l),
(378,685,l),
(932,685,l),
(932,85,l),
(995,85,l),
(995,751,l)
);
},
{
closed = 1;
nodes = (
(339,1450,l),
(339,567,l),
(404,567,l),
(404,1384,l),
(995,1384,l),
(995,1450,l)
);
},
{
closed = 1;
nodes = (
(995,1962,l),
(932,1962,l),
(932,1412,l),
(995,1412,l)
);
},
{
closed = 1;
nodes = (
(1495,1968,l),
(1495,1419,l),
(1558,1419,l),
(1558,1968,l)
);
},
{
closed = 1;
nodes = (
(1495,1454,l),
(1495,1390,l),
(2094,1390,l),
(2094,581,l),
(2159,581,l),
(2159,1454,l)
);
},
{
closed = 1;
nodes = (
(1495,751,l),
(1495,84,l),
(1558,84,l),
(1558,685,l),
(2131,685,l),
(2131,751,l)
);
}
);
width = 2504;
}
);
note = cid09694;
unicode = 20126;
}
{
color = 11;
glyphname = uni4E9F;
layers = (
{
layerId = "CD0E3B44-F66A-4791-B84C-A1128DC61275";
shapes = (
{
closed = 1;
nodes = (
(202,2052,l),
(202,1874,l),
(2318,1874,l),
(2318,2052,l)
);
},
{
closed = 1;
nodes = (
(1525,1575,l),
(1525,1412,l),
(2151,1412,l),
(2151,1575,l)
);
},
{
closed = 1;
nodes = (
(945,1656,l),
(945,1486,l),
(1332,1486,l),
(1332,1656,l)
);
},
{
closed = 1;
nodes = (
(127,181,l),
(127,5,l),
(2379,5,l),
(2379,181,l)
);
},
{
closed = 1;
nodes = (
(364,1492,l),
(364,1334,l),
(764,1334,l),
(764,776,l),
(364,776,l),
(364,612,l),
(938,612,l),
(938,1492,l)
);
},
{
closed = 1;
nodes = (
(276,1492,l),
(276,447,l),
(444,447,l),
(444,1492,l)
);
},
{
closed = 1;
nodes = (
(934,1978,l),
(900,1794,o),
(852,1561,o),
(807,1410,c),
(994,1402,l),
(1035,1554,o),
(1082,1786,o),
(1121,1978,c)
);
},
{
closed = 1;
nodes = (
(1265,1656,l),
(1265,1613,ls),
(1246,799,o),
(1224,505,o),
(1175,442,c),
(1154,414,o),
(1135,410,o),
(1095,410,cs),
(1053,410,o),
(956,410,o),
(851,418,c),
(879,373,o),
(901,298,o),
(902,249,c),
(1006,244,o),
(1113,244,o),
(1175,250,cs),
(1243,257,o),
(1295,275,o),
(1339,337,cs),
(1406,425,o),
(1425,707,o),
(1448,1565,c),
(1450,1592,o),
(1450,1657,o),
(1450,1656,c)
);
},
{
closed = 1;
nodes = (
(2095,1575,l),
(2095,1546,l),
(2012,1008,o),
(1752,637,o),
(1420,480,c),
(1456,446,o),
(1503,379,o),
(1529,333,c),
(1902,531,o),
(2175,916,o),
(2271,1549,c),
(2159,1581,l),
(2127,1575,l)
);
},
{
closed = 1;
nodes = (
(1524,1327,l),
(1662,877,o),
(1916,508,o),
(2284,331,c),
(2313,380,o),
(2369,449,o),
(2413,486,c),
(2057,633,o),
(1800,966,o),
(1676,1368,c)
);
}
);
width = 2504;
},
{
layerId = "5C20EF92-B63D-42A8-8878-93C2863E0093";
shapes = (
{
closed = 1;
nodes = (
(152,2141,l),
(152,1792,l),
(2380,1792,l),
(2380,2141,l)
);
},
{
closed = 1;
nodes = (
(1592,1619,l),
(1592,1302,l),
(2104,1302,l),
(2104,1619,l)
);
},
{
closed = 1;
nodes = (
(958,1679,l),
(958,1351,l),
(1277,1351,l),
(1277,1679,l)
);
},
{
closed = 1;
nodes = (
(92,283,l),
(92,-65,l),
(2414,-65,l),
(2414,283,l)
);
},
{
closed = 1;
nodes = (
(387,1554,l),
(387,1252,l),
(657,1252,l),
(657,943,l),
(387,943,l),
(387,633,l),
(991,633,l),
(991,1554,l)
);
},
{
closed = 1;
nodes = (
(223,1554,l),
(223,455,l),
(549,455,l),
(549,1554,l)
);
},
{
closed = 1;
nodes = (
(845,1999,l),
(812,1763,o),
(761,1468,o),
(712,1277,c),
(1083,1267,l),
(1126,1463,o),
(1175,1756,o),
(1216,1999,c)
);
},
{
closed = 1;
nodes = (
(1172,1679,l),
(1172,1605,ls),
(1164,889,o),
(1155,618,o),
(1112,561,c),
(1090,533,o),
(1064,524,o),
(1025,524,cs),
(976,524,o),
(878,524,o),
(777,532,c),
(831,443,o),
(876,298,o),
(875,204,c),
(1006,205,o),
(1135,205,o),
(1215,218,cs),
(1300,236,o),
(1373,257,o),
(1434,354,cs),
(1507,447,o),
(1517,747,o),
(1530,1530,c),
(1532,1573,o),
(1532,1679,o),
(1532,1679,c)
);
},
{
closed = 1;
nodes = (
(1991,1619,l),
(1991,1567,l),
(1937,1135,o),
(1757,769,o),
(1445,612,c),
(1514,546,o),
(1609,414,o),
(1656,325,c),
(2049,552,o),
(2258,951,o),
(2336,1566,c),
(2115,1625,l),
(2053,1619,l)
);
},
{
closed = 1;
nodes = (
(1519,1207,l),
(1662,815,o),
(1872,490,o),
(2200,314,c),
(2262,411,o),
(2369,555,o),
(2451,625,c),
(2152,754,o),
(1933,1001,o),
(1822,1286,c)
);
}
);
width = 2504;
},
{
layerId = "B1F27B51-9973-4381-9301-4FE46FE1CA59";
shapes = (
{
closed = 1;
nodes = (
(239,1996,l),
(239,1930,l),
(2278,1930,l),
(2278,1996,l)
);
},
{
closed = 1;
nodes = (
(1480,1547,l),
(1480,1483,l),
(2183,1483,l),
(2183,1547,l)
);
},
{
closed = 1;
nodes = (
(934,1641,l),
(934,1575,l),
(1370,1575,l),
(1370,1641,l)
);
},
{
closed = 1;
nodes = (
(149,115,l),
(149,50,l),
(2357,50,l),
(2357,115,l)
);
},
{
closed = 1;
nodes = (
(349,1454,l),
(349,1388,l),
(837,1388,l),
(837,664,l),
(349,664,l),
(349,599,l),
(903,599,l),
(903,1454,l)
);
},
{
closed = 1;
nodes = (
(311,1454,l),
(311,440,l),
(375,440,l),
(375,1454,l)
);
},
{
closed = 1;
nodes = (
(990,1965,l),
(959,1814,o),
(914,1622,o),
(871,1499,c),
(936,1492,l),
(974,1615,o),
(1021,1806,o),
(1057,1965,c)
);
},
{
closed = 1;
nodes = (
(1326,1641,l),
(1326,1620,ls),
(1301,739,o),
(1269,430,o),
(1214,365,c),
(1197,337,o),
(1180,335,o),
(1142,335,cs),
(1105,335,o),
(1008,335,o),
(900,345,c),
(911,328,o),
(917,298,o),
(919,279,c),
(1006,270,o),
(1098,270,o),
(1149,269,cs),
(1206,271,o),
(1242,287,o),
(1275,325,cs),
(1339,410,o),
(1365,682,o),
(1392,1589,c),
(1395,1604,o),
(1395,1642,o),
(1396,1641,c)
);
},
{
closed = 1;
nodes = (
(2161,1547,l),
(2161,1531,l),
(2062,925,o),
(1750,551,o),
(1405,393,c),
(1419,381,o),
(1435,357,o),
(1445,338,c),
(1806,518,o),
(2122,895,o),
(2226,1540,c),
(2187,1553,l),
(2176,1547,l)
);
},
{
closed = 1;
nodes = (
(1528,1409,l),
(1662,917,o),
(1944,520,o),
(2338,340,c),
(2349,358,o),
(2369,381,o),
(2387,394,c),
(1993,551,o),
(1711,945,o),
(1582,1422,c)
);
}
);
width = 2504;
}
);
note = cid09696;
unicode = 20127;
}
{
color = 11;
glyphname = uni4EA4;
layers = (
{
layerId = "CD0E3B44-F66A-4791-B84C-A1128DC61275";
shapes = (
{
closed = 1;
nodes = (
(1612,1195,l),
(1379,561,o),
(853,239,o),
(99,83,c),
(137,35,o),
(199,-54,o),
(222,-103,c),
(989,89,o),
(1542,439,o),
(1815,1135,c)
);
},
{
closed = 1;
nodes = (
(793,1625,l),
(640,1411,o),
(378,1206,o),
(132,1079,c),
(181,1037,o),
(258,962,o),
(293,922,c),
(534,1073,o),
(815,1310,o),
(992,1551,c)
);
},
{
closed = 1;
nodes = (
(719,1123,l),
(987,459,o),
(1488,57,o),
(2285,-93,c),
(2313,-40,o),
(2370,46,o),
(2414,90,c),
(1641,217,o),
(1135,591,o),
(902,1179,c)
);
},
{
closed = 1;
nodes = (
(152,1888,l),
(152,1698,l),
(2351,1698,l),
(2351,1888,l)
);
},
{
closed = 1;
nodes = (
(1149,2215,l),
(1149,1766,l),
(1345,1766,l),
(1345,2215,l)
);
},
{
closed = 1;
nodes = (
(1543,1517,l),
(1782,1352,o),
(2074,1110,o),
(2206,944,c),
(2377,1082,l),
(2231,1248,o),
(1939,1479,o),
(1701,1633,c)
);
}
);
width = 2504;
},
{
layerId = "5C20EF92-B63D-42A8-8878-93C2863E0093";
shapes = (
{
closed = 1;
nodes = (
(1498,1208,l),
(1283,643,o),
(773,358,o),
(59,230,c),
(132,140,o),
(257,-45,o),
(306,-143,c),
(1053,41,o),
(1616,409,o),
(1917,1086,c)
);
},
{
closed = 1;
nodes = (
(698,1642,l),
(558,1460,o),
(312,1280,o),
(82,1174,c),
(178,1097,o),
(335,955,o),
(413,869,c),
(644,1011,o),
(922,1259,o),
(1106,1486,c)
);
},
{
closed = 1;
nodes = (
(645,1083,l),
(939,410,o),
(1372,18,o),
(2192,-137,c),
(2249,-26,o),
(2363,146,o),
(2448,234,c),
(1690,349,o),
(1235,673,o),
(1021,1192,c)
);
},
{
closed = 1;
nodes = (
(131,1998,l),
(131,1609,l),
(2366,1609,l),
(2366,1998,l)
);
},
{
closed = 1;
nodes = (
(1047,2260,l),
(1047,1743,l),
(1444,1743,l),
(1444,2260,l)
);
},
{
closed = 1;
nodes = (
(1448,1441,l),
(1662,1281,o),
(1947,1047,o),
(2064,891,c),
(2419,1164,l),
(2270,1325,o),
(1980,1538,o),
(1766,1677,c)
);
}
);
width = 2504;
},
{
layerId = "B1F27B51-9973-4381-9301-4FE46FE1CA59";
shapes = (
{
closed = 1;
nodes = (
(1685,1186,l),
(1442,507,o),
(905,163,o),
(125,-14,c),
(140,-31,o),
(161,-60,o),
(168,-77,c),
(946,120,o),
(1493,460,o),
(1751,1167,c)
);
},
{
closed = 1;
nodes = (
(857,1614,l),
(695,1379,o),
(421,1158,o),
(169,1015,c),
(183,999,o),
(206,970,o),
(211,957,c),
(463,1111,o),
(743,1346,o),
(919,1592,c)
);
},
{
closed = 1;
nodes = (
(766,1149,l),
(1019,491,o),
(1565,82,o),
(2346,-65,c),
(2356,-48,o),
(2376,-19,o),
(2391,-4,c),
(1610,131,o),
(1069,536,o),
(825,1170,c)
);
},
{
closed = 1;
nodes = (
(165,1817,l),
(165,1754,l),
(2340,1754,l),
(2340,1817,l)
);
},
{
closed = 1;
nodes = (
(1215,2185,l),
(1215,1781,l),
(1279,1781,l),
(1279,2185,l)
);
},
{
closed = 1;
nodes = (
(1606,1566,l),
(1864,1398,o),
(2157,1149,o),
(2298,979,c),
(2347,1028,l),
(2206,1196,o),
(1912,1440,o),
(1658,1605,c)
);
}
);
width = 2504;
}
);
note = cid09707;
unicode = 20132;
}
{
color = 11;
glyphname = uni4EB6;
layers = (
{
layerId = "CD0E3B44-F66A-4791-B84C-A1128DC61275";
shapes = (
{
closed = 1;
nodes = (
(130,146,l),
(130,-10,l),
(2376,-10,l),
(2376,146,l)
);
},
{
closed = 1;
nodes = (
(134,2021,l),
(134,1870,l),
(2372,1870,l),
(2372,2021,l)
);
},
{
closed = 1;
nodes = (
(710,516,l),
(1831,516,l),
(1831,366,l),
(710,366,l)
);
},
{
closed = 1;
nodes = (
(710,769,l),
(1831,769,l),
(1831,624,l),
(710,624,l)
);
},
{
closed = 1;
nodes = (
(526,882,l),
(526,254,l),
(2023,254,l),
(2023,882,l)
);
},
{
closed = 1;
nodes = (
(1149,2217,l),
(1149,1927,l),
(1347,1927,l),
(1347,2217,l)
);
},
{
closed = 1;
nodes = (
(570,1634,l),
(1965,1634,l),
(1965,1094,l),
(570,1094,l)
);
},
{
closed = 1;
nodes = (
(395,1752,l),
(395,975,l),
(2150,975,l),
(2150,1752,l)
);
},
{
closed = 1;
nodes = (
(920,1429,l),
(1598,1429,l),
(1598,1300,l),
(920,1300,l)
);
},
{
closed = 1;
nodes = (
(774,1521,l),
(774,1205,l),
(1752,1205,l),
(1752,1521,l)
);
}
);
width = 2504;
},
{
layerId = "5C20EF92-B63D-42A8-8878-93C2863E0093";
shapes = (
{
closed = 1;
nodes = (
(100,228,l),
(100,-69,l),
(2406,-69,l),
(2406,228,l)
);
},
{
closed = 1;
nodes = (
(111,2091,l),
(111,1808,l),
(2395,1808,l),
(2395,2091,l)
);
},
{
closed = 1;
nodes = (
(842,511,l),
(1700,511,l),
(1700,453,l),
(842,453,l)
);
},
{
closed = 1;
nodes = (
(842,729,l),
(1700,729,l),
(1700,677,l),
(842,677,l)
);
},
{
closed = 1;
nodes = (
(473,909,l),
(473,279,l),
(2088,279,l),
(2088,909,l)
);
},
{
closed = 1;
nodes = (
(1047,2264,l),
(1047,1919,l),
(1451,1919,l),
(1451,2264,l)
);
},
{
closed = 1;
nodes = (
(716,1554,l),
(1834,1554,l),
(1834,1147,l),
(716,1147,l)
);
},
{
closed = 1;
nodes = (
(376,1745,l),
(376,956,l),
(2203,956,l),
(2203,1745,l)
);
},
{
closed = 1;
nodes = (
(1066,1380,l),
(1466,1380,l),
(1466,1321,l),
(1066,1321,l)
);
},
{
closed = 1;
nodes = (
(797,1504,l),
(797,1197,l),
(1757,1197,l),
(1757,1504,l)
);
}
);
width = 2504;
},
{
layerId = "B1F27B51-9973-4381-9301-4FE46FE1CA59";
shapes = (
{
closed = 1;
nodes = (
(149,92,l),
(149,27,l),
(2357,27,l),
(2357,92,l)
);
},
{
closed = 1;
nodes = (
(149,1974,l),
(149,1908,l),
(2357,1908,l),
(2357,1974,l)
);
},
{
closed = 1;
nodes = (
(623,518,l),
(1917,518,l),
(1917,308,l),
(623,308,l)
);
},
{
closed = 1;
nodes = (
(623,797,l),
(1917,797,l),
(1917,587,l),
(623,587,l)
);
},
{
closed = 1;
nodes = (
(561,865,l),
(561,237,l),
(1980,237,l),
(1980,865,l)
);
},
{
closed = 1;
nodes = (
(1215,2185,l),
(1215,1934,l),
(1279,1934,l),
(1279,2185,l)
);
},
{
closed = 1;
nodes = (
(474,1686,l),
(2053,1686,l),
(2053,1059,l),
(474,1059,l)
);
},
{
closed = 1;
nodes = (
(409,1758,l),
(409,989,l),
(2115,989,l),
(2115,1758,l)
);
},
{
closed = 1;
nodes = (
(826,1461,l),
(1685,1461,l),
(1685,1285,l),
(826,1285,l)
);
},
{
closed = 1;
nodes = (
(759,1533,l),
(759,1212,l),
(1750,1212,l),
(1750,1533,l)
);
}
);
width = 2504;
}
);
note = cid09741;
unicode = 20150;
}
